#N canvas 342 85 1103 800 10;
#X declare -path rj;
#X declare -path puma;
#X declare -path puma;
#X declare -path mikrokosmos;
#X declare -path puma;
#X declare -path puma;
#X declare -path puma;
#X declare -path puma;
#X declare -path puma;
#X declare -path puma;
#X declare -path puma;
#X declare -path puma;
#X floatatom 19 73 5 60 240 2 BPM - bpm;
#X obj 16 4 loadbang;
#X obj 17 34 f 120;
#X obj 391 6 Kseq;
#X obj 78 4 declare -path rj;
#X obj 485 7 monome;
#X floatatom 127 25 5 0 0 0 - - -;
#X obj 643 53 monomelogic;
#X msg 76 47 60;
#X msg 107 49 240;
#X obj 668 202 demux~;
#X obj 184 4 declare -path mikrokosmos;
#N canvas 402 328 1462 999 samplebank 0;
#X obj 12 443 dac~;
#X msg 523 365 help;
#X msg 573 339 freq 0.8 \, mod 1.3;
#X obj 573 319 loadbang;
#X obj 389 358 e_chorus mychorus;
#X obj 390 407 dac~;
#X obj 19 339 e_freqshift \$0-NAME;
#X floatatom 126 302 5 0 0 0 - - -;
#X obj 17 12 Ksampler 0;
#X obj 190 231 r sampler-0;
#X floatatom 190 256 5 0 0 0 - - -;
#X obj 339 15;
#X obj 201 293 * 100;
#X connect 1 0 4 1;
#X connect 2 0 4 1;
#X connect 3 0 2 0;
#X connect 4 0 5 0;
#X connect 4 1 5 1;
#X connect 6 0 0 0;
#X connect 7 0 6 1;
#X connect 8 0 6 0;
#X connect 9 0 10 0;
#X connect 9 0 8 0;
#X connect 10 0 12 0;
#X connect 11 0 4 0;
#X connect 12 0 7 0;
#X restore 817 96 pd samplebank;
#X floatatom 182 187 3 0 0 0 - - -;
#X floatatom 152 186 3 0 0 0 - - -;
#X obj 152 161 ctlin;
#X obj 152 208 bng 20 250 50 0 empty empty empty 17 7 0 10 -262144
-1 -1;
#X obj 273 171 Klooper 8 4 5;
#X obj -112 140 adc~ 4;
#X obj 167 628 m.gate;
#X obj -210 676 *~ 0.05;
#X obj -169 622 ctlin 2;
#X obj -170 646 / 64;
#X obj -190 707 ctlin 14;
#X obj -251 769 e_forcepitch;
#X obj -191 732 * 2;
#X obj -18 682 dac~;
#X obj -277 681;
#X msg -277 681;
#X obj -257 140 adc~ 1;
#X obj -64 141 adc~ 5;
#X obj -207 140 adc~ 2;
#X obj -207 172 *~ 0.03;
#X obj -159 140 adc~ 3;
#X obj -16 141 adc~ 6;
#X obj 30 142 adc~ 7;
#X obj 75 142 adc~ 8;
#X text -267 6 If monome does not work lsof -i -P |grep 21339;
#X obj -256 268 *~ 0.2;
#X obj -132 429 Ksamplerecorder 8 2;
#X obj -264 430 Ksamplerecorder 8 1;
#X obj 132 429 Ksamplerecorder 8 4;
#X obj 3 428 Ksamplerecorder 8 3;
#X obj 263 428 Ksamplerecorder 8 5;
#X obj 395 427 Ksamplerecorder 8 6;
#X obj 532 426 Ksamplerecorder 8 7;
#X obj 659 427 Ksamplerecorder 8 8;
#X obj 7 461 KsampleCutter 3;
#X obj -264 459 KsampleCutter 1;
#X obj -126 461 KsampleCutter 2;
#X connect 1 0 2 0;
#X connect 2 0 0 0;
#X connect 8 0 0 0;
#X connect 9 0 0 0;
#X connect 14 0 16 0;
#X connect 15 0 14 0;
#X connect 15 1 13 0;
#X connect 20 0 24 0;
#X connect 21 0 22 0;
#X connect 22 0 20 1;
#X connect 23 0 25 0;
#X connect 25 0 24 1;
#X connect 29 0 38 0;
#X connect 31 0 32 0;
#X connect 33 0 42 0;
#X connect 34 0 44 0;
#X connect 38 0 39 0;
#X connect 38 0 40 0;
#X connect 38 0 41 0;
#X connect 38 0 42 0;
#X connect 38 0 43 0;
#X connect 38 0 44 0;
#X connect 38 0 45 0;
#X connect 38 0 46 0;
#X connect 39 0 49 0;
#X connect 39 1 49 1;
#X connect 40 0 48 0;
#X connect 40 1 48 1;
#X connect 42 0 47 0;
#X connect 42 1 47 1;
#X connect 47 4 26 0;
#X connect 48 4 26 0;
#X connect 49 4 26 0;
