#N canvas 2136 61 1235 821 10;
#X declare -path rj;
#X declare -path puma;
#X declare -path puma;
#X declare -path mikrokosmos;
#X floatatom 19 73 5 60 240 2 BPM - bpm;
#X obj 16 4 loadbang;
#X obj 17 34 f 120;
#X obj 391 6 Kseq;
#X obj 78 4 declare -path rj;
#X obj 7 130 adc~;
#X obj 2 433 dac~;
#X obj 510 53 monome;
#X floatatom 127 25 5 0 0 0 - - -;
#X obj 304 732 dac~;
#X obj 789 410 e_forcepitch;
#X floatatom 870 378 5 0 127 1 desired_pitch - -;
#X obj 914 334 *~ 0;
#X obj 913 313 osc~ 440;
#X obj 913 290 mtof;
#X floatatom 915 262 5 0 0 0 - - -;
#X obj 915 445 sigmund~ pitch;
#X floatatom 915 470 5 0 0 0 - - -;
#X obj 953 335 tgl 15 0 empty empty empty 17 7 0 10 -262144 -1 -1 0
1;
#X obj 789 442 *~ 0.7;
#X obj 790 479 dac~;
#X obj 643 53 monomelogic;
#X msg 76 47 60;
#X msg 107 49 240;
#X obj 312 199 Klooper 8 2;
#X obj 4 199 Klooper 32 0;
#X obj 159 199 Klooper 16 1;
#X obj 466 199 Klooper 8 3;
#X obj 668 202 demux~;
#X obj 184 4 declare -path mikrokosmos;
#N canvas 2723 183 801 631 effect3 1;
#X obj 28 -100 inlet~;
#X obj 15 268 outlet~;
#X obj 124 269 outlet~;
#X msg 146 139 help;
#X msg 187 -16 mod \$1;
#X msg 121 -17 freq \$1;
#X obj 187 -39 / 100;
#X floatatom 187 -63 5 0 0 2 mod - -;
#X obj 121 -39 / 100;
#X floatatom 121 -59 5 0 0 2 freq - -;
#X obj 47 18 e_chorus mychorus;
#X obj 44 50 e_circlepan;
#X obj 163 -102 ctlin 16;
#X obj 229 -101 ctlin 4;
#X obj 32 162 m.gate;
#X obj 119 163 m.gate;
#X obj 100 -99 ctlin 25;
#X connect 0 0 10 0;
#X connect 3 0 10 1;
#X connect 4 0 10 1;
#X connect 5 0 10 1;
#X connect 6 0 4 0;
#X connect 7 0 6 0;
#X connect 8 0 5 0;
#X connect 9 0 8 0;
#X connect 10 0 11 0;
#X connect 10 1 11 1;
#X connect 11 0 14 0;
#X connect 11 1 15 0;
#X connect 12 0 9 0;
#X connect 13 0 7 0;
#X connect 14 0 1 0;
#X connect 15 0 2 0;
#X connect 16 0 14 1;
#X connect 16 0 15 1;
#X restore 531 484 pd effect3;
#X connect 1 0 2 0;
#X connect 2 0 0 0;
#X connect 5 0 24 0;
#X connect 5 0 25 0;
#X connect 5 0 26 0;
#X connect 5 0 27 0;
#X connect 10 0 16 0;
#X connect 10 0 19 0;
#X connect 11 0 10 1;
#X connect 12 0 10 0;
#X connect 13 0 12 0;
#X connect 14 0 13 0;
#X connect 15 0 14 0;
#X connect 16 0 17 0;
#X connect 18 0 12 1;
#X connect 19 0 20 0;
#X connect 19 0 20 1;
#X connect 22 0 0 0;
#X connect 23 0 0 0;
#X connect 24 0 30 0;
#X connect 25 0 6 0;
#X connect 26 0 6 0;
#X connect 27 0 10 0;
#X connect 30 0 9 0;
#X connect 30 1 9 1;
