#N canvas 872 137 1235 821 10;
#X declare -path rj;
#X declare -path puma;
#X declare -path puma;
#X declare -path mikrokosmos;
#X floatatom 19 73 5 60 240 2 BPM - bpm;
#X obj 16 4 loadbang;
#X obj 17 34 f 120;
#X obj 391 6 Kseq;
#X obj 78 4 declare -path rj;
#X obj 2 433 dac~;
#X obj 510 53 monome;
#X floatatom 127 25 5 0 0 0 - - -;
#X obj 643 53 monomelogic;
#X msg 76 47 60;
#X msg 107 49 240;
#X obj 668 202 demux~;
#X obj 184 4 declare -path mikrokosmos;
#N canvas 402 328 1462 999 samplebank 0;
#X obj 12 443 dac~;
#X msg 523 365 help;
#X msg 573 339 freq 0.8 \, mod 1.3;
#X obj 573 319 loadbang;
#X obj 389 358 e_chorus mychorus;
#X obj 390 407 dac~;
#X obj 19 339 e_freqshift \$0-NAME;
#X floatatom 126 302 5 0 0 0 - - -;
#X obj 17 12 Ksampler 0;
#X obj 190 231 r sampler-0;
#X floatatom 190 256 5 0 0 0 - - -;
#X obj 339 15;
#X obj 201 293 * 100;
#X connect 1 0 4 1;
#X connect 2 0 4 1;
#X connect 3 0 2 0;
#X connect 4 0 5 0;
#X connect 4 1 5 1;
#X connect 6 0 0 0;
#X connect 7 0 6 1;
#X connect 8 0 6 0;
#X connect 9 0 10 0;
#X connect 9 0 8 0;
#X connect 10 0 12 0;
#X connect 11 0 4 0;
#X connect 12 0 7 0;
#X restore 817 96 pd samplebank;
#X floatatom 182 187 3 0 0 0 - - -;
#X floatatom 152 186 3 0 0 0 - - -;
#X obj 152 161 ctlin;
#X obj 152 208 bng 20 250 50 0 empty empty empty 17 7 0 10 -262144
-1 -1;
#X obj 274 169 Klooper 8 4 5;
#X obj 7 130 adc~ 1;
#X obj 9 317 Ksamplerecorder 23;
#X obj 116 398 KsampleCutter 1;
#X obj 161 337 Ksamplerecorder 25;
#X connect 1 0 2 0;
#X connect 2 0 0 0;
#X connect 9 0 0 0;
#X connect 10 0 0 0;
#X connect 15 0 17 0;
#X connect 16 0 15 0;
#X connect 16 1 14 0;
#X connect 19 0 20 0;
#X connect 19 0 22 0;
#X connect 20 0 21 0;
#X connect 20 1 21 1;
