#N canvas 381 163 1080 949 10;
#X declare -path rj;
#X declare -path puma;
#X declare -path puma;
#X declare -path mikrokosmos;
#X declare -path puma;
#X declare -path puma;
#X declare -path puma;
#X declare -path puma;
#X declare -path puma;
#X declare -path puma;
#X declare -path puma;
#X declare -path puma;
#X declare -path puma;
#X floatatom 19 73 5 60 240 2 BPM - bpm;
#X obj 16 4 loadbang;
#X obj 17 34 f 120;
#X obj 391 6 Kseq;
#X obj 78 4 declare -path rj;
#X obj 485 7 monome;
#X floatatom 127 25 5 0 0 0 - - -;
#X obj 643 53 monomelogic;
#X msg 76 47 60;
#X msg 107 49 240;
#X obj 668 202 demux~;
#X obj 184 4 declare -path mikrokosmos;
#N canvas 402 328 1462 999 samplebank 0;
#X obj 12 443 dac~;
#X msg 523 365 help;
#X msg 573 339 freq 0.8 \, mod 1.3;
#X obj 573 319 loadbang;
#X obj 389 358 e_chorus mychorus;
#X obj 390 407 dac~;
#X obj 19 339 e_freqshift \$0-NAME;
#X floatatom 126 302 5 0 0 0 - - -;
#X obj 17 12 Ksampler 0;
#X obj 190 231 r sampler-0;
#X floatatom 190 256 5 0 0 0 - - -;
#X obj 339 15;
#X obj 201 293 * 100;
#X connect 1 0 4 1;
#X connect 2 0 4 1;
#X connect 3 0 2 0;
#X connect 4 0 5 0;
#X connect 4 1 5 1;
#X connect 6 0 0 0;
#X connect 7 0 6 1;
#X connect 8 0 6 0;
#X connect 9 0 10 0;
#X connect 9 0 8 0;
#X connect 10 0 12 0;
#X connect 11 0 4 0;
#X connect 12 0 7 0;
#X restore 817 96 pd samplebank;
#X obj -275 141 adc~ 1;
#X text -267 6 If monome does not work lsof -i -P |grep 21339;
#X obj -132 429 Ksamplerecorder 8 2;
#X obj -264 430 Ksamplerecorder 8 1;
#X obj 132 429 Ksamplerecorder 8 4;
#X obj 3 428 Ksamplerecorder 8 3;
#X obj 263 428 Ksamplerecorder 8 5;
#X obj 395 427 Ksamplerecorder 8 6;
#X obj 532 426 Ksamplerecorder 8 7;
#X obj 659 427 Ksamplerecorder 8 8;
#X obj -126 461 KsampleCutter 2;
#X obj 263 139 adc~ 2;
#X obj -264 459 KsampleCutter 1;
#X obj 3 461 KsampleCutter 3;
#X obj -243 503 Keffects 1;
#X obj 8 790 dac~;
#X obj -125 684 *~ 5;
#X obj -115 509 Keffects 2;
#X obj 10 511 Keffects 3;
#X obj 134 462 KsampleCutter 4;
#X obj 141 512 Keffects 4;
#X obj 285 696 *~ 5;
#X obj 263 465 KsampleCutter 5;
#X obj 401 466 KsampleCutter 6;
#X obj 530 467 KsampleCutter 7;
#X obj 661 468 KsampleCutter 8;
#X obj 668 518 Keffects 8;
#X obj 537 517 Keffects 7;
#X obj 412 515 Keffects 6;
#X obj 284 509 Keffects 5;
#X msg 143 48 120;
#X obj -4 274 KsamplerecorderRR;
#X obj 498 694 Krec 8 1;
#X connect 1 0 2 0;
#X connect 2 0 0 0;
#X connect 8 0 0 0;
#X connect 9 0 0 0;
#X connect 13 0 16 0;
#X connect 13 0 15 0;
#X connect 13 0 18 0;
#X connect 13 0 17 0;
#X connect 15 0 23 0;
#X connect 15 1 23 1;
#X connect 16 0 25 0;
#X connect 16 1 25 1;
#X connect 17 0 32 0;
#X connect 18 0 26 0;
#X connect 18 1 26 1;
#X connect 19 0 35 0;
#X connect 19 1 35 1;
#X connect 20 0 36 0;
#X connect 20 1 36 1;
#X connect 21 0 37 0;
#X connect 21 1 37 1;
#X connect 22 0 38 0;
#X connect 22 1 38 1;
#X connect 23 4 30 0;
#X connect 24 0 19 0;
#X connect 24 0 20 0;
#X connect 24 0 21 0;
#X connect 24 0 22 0;
#X connect 24 0 45 0;
#X connect 25 4 27 0;
#X connect 26 4 31 0;
#X connect 27 0 29 0;
#X connect 29 0 28 0;
#X connect 30 0 29 0;
#X connect 31 0 29 0;
#X connect 32 4 33 0;
#X connect 33 0 29 0;
#X connect 34 0 28 0;
#X connect 35 4 42 0;
#X connect 36 4 41 0;
#X connect 37 4 40 0;
#X connect 38 4 39 0;
#X connect 39 0 34 0;
#X connect 40 0 34 0;
#X connect 41 0 34 0;
#X connect 42 0 34 0;
#X connect 43 0 0 0;
