#N canvas 29 22 1080 949 10;
#X declare -path rj;
#X declare -path puma;
#X declare -path puma;
#X declare -path mikrokosmos;
#X declare -path puma;
#X declare -path puma;
#X declare -path puma;
#X declare -path puma;
#X declare -path puma;
#X declare -path puma;
#X declare -path puma;
#X declare -path puma;
#X declare -path puma;
#X declare -path puma;
#X declare -path puma;
#X declare -path puma;
#X declare -path puma;
#X declare -path puma;
#X declare -path puma;
#X declare -path puma;
#X floatatom 19 73 5 60 240 2 BPM - bpm;
#X obj 16 4 loadbang;
#X obj 17 34 f 120;
#X obj 391 6 Kseq;
#X obj 78 4 declare -path rj;
#X obj 485 7 monome;
#X floatatom 127 25 5 0 0 0 - - -;
#X obj 643 53 monomelogic;
#X msg 76 47 60;
#X msg 107 49 240;
#X obj 668 202 demux~;
#X obj 184 4 declare -path mikrokosmos;
#N canvas 402 328 1462 999 samplebank 0;
#X obj 12 443 dac~;
#X msg 523 365 help;
#X msg 573 339 freq 0.8 \, mod 1.3;
#X obj 573 319 loadbang;
#X obj 389 358 e_chorus mychorus;
#X obj 390 407 dac~;
#X obj 19 339 e_freqshift \$0-NAME;
#X floatatom 126 302 5 0 0 0 - - -;
#X obj 17 12 Ksampler 0;
#X obj 190 231 r sampler-0;
#X floatatom 190 256 5 0 0 0 - - -;
#X obj 339 15;
#X obj 201 293 * 100;
#X connect 1 0 4 1;
#X connect 2 0 4 1;
#X connect 3 0 2 0;
#X connect 4 0 5 0;
#X connect 4 1 5 1;
#X connect 6 0 0 0;
#X connect 7 0 6 1;
#X connect 8 0 6 0;
#X connect 9 0 10 0;
#X connect 9 0 8 0;
#X connect 10 0 12 0;
#X connect 11 0 4 0;
#X connect 12 0 7 0;
#X restore 817 96 pd samplebank;
#X obj -275 141 adc~ 1;
#X text -267 6 If monome does not work lsof -i -P |grep 21339;
#X obj 263 139 adc~ 2;
#X obj 8 790 dac~;
#X obj -125 684 *~ 5;
#X obj 285 696 *~ 5;
#X msg 143 48 120;
#X obj 385 814;
#X obj -250 465 Kcut 1 2;
#X obj -132 424 Krec 8 2 24;
#X obj -131 469 Kcut 2 3;
#X obj 61 150 ctlin;
#X floatatom 69 182 5 0 0 0 - - -;
#X obj 3 461 Kcut 3 4;
#X obj 134 462 Kcut 4 5;
#X obj 263 465 Kcut 5 6;
#X obj 530 467 Kcut 7 9;
#X obj 401 466 Kcut 6 8;
#X obj 661 468 Kcut 8 12;
#X obj -130 524 Keffects 2;
#X obj -254 422 Krec 8 1 23;
#X obj 3 428 Krec 8 3 25;
#X obj 132 429 Krec 8 4 26;
#X obj 263 428 Krec 8 5 27;
#X obj 395 427 Krec 8 6 28;
#X obj 532 426 Krec 8 7 29;
#X obj 659 427 Krec 8 8 30;
#X obj -238 520 Keffects 1;
#X obj 10 511 Keffects 3;
#X obj 141 512 Keffects 4;
#X obj 668 518 Keffects 8;
#X obj 537 517 Keffects 7;
#X obj 412 515 Keffects 6;
#X obj 284 509 Keffects 5;
#X connect 1 0 2 0;
#X connect 2 0 0 0;
#X connect 8 0 0 0;
#X connect 9 0 0 0;
#X connect 13 0 22 0;
#X connect 13 0 33 0;
#X connect 13 0 34 0;
#X connect 13 0 35 0;
#X connect 15 0 36 0;
#X connect 15 0 37 0;
#X connect 15 0 38 0;
#X connect 15 0 39 0;
#X connect 17 0 16 0;
#X connect 18 0 16 0;
#X connect 19 0 0 0;
#X connect 21 0 40 0;
#X connect 22 0 23 0;
#X connect 22 1 23 1;
#X connect 23 0 32 0;
#X connect 24 1 25 0;
#X connect 26 0 41 0;
#X connect 27 0 42 0;
#X connect 28 0 46 0;
#X connect 30 0 45 0;
#X connect 32 0 17 0;
#X connect 33 0 21 0;
#X connect 33 1 21 1;
#X connect 34 0 26 0;
#X connect 34 1 26 1;
#X connect 35 0 27 0;
#X connect 35 1 27 1;
#X connect 36 0 28 0;
#X connect 36 1 28 1;
#X connect 37 0 30 0;
#X connect 37 1 30 1;
#X connect 38 0 29 0;
#X connect 38 1 29 1;
#X connect 39 0 31 0;
#X connect 39 1 31 1;
#X connect 40 0 17 0;
#X connect 41 0 17 0;
#X connect 42 0 17 0;
#X connect 43 0 18 0;
#X connect 44 0 18 0;
#X connect 45 0 18 0;
#X connect 46 0 18 0;
