#N canvas 410 37 1270 970 10;
#X declare -path puma;
#X obj -181 419 s_playtable;
#X floatatom -144 51 8 0 0 1 duration_in_samples - -;
#X floatatom -171 70 8 0 0 1 duration_in_ms - -;
#X symbolatom -198 91 12 0 0 1 table_name - -;
#X obj -198 8 unpack s f f f;
#X floatatom -117 31 6 0 0 1 samplerate - -;
#X obj -198 -19 inlet;
#X text -159 -18 u_record info;
#X msg -91 283 sr \$1;
#X msg -181 338 \$1 \$2 \$3 \$4 \$5;
#X obj -118 449 bng 15 250 50 0 empty empty empty 17 7 0 10 -262144
-1 -1;
#X obj -180 584 outlet~;
#X msg 153 124 \$2 \$1;
#X obj 140 -25 f \$1;
#X obj 140 -5 - 1;
#X obj 153 56 pack f f;
#X obj 183 -25 f 8;
#X obj 140 15 * 2;
#X obj 140 36 + 1;
#X msg 152 77 coords \$1 0 1 \$2;
#X obj 153 102 puma.press.switch 1 0 1 8;
#X obj 17 -18 r monome.press;
#X obj 72 -112 declare -path puma;
#X obj 437 39 gate 2;
#X obj 435 -8 hradio 15 1 0 2 empty empty empty 0 -8 0 10 -262144 -1
-1 0;
#X obj 402 67 unpack f f;
#X floatatom 373 110 5 0 0 0 - - -;
#X obj 437 16 + 1;
#X obj 548 85 unpack f f;
#X obj 487 60 route 0;
#X obj 490 112 f 0;
#X floatatom 433 106 5 0 0 0 - - -;
#X obj 140 -53 t b b;
#X obj 141 -76 loadbang;
#X obj 493 84 bng 15 250 50 0 empty empty empty 17 7 0 10 -262144 -1
-1;
#X floatatom 622 104 5 0 0 0 - - -;
#X obj 605 154 - 0;
#X floatatom 605 195 5 0 0 0 - - -;
#X obj 656 220 < 0;
#X obj -181 395 spigot;
#X obj -131 396 tgl 15 0 empty empty empty 17 7 0 10 -262144 -1 -1
1 1;
#X obj 746 -20 inlet;
#X text 783 -20 beats;
#X floatatom 714 44 5 0 0 0 - - -;
#X obj 710 9 mod 8;
#X floatatom 964 85 5 0 0 0 - - -;
#X text 882 57 gridlength;
#X text 873 88 roundto;
#X obj 866 114 r mspb;
#X obj 845 138 * 50;
#X obj 843 60 div 8;
#X obj 843 86 * 8;
#X floatatom 920 136 5 0 0 0 - - -;
#X floatatom 921 196 5 0 0 0 - - -;
#X obj 557 257 * 1;
#X obj 844 163 / 8;
#X text 873 136 length;
#X text 870 162 gridlength;
#X obj 517 254 * 1;
#X obj 656 249 select 1;
#X obj 655 316 f -1;
#X floatatom 546 407 5 0 0 0 - - -;
#X floatatom 593 408 5 0 0 0 - - -;
#X floatatom 640 407 5 0 0 0 - - -;
#X obj 698 315 f 1;
#X obj 698 277 bng 15 250 50 0 empty empty empty 17 7 0 10 -262144
-1 -1;
#X obj 658 276 bng 15 250 50 0 empty empty empty 17 7 0 10 -262144
-1 -1;
#X obj 562 215 abs;
#X obj 488 401 bng 15 250 50 0 empty empty empty 17 7 0 10 -262144
-1 -1;
#X obj -181 542 *~ 0.5;
#X obj -2 492 ctlin \$2;
#X text 273 -155 midicontrol-volume;
#X text 172 -155 KCut sliceindex;
#X obj -2 521 / 127;
#X obj 744 654 s monome.led;
#X obj 740 604 puma.led.slider 0 0 0 0;
#X msg 886 552 redraw;
#X msg 942 553 clear;
#X obj 736 540 pack f f f f;
#X obj 756 498 f 3;
#X obj 782 500 f 1;
#X obj 817 284 r masterclock;
#X obj 816 391 + 1;
#X obj 818 364 float;
#X obj 816 312 bng 15 250 50 0 empty empty empty 17 7 0 10 -262144
-1 -1;
#X obj 815 420 select 8;
#X obj 906 375 t b f;
#X msg 740 568 coords \$1 \$2 \$3 \$4;
#X obj 234 -89 bng 15 250 50 0 empty empty empty 17 7 0 10 -262144
-1 -1;
#X obj 707 487 bng 15 250 50 0 empty empty empty 17 7 0 10 -262144
-1 -1;
#X msg -87 393 stop;
#X obj -39 336 select 1;
#X obj -39 308 r armstat-\$1;
#X msg 8 366 1;
#X msg -39 367 0;
#X obj 815 338 spigot;
#X obj -102 419 t b f;
#X obj 283 319 r recstop-\$1;
#X obj -80 592 print dadde;
#X obj 481 522 pack s 1 f f f;
#X obj 897 344 * 1;
#X obj 580 124 t b f;
#X obj 864 481 / 1;
#X obj 838 710 print dsf;
#X obj 857 513 + 1;
#X msg 854 388 0;
#X connect 0 0 69 0;
#X connect 0 1 10 0;
#X connect 4 0 3 0;
#X connect 4 0 99 0;
#X connect 4 1 2 0;
#X connect 4 2 1 0;
#X connect 4 3 5 0;
#X connect 4 3 8 0;
#X connect 6 0 4 0;
#X connect 8 0 0 1;
#X connect 9 0 39 0;
#X connect 9 0 98 0;
#X connect 10 0 39 0;
#X connect 12 0 23 1;
#X connect 13 0 14 0;
#X connect 14 0 17 0;
#X connect 15 0 19 0;
#X connect 16 0 15 1;
#X connect 17 0 18 0;
#X connect 18 0 15 0;
#X connect 18 0 78 0;
#X connect 19 0 20 0;
#X connect 20 0 12 0;
#X connect 21 0 20 0;
#X connect 23 0 25 0;
#X connect 23 1 29 0;
#X connect 24 0 27 0;
#X connect 25 0 24 0;
#X connect 25 0 26 0;
#X connect 25 1 31 0;
#X connect 27 0 23 0;
#X connect 28 0 24 0;
#X connect 28 1 35 0;
#X connect 29 0 34 0;
#X connect 29 1 28 0;
#X connect 30 0 24 0;
#X connect 31 0 36 1;
#X connect 31 0 58 0;
#X connect 31 0 78 1;
#X connect 32 0 13 0;
#X connect 32 0 30 0;
#X connect 32 1 16 0;
#X connect 33 0 32 0;
#X connect 34 0 30 0;
#X connect 35 0 101 0;
#X connect 36 0 37 0;
#X connect 37 0 38 0;
#X connect 37 0 67 0;
#X connect 38 0 59 0;
#X connect 39 0 0 0;
#X connect 40 0 39 1;
#X connect 40 0 96 0;
#X connect 41 0 44 0;
#X connect 41 0 50 0;
#X connect 44 0 43 0;
#X connect 48 0 49 1;
#X connect 49 0 52 0;
#X connect 49 0 55 0;
#X connect 50 0 45 0;
#X connect 50 0 51 0;
#X connect 50 0 100 1;
#X connect 50 0 102 1;
#X connect 51 0 49 0;
#X connect 54 0 63 0;
#X connect 55 0 53 0;
#X connect 55 0 54 1;
#X connect 55 0 58 1;
#X connect 58 0 62 0;
#X connect 59 0 66 0;
#X connect 59 1 65 0;
#X connect 60 0 61 0;
#X connect 61 0 99 2;
#X connect 62 0 99 3;
#X connect 63 0 99 4;
#X connect 64 0 61 0;
#X connect 65 0 64 0;
#X connect 65 0 79 0;
#X connect 66 0 60 0;
#X connect 66 0 80 0;
#X connect 67 0 54 0;
#X connect 67 0 78 3;
#X connect 67 0 100 0;
#X connect 68 0 99 0;
#X connect 69 0 11 0;
#X connect 70 0 73 0;
#X connect 73 0 69 1;
#X connect 75 0 74 0;
#X connect 76 0 75 1;
#X connect 77 0 75 1;
#X connect 78 0 87 0;
#X connect 79 0 78 2;
#X connect 80 0 78 2;
#X connect 81 0 84 0;
#X connect 82 0 83 1;
#X connect 82 0 85 0;
#X connect 83 0 82 0;
#X connect 83 0 102 0;
#X connect 84 0 95 0;
#X connect 85 0 105 0;
#X connect 86 0 105 0;
#X connect 86 0 78 0;
#X connect 86 1 85 1;
#X connect 87 0 75 0;
#X connect 87 0 103 0;
#X connect 88 0 32 0;
#X connect 89 0 78 0;
#X connect 90 0 0 1;
#X connect 91 0 90 0;
#X connect 91 0 94 0;
#X connect 91 1 93 0;
#X connect 92 0 91 0;
#X connect 93 0 40 0;
#X connect 94 0 40 0;
#X connect 95 0 83 0;
#X connect 96 0 77 0;
#X connect 96 1 95 1;
#X connect 99 0 9 0;
#X connect 100 0 86 0;
#X connect 101 0 68 0;
#X connect 101 1 36 0;
#X connect 102 0 104 0;
#X connect 104 0 75 0;
#X connect 105 0 83 1;
