#N canvas 396 119 1263 873 10;
#X declare -path puma;
#X obj -181 419 s_playtable;
#X floatatom -144 51 8 0 0 1 duration_in_samples - -;
#X floatatom -171 70 8 0 0 1 duration_in_ms - -;
#X symbolatom -198 91 12 0 0 1 table_name - -;
#X obj -198 8 unpack s f f f;
#X floatatom -117 31 6 0 0 1 samplerate - -;
#X obj -198 -19 inlet;
#X text -159 -18 u_record info;
#X msg -91 283 sr \$1;
#X obj 481 522 pack s 1 1 0 1000;
#X msg -181 374 \$1 \$2 \$3 \$4 \$5;
#X obj -75 460 bng 15 250 50 0 empty empty empty 17 7 0 10 -262144
-1 -1;
#X obj -180 584 outlet~;
#X obj -123 517 dac~;
#X msg 153 124 \$2 \$1;
#X obj 140 -25 f \$1;
#X obj 140 -5 - 1;
#X obj 153 56 pack f f;
#X obj 183 -25 f 8;
#X obj 140 15 * 2;
#X obj 140 36 + 1;
#X msg 152 77 coords \$1 0 1 \$2;
#X obj 153 102 puma.press.switch 1 0 1 8;
#X obj 17 -18 r monome.press;
#X obj 72 -112 declare -path puma;
#X obj 168 437 s monome.led;
#X obj 437 39 gate 2;
#X obj 435 -8 hradio 15 1 0 2 empty empty empty 0 -8 0 10 -262144 -1
-1 0;
#X obj 402 67 unpack f f;
#X floatatom 373 110 5 0 0 0 - - -;
#X obj 437 16 + 1;
#X obj 548 85 unpack f f;
#X obj 487 60 route 0;
#X obj 490 112 f 0;
#X floatatom 433 106 5 0 0 0 - - -;
#X obj 140 -53 t b b;
#X obj 141 -76 loadbang;
#X obj 493 84 bng 15 250 50 0 empty empty empty 17 7 0 10 -262144 -1
-1;
#X floatatom 604 113 5 0 0 0 - - -;
#X obj 605 154 - 0;
#X floatatom 606 191 5 0 0 0 - - -;
#X obj 656 220 < 0;
#X obj -181 395 spigot;
#X obj -135 396 tgl 15 0 empty empty empty 17 7 0 10 -262144 -1 -1
1 1;
#X obj 746 -20 inlet;
#X text 783 -20 beats;
#X floatatom 714 44 5 0 0 0 - - -;
#X obj 710 9 mod 8;
#X floatatom 949 59 5 0 0 0 - - -;
#X text 882 57 gridlength;
#X text 873 88 roundto;
#X obj 866 114 r mspb;
#X obj 845 138 * 50;
#X obj 843 60 div 8;
#X obj 843 86 * 8;
#X floatatom 920 136 5 0 0 0 - - -;
#X floatatom 921 196 5 0 0 0 - - -;
#X obj 557 257 * 1;
#X obj 844 163 / 8;
#X text 873 136 length;
#X text 870 162 gridlength;
#X obj 517 254 * 1;
#X obj -51 525 print wut;
#X obj 656 249 select 1;
#X obj 655 316 f -1;
#X floatatom 804 518 5 0 0 0 - - -;
#X floatatom 546 407 5 0 0 0 - - -;
#X floatatom 593 408 5 0 0 0 - - -;
#X floatatom 640 407 5 0 0 0 - - -;
#X obj 698 315 f 1;
#X obj 697 275 bng 15 250 50 0 empty empty empty 17 7 0 10 -262144
-1 -1;
#X obj 658 276 bng 15 250 50 0 empty empty empty 17 7 0 10 -262144
-1 -1;
#X obj 558 223 abs;
#X obj 503 408 bng 15 250 50 0 empty empty empty 17 7 0 10 -262144
-1 -1;
#X connect 0 0 12 0;
#X connect 0 0 13 0;
#X connect 0 1 11 0;
#X connect 4 0 3 0;
#X connect 4 0 9 0;
#X connect 4 1 2 0;
#X connect 4 2 1 0;
#X connect 4 3 5 0;
#X connect 4 3 8 0;
#X connect 6 0 4 0;
#X connect 8 0 0 1;
#X connect 9 0 10 0;
#X connect 10 0 42 0;
#X connect 10 0 62 0;
#X connect 11 0 0 0;
#X connect 14 0 26 1;
#X connect 15 0 16 0;
#X connect 16 0 19 0;
#X connect 17 0 21 0;
#X connect 18 0 17 1;
#X connect 19 0 20 0;
#X connect 20 0 17 0;
#X connect 21 0 22 0;
#X connect 22 0 14 0;
#X connect 23 0 22 0;
#X connect 26 0 28 0;
#X connect 26 1 32 0;
#X connect 27 0 30 0;
#X connect 28 0 27 0;
#X connect 28 0 29 0;
#X connect 28 1 34 0;
#X connect 30 0 26 0;
#X connect 31 0 27 0;
#X connect 31 1 38 0;
#X connect 32 0 37 0;
#X connect 32 1 31 0;
#X connect 33 0 27 0;
#X connect 34 0 39 1;
#X connect 34 0 61 0;
#X connect 35 0 15 0;
#X connect 35 0 33 0;
#X connect 35 1 18 0;
#X connect 36 0 35 0;
#X connect 37 0 33 0;
#X connect 38 0 39 0;
#X connect 39 0 40 0;
#X connect 40 0 41 0;
#X connect 40 0 72 0;
#X connect 41 0 63 0;
#X connect 42 0 0 0;
#X connect 43 0 42 1;
#X connect 44 0 47 0;
#X connect 44 0 53 0;
#X connect 47 0 46 0;
#X connect 51 0 52 1;
#X connect 52 0 55 0;
#X connect 52 0 58 0;
#X connect 53 0 48 0;
#X connect 53 0 54 0;
#X connect 54 0 52 0;
#X connect 57 0 68 0;
#X connect 58 0 56 0;
#X connect 58 0 57 1;
#X connect 58 0 61 1;
#X connect 61 0 67 0;
#X connect 63 0 71 0;
#X connect 63 1 70 0;
#X connect 64 0 66 0;
#X connect 66 0 9 2;
#X connect 67 0 9 3;
#X connect 68 0 9 4;
#X connect 68 0 73 0;
#X connect 69 0 66 0;
#X connect 70 0 69 0;
#X connect 71 0 64 0;
#X connect 72 0 57 0;
#X connect 73 0 9 0;
