#N canvas 672 122 880 742 10;
#X obj 145 97 inlet~;
#X obj 124 -174 multitouch;
#X msg 162 -234 bang;
#X msg 195 -209 info;
#X text 232 -209 output info on right outlet;
#X obj 89 -228 tgl 15 0 empty empty empty 0 -6 0 10 -204786 -1 -1 0
1;
#X text 199 -236 output sensor values;
#X floatatom 48 -91 5 0 0 0 - - -;
#X floatatom 1 -91 5 0 0 0 - - -;
#X obj 89 -209 metro 75;
#X floatatom 185 -92 5 0 0 0 - - -;
#X floatatom 138 -92 5 0 0 0 - - -;
#X obj 23 -219 tgl 15 0 empty empty empty 17 7 0 10 -262144 -1 -1 0
1;
#X obj -11 -120 getfingerxy 0 20 130;
#X obj 121 376 outlet~;
#X obj 126 -122 getfingerxy 1 20 130;
#N canvas 0 22 1154 490 repeater 0;
#X floatatom 405 90 5 0 1000 0 - - -;
#X obj 405 70 bng 15 250 50 0 empty empty empty 17 7 0 10 -262144 -1
-1;
#X text 418 122 feedback level. If 1 the chunk gets repeated endlessly.
;
#X msg 493 183 dry 1;
#X msg 540 191 dry 0.5;
#X msg 602 191 dry 0;
#X text 493 163 dry signal (1) - wet signal (0);
#X msg 574 271 num 4;
#X msg 527 271 num 0;
#X msg 621 271 num 16;
#X msg 493 142 feedback 0.9;
#X text 521 249 number of repetitions (default (0) is endless);
#X obj 283 316 e_repeater repea;
#X obj 432 65 hsl 128 15 0 1000 0 0 empty empty empty -2 -8 0 10 -262144
-1 -1 0 1;
#X text 448 89 length of the chunk repeated in ms triggers new recording.
Max 1000!;
#X obj 428 34 * 1000;
#X obj 429 5 spigot;
#X obj 380 -43 tgl 15 0 empty empty empty 17 7 0 10 -262144 -1 -1 0
1;
#X obj 283 243 *~;
#X msg 411 142 feedback \$1;
#X obj 479 4 spigot;
#X obj 284 -74 inlet~;
#X obj 433 -74 inlet;
#X obj 492 -74 inlet;
#X obj 339 -44 tgl 15 0 empty empty empty 17 7 0 10 -262144 -1 -1 0
1;
#X obj 338 -73 inlet;
#X obj 381 -75 inlet;
#X obj 283 366 outlet~;
#X connect 0 0 12 1;
#X connect 1 0 0 0;
#X connect 3 0 12 1;
#X connect 4 0 12 1;
#X connect 5 0 12 1;
#X connect 7 0 12 1;
#X connect 8 0 12 1;
#X connect 9 0 12 1;
#X connect 10 0 12 1;
#X connect 12 0 27 0;
#X connect 13 0 0 0;
#X connect 15 0 13 0;
#X connect 16 0 15 0;
#X connect 17 0 16 1;
#X connect 17 0 20 1;
#X connect 18 0 12 0;
#X connect 19 0 12 1;
#X connect 20 0 19 0;
#X connect 21 0 18 0;
#X connect 22 0 16 0;
#X connect 23 0 20 0;
#X connect 24 0 18 1;
#X connect 25 0 24 0;
#X connect 26 0 17 0;
#X restore 241 196 pd repeater;
#N canvas 385 159 836 640 forcepitch 1;
#X obj 116 169 *~ 0.05;
#X obj 115 193 e_forcepitch;
#X obj 154 139 * 128;
#X obj 196 138 * 256;
#X obj 118 106 *~;
#X obj 131 46 tgl 15 0 empty empty empty 17 7 0 10 -262144 -1 -1 0
1;
#X obj 78 -168 inlet~;
#X obj 114 229 outlet~;
#X obj 626 -138 inlet;
#X text 664 -139 monomebuttonstate;
#X obj 599 -91 unpack;
#X obj 593 297 outlet;
#X obj 630 26 tgl 15 0 empty empty empty 17 7 0 10 -262144 -1 -1 0
1;
#X obj 606 57 pack;
#X obj 631 -2 select 1;
#X obj 554 -46 tgl 15 0 empty empty empty 17 7 0 10 -262144 -1 -1 0
1;
#X obj 652 -92 route 4;
#X obj 191 -173 inlet;
#X obj 198 -136 spigot;
#X obj 183 -97 route 0 1 2 3 4 5 6 7;
#X obj 395 -48 unpack f f f f f f f;
#X obj 179 -46 unpack f f f f f f f f f f f f;
#X connect 0 0 1 0;
#X connect 1 0 7 0;
#X connect 2 0 0 1;
#X connect 3 0 1 1;
#X connect 4 0 0 0;
#X connect 5 0 4 1;
#X connect 6 0 4 0;
#X connect 8 0 10 0;
#X connect 8 0 16 0;
#X connect 10 0 13 0;
#X connect 12 0 13 1;
#X connect 13 0 11 0;
#X connect 14 0 12 0;
#X connect 14 0 5 0;
#X connect 15 0 18 1;
#X connect 16 0 15 0;
#X connect 16 0 14 0;
#X connect 17 0 18 0;
#X connect 18 0 19 0;
#X connect 19 0 21 0;
#X connect 19 1 20 0;
#X restore 68 194 pd forcepitch;
#N canvas 730 22 912 814 reverb 0;
#X msg 213 238 dry \$1;
#X msg 326 238 hall \$1;
#X msg 387 238 freq \$1;
#X msg 446 237 damp \$1;
#X obj 92 328 e_reverb rev1;
#X msg 269 235 amp \$1;
#X obj 445 205 * 100;
#X obj 395 205 * 20000;
#X obj 326 204 * 100;
#X obj 270 208 * 100;
#X obj 91 76 inlet~;
#X obj 92 384 outlet~;
#X obj 751 60 inlet;
#X text 789 59 monomebuttonstate;
#X obj 724 107 unpack;
#X obj 741 367 outlet;
#X obj 755 224 tgl 15 0 empty empty empty 17 7 0 10 -262144 -1 -1 0
1;
#X obj 731 255 pack;
#X obj 756 196 select 1;
#X obj 679 152 tgl 15 0 empty empty empty 17 7 0 10 -262144 -1 -1 0
1;
#X obj 88 276 *~;
#X obj 105 239 tgl 15 0 empty empty empty 17 7 0 10 -262144 -1 -1 0
1;
#X obj 168 8 inlet;
#X obj 175 45 spigot;
#X obj 777 106 route 5;
#X obj 160 84 route 0 1 2 3 4 5 6 7;
#X obj 372 133 unpack f f f f f f f;
#X obj 156 135 unpack f f f f f f f f f f f f;
#X connect 0 0 4 1;
#X connect 1 0 4 1;
#X connect 2 0 4 1;
#X connect 3 0 4 1;
#X connect 4 0 11 0;
#X connect 5 0 4 1;
#X connect 6 0 3 0;
#X connect 7 0 2 0;
#X connect 8 0 1 0;
#X connect 9 0 5 0;
#X connect 10 0 20 0;
#X connect 12 0 14 0;
#X connect 12 0 24 0;
#X connect 14 0 17 0;
#X connect 16 0 17 1;
#X connect 17 0 15 0;
#X connect 18 0 16 0;
#X connect 18 0 21 0;
#X connect 19 0 23 1;
#X connect 20 0 4 0;
#X connect 21 0 20 1;
#X connect 22 0 23 0;
#X connect 23 0 25 0;
#X connect 24 0 19 0;
#X connect 24 0 18 0;
#X connect 25 0 27 0;
#X connect 25 1 26 0;
#X connect 26 4 8 0;
#X connect 26 5 7 0;
#X connect 27 4 0 0;
#X connect 27 5 9 0;
#X restore -48 193 pd reverb;
#X obj 436 -105 route 0 1 2 3 4;
#X obj 441 -201 tgl 15 0 empty empty empty 17 7 0 10 -262144 -1 -1
0 1;
#X msg 473 -194 2;
#N canvas 1069 22 611 342 volume 0;
#X obj 88 47 inlet~;
#X obj 215 46 inlet;
#X obj 289 45 inlet;
#X text 330 45 mute/unmute;
#X obj 89 173 *~ 1;
#X obj 88 262 outlet~;
#X obj 421 6 inlet;
#X text 459 5 monomebuttonstate;
#X obj 214 119 spigot;
#X floatatom 224 151 5 0 0 0 - - -;
#X obj 439 301 outlet;
#X obj 439 151 tgl 15 0 empty empty empty 17 7 0 10 -262144 -1 -1 0
1;
#X obj 415 182 pack;
#X obj 440 123 select 1;
#X obj 363 139 tgl 15 0 empty empty empty 17 7 0 10 -262144 -1 -1 0
1;
#X obj 214 78 unpack f f f f f f f;
#X obj 408 61 unpack;
#X obj 469 58 route 6;
#X connect 0 0 4 0;
#X connect 1 0 15 0;
#X connect 4 0 5 0;
#X connect 6 0 16 0;
#X connect 6 0 17 0;
#X connect 8 0 9 0;
#X connect 8 0 4 1;
#X connect 11 0 12 1;
#X connect 12 0 10 0;
#X connect 13 0 11 0;
#X connect 14 0 8 1;
#X connect 15 5 8 0;
#X connect 16 0 12 0;
#X connect 17 0 14 0;
#X connect 17 0 13 0;
#X restore 121 331 pd volume;
#X obj 602 -130 puma.press.switch 1 0 1 8;
#X obj 601 -220 f \$1;
#X obj 601 -200 - 1;
#X obj 601 -240 loadbang;
#X obj 601 -180 * 2;
#X obj 509 -242 r monome.press;
#X msg 601 -155 coords \$1 0 1 8;
#X obj 219 404 puma.led.toggle 0 0 1 8;
#X obj 680 -240 bng 15 250 50 0 empty empty empty 17 7 0 10 -262144
-1 -1;
#X obj 221 447 s monome.led;
#X obj 451 -140 speedlim 100;
#X obj 440 -168 fingerpinger_NOT;
#X connect 0 0 17 0;
#X connect 0 0 16 0;
#X connect 0 0 18 0;
#X connect 1 0 13 0;
#X connect 1 0 15 0;
#X connect 2 0 1 0;
#X connect 3 0 1 0;
#X connect 5 0 9 0;
#X connect 9 0 1 0;
#X connect 12 0 13 1;
#X connect 12 0 15 1;
#X connect 13 0 8 0;
#X connect 13 0 16 3;
#X connect 13 1 7 0;
#X connect 13 1 16 4;
#X connect 15 0 11 0;
#X connect 15 1 10 0;
#X connect 16 0 22 0;
#X connect 17 0 22 0;
#X connect 17 1 30 0;
#X connect 18 0 22 0;
#X connect 18 1 30 0;
#X connect 20 0 34 0;
#X connect 21 0 34 0;
#X connect 22 0 14 0;
#X connect 22 1 30 0;
#X connect 23 0 22 3;
#X connect 23 0 18 2;
#X connect 23 0 17 2;
#X connect 24 0 25 0;
#X connect 25 0 27 0;
#X connect 26 0 24 0;
#X connect 26 0 21 0;
#X connect 27 0 29 0;
#X connect 28 0 23 0;
#X connect 29 0 23 0;
#X connect 29 0 30 0;
#X connect 30 0 32 0;
#X connect 31 0 24 0;
#X connect 33 0 19 0;
#X connect 34 0 33 0;
