#N canvas 614 88 880 742 10;
#X obj 145 97 inlet~;
#X obj 124 -174 multitouch;
#X msg 162 -234 bang;
#X msg 195 -209 info;
#X text 232 -209 output info on right outlet;
#X obj 89 -228 tgl 15 0 empty empty empty 0 -6 0 10 -204786 -1 -1 1
1;
#X text 199 -236 output sensor values;
#X floatatom 48 -91 5 0 0 0 - - -;
#X floatatom 1 -91 5 0 0 0 - - -;
#X obj 89 -209 metro 75;
#X floatatom 185 -92 5 0 0 0 - - -;
#X floatatom 138 -92 5 0 0 0 - - -;
#X obj 23 -219 tgl 15 0 empty empty empty 17 7 0 10 -262144 -1 -1 0
1;
#X obj -11 -120 getfingerxy 0 20 130;
#X obj 129 371 outlet~;
#X obj 126 -122 getfingerxy 1 20 130;
#N canvas 0 22 1154 490 repeater 1;
#X floatatom 405 90 5 0 1000 0 - - -;
#X obj 405 70 bng 15 250 50 0 empty empty empty 17 7 0 10 -262144 -1
-1;
#X text 418 122 feedback level. If 1 the chunk gets repeated endlessly.
;
#X msg 493 183 dry 1;
#X msg 540 191 dry 0.5;
#X msg 602 191 dry 0;
#X text 493 163 dry signal (1) - wet signal (0);
#X msg 574 271 num 4;
#X msg 527 271 num 0;
#X msg 621 271 num 16;
#X msg 493 142 feedback 0.9;
#X text 521 249 number of repetitions (default (0) is endless);
#X obj 283 316 e_repeater repea;
#X obj 432 65 hsl 128 15 0 1000 0 0 empty empty empty -2 -8 0 10 -262144
-1 -1 0 1;
#X text 448 89 length of the chunk repeated in ms triggers new recording.
Max 1000!;
#X obj 428 34 * 1000;
#X obj 429 5 spigot;
#X obj 380 -43 tgl 15 0 empty empty empty 17 7 0 10 -262144 -1 -1 0
1;
#X obj 283 243 *~;
#X msg 411 142 feedback \$1;
#X obj 479 4 spigot;
#X obj 284 -74 inlet~;
#X obj 433 -74 inlet;
#X obj 492 -74 inlet;
#X obj 339 -44 tgl 15 0 empty empty empty 17 7 0 10 -262144 -1 -1 0
1;
#X obj 338 -73 inlet;
#X obj 381 -75 inlet;
#X obj 283 366 outlet~;
#X connect 0 0 12 1;
#X connect 1 0 0 0;
#X connect 3 0 12 1;
#X connect 4 0 12 1;
#X connect 5 0 12 1;
#X connect 7 0 12 1;
#X connect 8 0 12 1;
#X connect 9 0 12 1;
#X connect 10 0 12 1;
#X connect 12 0 27 0;
#X connect 13 0 0 0;
#X connect 15 0 13 0;
#X connect 16 0 15 0;
#X connect 17 0 16 1;
#X connect 17 0 20 1;
#X connect 18 0 12 0;
#X connect 19 0 12 1;
#X connect 20 0 19 0;
#X connect 21 0 18 0;
#X connect 22 0 16 0;
#X connect 23 0 20 0;
#X connect 24 0 18 1;
#X connect 25 0 24 0;
#X connect 26 0 17 0;
#X restore 241 196 pd repeater;
#N canvas 0 22 450 300 forcepitch 0;
#X obj 116 169 *~ 0.05;
#X obj 115 193 e_forcepitch;
#X obj 154 139 * 128;
#X obj 196 138 * 256;
#X obj 152 107 spigot;
#X obj 200 107 spigot;
#X obj 157 46 tgl 15 0 empty empty empty 17 7 0 10 -262144 -1 -1 0
1;
#X obj 118 106 *~;
#X obj 131 46 tgl 15 0 empty empty empty 17 7 0 10 -262144 -1 -1 0
1;
#X obj 78 7 inlet~;
#X obj 227 7 inlet;
#X obj 286 7 inlet;
#X obj 132 8 inlet;
#X obj 175 6 inlet;
#X obj 114 229 outlet~;
#X connect 0 0 1 0;
#X connect 1 0 14 0;
#X connect 2 0 0 1;
#X connect 3 0 1 1;
#X connect 4 0 2 0;
#X connect 5 0 3 0;
#X connect 6 0 4 1;
#X connect 6 0 5 1;
#X connect 7 0 0 0;
#X connect 8 0 7 1;
#X connect 9 0 7 0;
#X connect 10 0 4 0;
#X connect 11 0 5 0;
#X connect 12 0 8 0;
#X connect 13 0 6 0;
#X restore 68 194 pd forcepitch;
#X connect 0 0 17 0;
#X connect 0 0 16 0;
#X connect 1 0 13 0;
#X connect 1 0 15 0;
#X connect 2 0 1 0;
#X connect 3 0 1 0;
#X connect 5 0 9 0;
#X connect 9 0 1 0;
#X connect 12 0 13 1;
#X connect 12 0 15 1;
#X connect 13 0 8 0;
#X connect 13 0 17 3;
#X connect 13 0 16 3;
#X connect 13 1 7 0;
#X connect 13 1 17 4;
#X connect 13 1 16 4;
#X connect 15 0 11 0;
#X connect 15 1 10 0;
#X connect 16 0 14 0;
#X connect 17 0 14 0;
