#N canvas 317 97 880 742 10;
#X obj 191 -114 inlet~;
#N canvas 391 505 1154 490 repeater 0;
#X floatatom 405 90 5 0 1000 0 - - -;
#X obj 397 61 bng 15 250 50 0 empty empty empty 17 7 0 10 -262144 -1
-1;
#X text 418 122 feedback level. If 1 the chunk gets repeated endlessly.
;
#X msg 540 191 dry 0.5;
#X msg 602 191 dry 0;
#X text 493 163 dry signal (1) - wet signal (0);
#X msg 574 271 num 4;
#X msg 621 271 num 16;
#X msg 493 142 feedback 0.9;
#X text 521 249 number of repetitions (default (0) is endless);
#X obj 283 316 e_repeater repea;
#X obj 421 60 hsl 128 15 0 1000 0 0 empty empty empty -2 -8 0 10 -262144
-1 -1 0 1;
#X text 448 89 length of the chunk repeated in ms triggers new recording.
Max 1000!;
#X obj 428 34 * 1000;
#X obj 429 5 spigot;
#X obj 283 243 *~;
#X msg 415 142 feedback \$1;
#X obj 479 4 spigot;
#X obj 284 -74 inlet~;
#X obj 283 366 outlet~;
#X obj 907 -8 inlet;
#X text 945 -9 monomebuttonstate;
#X obj 928 240 outlet;
#X obj 904 131 tgl 15 0 empty empty empty 17 7 0 10 -262144 -1 -1 0
1;
#X obj 905 103 select 1;
#X obj 916 67 tgl 15 0 empty empty empty 17 7 0 10 -262144 -1 -1 0
1;
#X obj 891 173 select 0;
#X obj 905 23 route 4;
#X msg 890 206 4 0;
#X msg 937 205 4 1;
#X obj 484 -26 / 127;
#X obj 430 -26 / 127;
#X obj 432 -62 ctlin 14;
#X obj 496 -61 ctlin 15;
#X obj 564 -60 ctlin 16;
#X obj 633 -60 ctlin 17;
#X obj 554 3 spigot;
#X obj 559 -27 / 127;
#X msg 486 193 dry \$1;
#X msg 527 271 num \$1;
#X obj 628 4 spigot;
#X obj 633 -26 / 16;
#X obj 695 -60 ctlin 33;
#X obj 681 -26 spigot;
#X connect 0 0 10 1;
#X connect 1 0 0 0;
#X connect 3 0 10 1;
#X connect 4 0 10 1;
#X connect 6 0 10 1;
#X connect 7 0 10 1;
#X connect 8 0 10 1;
#X connect 10 0 19 0;
#X connect 11 0 0 0;
#X connect 13 0 11 0;
#X connect 14 0 13 0;
#X connect 15 0 10 0;
#X connect 16 0 10 1;
#X connect 17 0 16 0;
#X connect 18 0 15 0;
#X connect 20 0 27 0;
#X connect 23 0 26 0;
#X connect 23 0 15 1;
#X connect 24 0 23 0;
#X connect 25 0 14 1;
#X connect 25 0 17 1;
#X connect 25 0 40 1;
#X connect 25 0 36 1;
#X connect 25 0 43 1;
#X connect 26 0 28 0;
#X connect 26 1 29 0;
#X connect 27 0 25 0;
#X connect 27 0 24 0;
#X connect 28 0 22 0;
#X connect 29 0 22 0;
#X connect 30 0 17 0;
#X connect 31 0 14 0;
#X connect 32 0 31 0;
#X connect 33 0 30 0;
#X connect 34 0 37 0;
#X connect 35 0 41 0;
#X connect 36 0 38 0;
#X connect 37 0 36 0;
#X connect 38 0 10 1;
#X connect 39 0 10 1;
#X connect 40 0 39 0;
#X connect 41 0 40 0;
#X connect 42 0 43 0;
#X connect 43 0 1 0;
#X restore 241 196 pd repeater;
#N canvas 797 410 836 640 forcepitch 0;
#X obj 118 196 *~ 0.05;
#X obj 117 224 e_forcepitch;
#X obj 226 112 * 256;
#X obj 118 106 *~;
#X obj 78 -168 inlet~;
#X obj 116 260 outlet~;
#X obj 483 -153 inlet;
#X text 521 -154 monomebuttonstate;
#X obj 504 95 outlet;
#X obj 480 -14 tgl 15 0 empty empty empty 17 7 0 10 -262144 -1 -1 0
1;
#X obj 481 -42 select 1;
#X obj 492 -78 tgl 15 0 empty empty empty 17 7 0 10 -262144 -1 -1 0
1;
#X obj 467 28 select 0;
#X obj 481 -122 route 6;
#X msg 466 61 6 0;
#X msg 513 60 6 1;
#X obj 157 61 ctlin 14;
#X obj 157 88 / 127;
#X obj 226 88 / 127;
#X obj 226 61 ctlin 15;
#X obj 157 155 spigot;
#X obj 222 154 spigot;
#X connect 0 0 1 0;
#X connect 1 0 5 0;
#X connect 2 0 21 0;
#X connect 3 0 0 0;
#X connect 4 0 3 0;
#X connect 6 0 13 0;
#X connect 9 0 12 0;
#X connect 9 0 3 1;
#X connect 10 0 9 0;
#X connect 11 0 21 1;
#X connect 11 0 20 1;
#X connect 12 0 14 0;
#X connect 12 1 15 0;
#X connect 13 0 11 0;
#X connect 13 0 10 0;
#X connect 14 0 8 0;
#X connect 15 0 8 0;
#X connect 16 0 17 0;
#X connect 17 0 20 0;
#X connect 18 0 2 0;
#X connect 19 0 18 0;
#X connect 20 0 0 1;
#X connect 21 0 1 1;
#X restore 68 194 pd forcepitch;
#N canvas 748 151 912 814 reverb 0;
#X msg 213 238 dry \$1;
#X msg 326 238 hall \$1;
#X msg 387 238 freq \$1;
#X msg 446 237 damp \$1;
#X obj 92 328 e_reverb rev1;
#X msg 269 235 amp \$1;
#X obj 445 205 * 100;
#X obj 386 204 * 20000;
#X obj 326 204 * 100;
#X obj 270 208 * 100;
#X obj 91 76 inlet~;
#X obj 92 384 outlet~;
#X obj 751 60 inlet;
#X text 789 59 monomebuttonstate;
#X obj 772 308 outlet;
#X obj 748 199 tgl 15 0 empty empty empty 17 7 0 10 -262144 -1 -1 0
1;
#X obj 749 171 select 1;
#X obj 760 135 tgl 15 0 empty empty empty 17 7 0 10 -262144 -1 -1 0
1;
#X obj 88 276 *~;
#X obj 749 91 route 5;
#X msg 734 274 5 0;
#X msg 781 273 5 1;
#X obj 735 241 select 0;
#X obj 209 78 ctlin 14;
#X obj 209 105 / 127;
#X obj 278 105 / 127;
#X obj 278 78 ctlin 15;
#X obj 341 107 / 127;
#X obj 410 107 / 127;
#X obj 472 107 / 127;
#X obj 341 80 ctlin 16;
#X obj 410 80 ctlin 17;
#X obj 472 80 ctlin 18;
#X obj 207 307 spigot;
#X connect 0 0 33 0;
#X connect 1 0 33 0;
#X connect 2 0 33 0;
#X connect 3 0 33 0;
#X connect 4 0 11 0;
#X connect 5 0 33 0;
#X connect 6 0 3 0;
#X connect 7 0 2 0;
#X connect 8 0 1 0;
#X connect 9 0 5 0;
#X connect 10 0 18 0;
#X connect 12 0 19 0;
#X connect 15 0 22 0;
#X connect 15 0 18 1;
#X connect 16 0 15 0;
#X connect 17 0 33 1;
#X connect 18 0 4 0;
#X connect 19 0 17 0;
#X connect 19 0 16 0;
#X connect 20 0 14 0;
#X connect 21 0 14 0;
#X connect 22 0 20 0;
#X connect 22 1 21 0;
#X connect 23 0 24 0;
#X connect 24 0 0 0;
#X connect 25 0 9 0;
#X connect 26 0 25 0;
#X connect 27 0 8 0;
#X connect 28 0 7 0;
#X connect 29 0 6 0;
#X connect 30 0 27 0;
#X connect 31 0 28 0;
#X connect 32 0 29 0;
#X connect 33 0 4 1;
#X restore -48 193 pd reverb;
#X obj 594 -146 f \$1;
#X obj 594 -126 - 1;
#X obj 594 -166 loadbang;
#X obj 594 -106 * 2;
#X obj 502 -168 r monome.press;
#X msg 594 -81 coords \$1 0 1 8;
#X obj 292 394 puma.led.toggle 0 0 1 8;
#X obj 673 -166 bng 15 250 50 0 empty empty empty 17 7 0 10 -262144
-1 -1;
#X obj 292 450 s monome.led;
#X obj 288 -176 ctlin;
#X floatatom 307 -145 5 0 0 0 - - -;
#X floatatom 280 -108 5 0 0 0 - - -;
#X floatatom 261 -132 5 0 0 0 - - -;
#X obj 591 49 print efects;
#X obj 607 -32 puma.press.switch 1 0 1 8;
#N canvas 632 298 582 369 chorus 0;
#X msg -117 108 mod \$1;
#X msg -183 107 freq \$1;
#X msg -115 150 freq 0.8 \, mod 1.3;
#X obj -115 130 loadbang;
#X obj -306 179 e_chorusr mychorus;
#X obj -315 10 inlet~;
#X obj 77 5 inlet;
#X text 115 4 monomebuttonstate;
#X obj 98 253 outlet;
#X obj 74 144 tgl 15 0 empty empty empty 17 7 0 10 -262144 -1 -1 0
1;
#X obj 86 80 tgl 15 0 empty empty empty 17 7 0 10 -262144 -1 -1 0 1
;
#X obj 75 36 route 3;
#X obj 75 116 select 3;
#X obj 61 186 select 0;
#X msg 60 219 3 0;
#X msg 107 218 3 1;
#X obj -183 85 spigot;
#X obj -117 85 spigot;
#X obj -183 61 / 127;
#X obj -183 38 + 20;
#X obj -117 59 / 127;
#X obj -117 36 + 50;
#X obj -181 -25 ctlin 14;
#X obj -112 -25 ctlin 15;
#X obj -304 141 *~;
#X obj -288 249 outlet~;
#X connect 0 0 4 1;
#X connect 1 0 4 1;
#X connect 2 0 4 1;
#X connect 3 0 2 0;
#X connect 4 0 25 0;
#X connect 5 0 24 0;
#X connect 6 0 11 0;
#X connect 9 0 13 0;
#X connect 9 0 24 1;
#X connect 10 0 17 1;
#X connect 10 0 16 1;
#X connect 11 0 10 0;
#X connect 11 0 12 0;
#X connect 12 0 9 0;
#X connect 13 0 14 0;
#X connect 13 1 15 0;
#X connect 14 0 8 0;
#X connect 15 0 8 0;
#X connect 16 0 1 0;
#X connect 17 0 0 0;
#X connect 18 0 16 0;
#X connect 19 0 18 0;
#X connect 20 0 17 0;
#X connect 21 0 20 0;
#X connect 22 0 19 0;
#X connect 23 0 21 0;
#X connect 24 0 4 0;
#X restore 356 197 pd chorus;
#X obj 122 429 outlet~;
#N canvas 632 298 582 369 dry 0;
#X obj -315 10 inlet~;
#X obj 77 5 inlet;
#X text 115 4 monomebuttonstate;
#X obj 98 253 outlet;
#X obj 74 144 tgl 15 0 empty empty empty 17 7 0 10 -262144 -1 -1 0
1;
#X obj 86 80 tgl 15 0 empty empty empty 17 7 0 10 -262144 -1 -1 0 1
;
#X obj 61 186 select 0;
#X obj -242 100 spigot;
#X obj -242 76 / 127;
#X obj -242 7 ctlin 14;
#X obj -307 168 *~;
#X obj -288 249 outlet~;
#X obj 75 36 route 7;
#X obj 75 116 select 7;
#X msg 60 219 7 0;
#X msg 107 218 7 1;
#X connect 0 0 10 0;
#X connect 1 0 12 0;
#X connect 4 0 6 0;
#X connect 4 0 10 1;
#X connect 4 0 8 0;
#X connect 5 0 7 1;
#X connect 6 0 14 0;
#X connect 6 1 15 0;
#X connect 7 0 10 1;
#X connect 8 0 7 0;
#X connect 9 0 8 0;
#X connect 10 0 11 0;
#X connect 12 0 5 0;
#X connect 12 0 13 0;
#X connect 13 0 4 0;
#X connect 14 0 3 0;
#X connect 15 0 3 0;
#X restore 454 195 pd dry;
#X connect 0 0 2 0;
#X connect 0 0 1 0;
#X connect 0 0 3 0;
#X connect 0 0 19 0;
#X connect 0 0 21 0;
#X connect 1 0 20 0;
#X connect 1 1 10 0;
#X connect 2 0 20 0;
#X connect 2 1 10 0;
#X connect 3 0 20 0;
#X connect 3 1 10 0;
#X connect 4 0 5 0;
#X connect 5 0 7 0;
#X connect 6 0 4 0;
#X connect 7 0 9 0;
#X connect 8 0 18 0;
#X connect 9 0 10 0;
#X connect 9 0 17 0;
#X connect 9 0 18 0;
#X connect 10 0 12 0;
#X connect 11 0 4 0;
#X connect 13 0 16 0;
#X connect 13 1 15 0;
#X connect 13 2 14 0;
#X connect 18 0 3 1;
#X connect 18 0 2 1;
#X connect 18 0 1 1;
#X connect 18 0 19 1;
#X connect 18 0 21 1;
#X connect 19 0 20 0;
#X connect 19 1 10 0;
#X connect 21 0 20 0;
#X connect 21 1 10 0;
