#N canvas 628 70 1042 1031 10;
#X obj 6 -86 loadbang;
#X obj 7 -57 f \$1;
#X obj 333 18 soundfiler;
#X obj 686 59 openpanel;
#X msg 685 33 bang;
#X obj 107 139 hradio 15 1 0 8 empty empty empty 0 -8 0 10 -262144
-1 -1 0;
#X obj 155 158 nbx 5 14 -1e+37 1e+37 0 0 empty empty empty 0 -8 0 10
-262144 -1 -1 0 256;
#X obj 98 -78 r masterbeat;
#X floatatom 98 -46 5 0 0 0 - - -;
#X obj 109 161 tgl 15 0 empty empty loop 17 7 0 10 -262144 -1 -1 0
1;
#X obj 347 687 s_playtable;
#X obj 384 -33 \$0;
#X obj 385 -59 bng 15 250 50 0 empty empty empty 17 7 0 10 -262144
-1 -1;
#X obj 342 578 \$0;
#X obj 341 548 bng 15 250 50 0 empty empty empty 17 7 0 10 -262144
-1 -1;
#X obj 348 614 pack 1 1 1 0 1000;
#X obj 398 566 f 1;
#X obj 371 577 f 1;
#X floatatom 434 537 10 0 0 0 - - -;
#X text 367 561 gain;
#X text 392 550 pitch;
#X text 421 562 start;
#X text 460 559 stop;
#X obj 214 158 bng 15 250 50 0 empty empty REC 17 7 0 10 -262144 -1
-1;
#X obj 85 589 select 1;
#X obj 87 640 spigot;
#X obj 87 617 tgl 15 0 empty empty empty 17 7 0 10 -262144 -1 -1 0
1;
#X obj 147 -48 bng 15 250 50 0 empty empty empty 17 7 0 10 -262144
-1 -1;
#X msg 347 644 \$1_Ksample \$2 \$3 \$4 \$5;
#X obj 140 639 delay 1000;
#X floatatom 91 824 8 0 0 1 duration_in_samples - -;
#X floatatom 64 844 8 0 0 1 duration_in_ms - -;
#X symbolatom 37 864 12 0 0 1 table_name - -;
#X obj 37 781 unpack s f f f;
#X floatatom 118 804 6 0 0 1 samplerate - -;
#X msg 143 706 stop \, normalize \, info;
#X msg 39 707 clear \, start 0;
#X obj 61 -78 r bpm;
#X obj 11 27 *;
#X floatatom 61 -56 5 0 0 0 - - -;
#X text 254 156 press to start recording at beat 1;
#X obj 217 -78 inlet;
#X text 726 7 load a file from the hard drive;
#X obj 685 6 inlet;
#X obj 333 -59 inlet;
#X text 331 -78 load preset from the hard drive;
#X msg 333 -8 read sfx/bank1/aagent.aif \$1_Ksample;
#X obj 680 191 soundfiler;
#X obj 860 104 \$0;
#X msg 682 107 set read -resize;
#X msg 870 128 add \$1_Ksample;
#X obj 791 106 symbol \$1;
#X msg 796 129 add2 \$1;
#X obj 686 84 t b b b b;
#X obj 437 466 * 1000;
#X obj 176 -78 r mspb;
#X obj 338 485 t b b;
#X obj 107 122 hradio 15 1 0 8 empty empty empty 0 -8 0 10 -262144
-1 -1 0;
#X obj 195 111 hradio 8 1 0 4 empty empty empty 0 -8 0 10 -1 -262144
-1 0;
#X obj 252 -78 r masterclock;
#X obj 252 -43 % 8;
#X floatatom 251 -1 5 0 0 0 - - -;
#X obj 252 -22 / 8;
#X obj 350 854 outlet~;
#X obj 38 571 inlet~;
#X msg 680 154 read -resize /Users/kaos/Documents/kaosbeat/monome/kaosslicer/sfx/bank3/002_suchaninstrumentistheturbo.wav
1052_Ksample \;;
#X text 54 -106 Klooper size(8-16-32) position(1-2-3-4);
#X obj 160 73 r slicer-\$2;
#X obj 797 190 print;
#N canvas 435 497 660 420 countdowntorecord 0;
#X obj 130 27 r slicecontrol-\$2;
#X obj 24 48 r masterbeat;
#X obj 181 199 f;
#X obj 140 54 select 0 1 2 3;
#X obj 171 159 t b b b b b b b b b;
#X obj 149 200 f 8;
#X obj 126 231 f 8;
#X obj 213 199 + 1;
#X obj 212 230 - 1;
#X obj 213 287 puma.led.toggle \$2 0 1 8;
#X obj 213 259 pack f 1;
#X obj 214 326 s monome.led;
#X floatatom 141 290 5 0 0 0 - - -;
#X obj 52 188 t b b b;
#X obj 67 315 outlet;
#X connect 0 0 3 0;
#X connect 1 0 6 1;
#X connect 2 0 7 0;
#X connect 3 3 13 0;
#X connect 4 0 5 0;
#X connect 4 1 2 0;
#X connect 4 2 2 0;
#X connect 4 3 2 0;
#X connect 4 4 2 0;
#X connect 4 5 2 0;
#X connect 4 6 2 0;
#X connect 4 7 2 0;
#X connect 4 8 2 0;
#X connect 5 0 2 1;
#X connect 6 0 2 1;
#X connect 7 0 2 1;
#X connect 7 0 8 0;
#X connect 8 0 10 0;
#X connect 8 0 12 0;
#X connect 9 0 11 0;
#X connect 10 0 9 0;
#X connect 13 0 4 0;
#X connect 13 1 14 0;
#X connect 13 2 6 0;
#X restore 539 -79 pd countdowntorecord;
#X floatatom 6 174 10 0 0 0 - - -;
#X obj 11 -152 bng 15 250 50 0 empty empty empty 17 7 0 10 -262144
-1 -1;
#X obj 225 -44 % 8;
#X obj 6 -31 / 8;
#X obj 225 -22 / 1;
#X obj 39 747 u_record \$0_Ksample 20000;
#X obj 105 13 r seqsync-\$2;
#X obj 103 68 spigot;
#X obj 104 36 unpack;
#X floatatom 107 -26 5 0 0 0 - - -;
#X msg 260 649 sr \$1;
#X floatatom 397 535 5 0 0 0 - - -;
#X obj 839 640 spigot;
#X obj 435 340 / 8;
#N canvas 693 75 987 836 offset 0;
#X obj 104 -71 inlet;
#X text 181 14 offset;
#X text 156 181 counts from offset onwards \, respecting the beat clock
;
#X obj 205 116 % 8;
#X obj 351 71 tgl 15 0 empty empty empty 17 7 0 10 -262144 -1 -1 0
1;
#X obj 317 13 r seqsync-\$2;
#X obj 317 38 unpack;
#X obj 168 538 s monome.led;
#X obj 167 509 puma.led.monot \$2 0 1 8;
#X obj 332 220 r mspb;
#X obj 82 78 f 0;
#X obj 228 13 r masterclock;
#X obj 110 78 + 1;
#X obj 163 59 bng 15 250 50 0 empty empty empty 17 7 0 10 -262144 -1
-1;
#X obj 269 118 % 8;
#X obj 129 6 f 0;
#X obj 202 260 switch;
#X obj 158 116 + 1;
#X floatatom 255 304 5 0 0 0 - - -;
#X floatatom 136 305 5 0 0 0 - - -;
#X floatatom 199 304 5 0 0 0 - - -;
#X obj -9 -12 s seqsyncoff-\$2;
#X obj 29 441 puma.led.toggle \$2 3 2 4;
#X msg 29 414 clear;
#X obj 104 -40 t f b f;
#X obj 207 396 / 1;
#X obj 239 80 / 8;
#X floatatom 340 534 5 0 0 0 - - -;
#X obj 239 54 f \$1;
#X obj 52 43 * 1;
#X floatatom 31 79 5 0 0 0 - - -;
#X obj 245 -51 loadbang;
#X obj 377 536 outlet;
#X connect 0 0 24 0;
#X connect 3 0 19 0;
#X connect 3 0 16 2;
#X connect 4 0 17 0;
#X connect 5 0 6 0;
#X connect 6 1 4 0;
#X connect 8 0 7 0;
#X connect 9 0 8 1;
#X connect 10 0 12 0;
#X connect 10 0 14 0;
#X connect 11 0 3 0;
#X connect 11 0 13 0;
#X connect 12 0 10 1;
#X connect 13 0 10 0;
#X connect 14 0 18 0;
#X connect 14 0 16 1;
#X connect 15 0 4 0;
#X connect 15 0 21 0;
#X connect 16 0 20 0;
#X connect 17 0 16 0;
#X connect 20 0 25 0;
#X connect 22 0 7 0;
#X connect 23 0 22 1;
#X connect 24 0 8 0;
#X connect 24 1 15 0;
#X connect 24 1 23 0;
#X connect 24 2 29 0;
#X connect 25 0 8 0;
#X connect 25 0 27 0;
#X connect 25 0 32 0;
#X connect 26 0 25 1;
#X connect 26 0 29 1;
#X connect 28 0 3 1;
#X connect 28 0 14 1;
#X connect 28 0 26 0;
#X connect 29 0 30 0;
#X connect 29 0 10 0;
#X connect 31 0 28 0;
#X restore 210 313 pd offset;
#X obj 499 158 r seqsyncoff-\$2;
#X obj 498 184 bng 15 250 50 0 empty empty empty 17 7 0 10 -262144
-1 -1;
#X obj 497 212 f 0;
#X floatatom 466 368 5 0 0 0 - - -;
#X obj 550 595 - 0;
#X floatatom 569 656 5 0 0 0 - - -;
#X obj 451 783 print;
#X msg 438 715 0;
#X floatatom 369 441 5 0 0 0 - - -;
#X obj 317 406 select 0;
#X floatatom 536 690 5 0 0 0 - - -;
#X obj 522 543 f 2000;
#X obj 281 365 spigot;
#X obj 319 296 f 1;
#X connect 0 0 1 0;
#X connect 1 0 38 1;
#X connect 1 0 72 1;
#X connect 1 0 73 0;
#X connect 3 0 51 1;
#X connect 3 0 53 0;
#X connect 4 0 3 0;
#X connect 5 0 6 0;
#X connect 5 0 83 0;
#X connect 5 0 84 0;
#X connect 7 0 8 0;
#X connect 8 0 24 0;
#X connect 10 0 63 0;
#X connect 10 1 92 0;
#X connect 10 1 98 0;
#X connect 10 1 56 0;
#X connect 11 0 46 0;
#X connect 12 0 11 0;
#X connect 13 0 15 0;
#X connect 14 0 13 0;
#X connect 15 0 28 0;
#X connect 16 0 15 2;
#X connect 17 0 15 1;
#X connect 18 0 89 1;
#X connect 18 0 15 3;
#X connect 23 0 26 0;
#X connect 24 0 25 0;
#X connect 25 0 27 0;
#X connect 25 0 26 0;
#X connect 25 0 36 0;
#X connect 25 0 29 0;
#X connect 26 0 25 1;
#X connect 28 0 10 0;
#X connect 28 0 91 0;
#X connect 29 0 35 0;
#X connect 33 0 32 0;
#X connect 33 1 31 0;
#X connect 33 2 30 0;
#X connect 33 3 34 0;
#X connect 33 3 80 0;
#X connect 35 0 75 1;
#X connect 36 0 75 1;
#X connect 37 0 39 0;
#X connect 38 0 29 1;
#X connect 38 0 54 1;
#X connect 38 0 70 0;
#X connect 38 0 96 1;
#X connect 41 0 23 0;
#X connect 43 0 3 0;
#X connect 44 0 11 0;
#X connect 46 0 2 0;
#X connect 48 0 50 0;
#X connect 49 0 65 0;
#X connect 50 0 65 0;
#X connect 51 0 52 0;
#X connect 52 0 65 0;
#X connect 52 0 68 0;
#X connect 53 0 65 0;
#X connect 53 1 48 0;
#X connect 53 2 51 0;
#X connect 53 3 49 0;
#X connect 54 0 18 0;
#X connect 55 0 38 0;
#X connect 56 0 14 0;
#X connect 56 1 18 0;
#X connect 56 1 96 0;
#X connect 59 0 60 0;
#X connect 59 0 72 0;
#X connect 60 0 62 0;
#X connect 61 0 58 0;
#X connect 62 0 61 0;
#X connect 64 0 75 0;
#X connect 65 0 47 0;
#X connect 67 0 5 0;
#X connect 69 0 23 0;
#X connect 71 0 1 0;
#X connect 72 0 74 0;
#X connect 73 0 74 1;
#X connect 74 0 77 0;
#X connect 75 0 33 0;
#X connect 76 0 78 0;
#X connect 77 0 57 0;
#X connect 78 1 77 1;
#X connect 80 0 10 1;
#X connect 81 0 16 0;
#X connect 83 0 54 0;
#X connect 83 0 88 0;
#X connect 84 0 97 0;
#X connect 85 0 86 0;
#X connect 85 0 56 0;
#X connect 86 0 87 0;
#X connect 87 0 77 1;
#X connect 87 0 97 1;
#X connect 89 0 15 4;
#X connect 89 0 90 0;
#X connect 92 0 18 0;
#X connect 94 0 56 0;
#X connect 94 1 93 0;
#X connect 96 0 89 0;
#X connect 96 0 95 0;
#X connect 97 0 94 0;
#X connect 98 0 97 1;
#X coords 0 -1 1 1 150 80 1 100 100;
