#N canvas 487 22 1193 872 10;
#X declare -path puma;
#X obj 241 -39 declare -path puma;
#N canvas 967 430 603 453 VUmeter 0;
#X msg 174 156 coords \$1 \$2 \$3 \$4;
#X obj 175 177 puma.led.slider 0 0 0 0;
#X obj 174 134 pack f 0 3 8;
#X obj 174 110 * 2;
#X obj 175 88 - 1;
#X obj 175 5 inlet;
#X text 214 5 VU-meter Position;
#X obj 173 200 s monome.led;
#X text 109 7 vu-value;
#X obj 71 4 inlet~;
#X obj 70 61 / 7;
#X obj 70 84 int;
#X obj 70 34 env~;
#X obj 69 108 f 0;
#X obj 69 132 - 1;
#X msg 308 150 clear;
#X obj 332 10 inlet;
#X connect 0 0 1 0;
#X connect 1 0 7 0;
#X connect 2 0 0 0;
#X connect 3 0 2 0;
#X connect 4 0 3 0;
#X connect 5 0 4 0;
#X connect 9 0 12 0;
#X connect 10 0 11 0;
#X connect 11 0 13 0;
#X connect 12 0 10 0;
#X connect 13 0 14 0;
#X connect 14 0 1 0;
#X connect 15 0 1 1;
#X connect 16 0 15 0;
#X restore 120 138 pd VUmeter;
#X obj 177 -16 f \$2;
#X obj 176 -40 loadbang;
#X obj 433 358 outlet;
#X text 417 375 current # of beats;
#X obj 302 121 tgl 15 0 empty empty empty 17 7 0 10 -262144 -1 -1 0
1;
#X obj 302 144 select 1;
#X obj 109 293 u_record \$0_Ksample 64000;
#X obj 302 170 bng 15 250 50 0 empty empty empty 17 7 0 10 -262144
-1 -1;
#X msg 335 238 stop \, normalize;
#X msg 443 241 info;
#X obj 349 170 bng 15 250 50 0 empty empty empty 17 7 0 10 -262144
-1 -1;
#X obj 444 216 delay 1000;
#X obj 436 53 r masterclock;
#X obj 434 76 bng 15 250 50 0 empty empty empty 17 7 0 10 -262144 -1
-1;
#X obj 434 100 spigot;
#X obj 374 146 f 0;
#X obj 433 125 f 0;
#X obj 462 125 + 1;
#X floatatom 432 152 5 0 0 0 - - -;
#X obj 538 75 select 127;
#X obj 538 52 ctlin 44;
#X text 593 54 rec;
#X text 673 53 stop;
#X obj 617 76 select 127;
#X obj 539 101 f 1;
#X obj 617 98 f 0;
#X obj 619 52 ctlin 46;
#X obj 538 126 spigot;
#X obj 707 81 select 0;
#X text 765 82 stop recording when unarming;
#X obj 117 -40 inlet~;
#X obj 120 113 *~ 0;
#X obj 141 90 tgl 15 0 empty empty empty 17 7 0 10 -262144 -1 -1 0
1;
#X obj 239 95 t b 0;
#X obj 181 105 bng 15 250 50 0 empty empty empty 17 7 0 10 -262144
-1 -1;
#X obj 105 356 outlet;
#X obj 301 357 s seqstop-\$2;
#X msg 232 238 clear;
#X msg 278 238 start 0;
#X obj 265 210 t b b;
#X obj 711 53 ctlin \$3;
#X connect 2 0 1 1;
#X connect 3 0 2 0;
#X connect 6 0 7 0;
#X connect 6 0 16 1;
#X connect 7 0 9 0;
#X connect 7 0 17 0;
#X connect 7 0 38 0;
#X connect 7 1 10 0;
#X connect 7 1 12 0;
#X connect 8 0 37 0;
#X connect 9 0 41 0;
#X connect 10 0 8 1;
#X connect 11 0 8 1;
#X connect 12 0 13 0;
#X connect 13 0 11 0;
#X connect 14 0 15 0;
#X connect 15 0 16 0;
#X connect 16 0 18 0;
#X connect 17 0 18 1;
#X connect 18 0 20 0;
#X connect 18 0 19 0;
#X connect 18 0 4 0;
#X connect 19 0 18 1;
#X connect 21 0 26 0;
#X connect 22 0 21 0;
#X connect 25 0 27 0;
#X connect 26 0 29 0;
#X connect 27 0 29 0;
#X connect 28 0 25 0;
#X connect 29 0 6 0;
#X connect 30 0 35 0;
#X connect 32 0 33 0;
#X connect 32 0 8 0;
#X connect 33 0 1 0;
#X connect 34 0 33 1;
#X connect 35 0 1 2;
#X connect 35 1 6 0;
#X connect 35 1 34 0;
#X connect 36 0 1 2;
#X connect 39 0 8 1;
#X connect 40 0 8 1;
#X connect 41 0 40 0;
#X connect 41 1 39 0;
#X connect 42 0 29 1;
#X connect 42 0 30 0;
#X connect 42 0 34 0;
