#N canvas 370 122 1193 872 10;
#X declare -path puma;
#X obj 241 -39 declare -path puma;
#N canvas 967 430 603 453 VUmeter 1;
#X msg 174 156 coords \$1 \$2 \$3 \$4;
#X obj 175 177 puma.led.slider 0 0 0 0;
#X obj 174 134 pack f 0 3 8;
#X obj 174 110 * 2;
#X obj 175 88 - 1;
#X obj 175 5 inlet;
#X text 214 5 VU-meter Position;
#X obj 173 200 s monome.led;
#X text 109 7 vu-value;
#X obj 71 4 inlet~;
#X obj 70 61 / 7;
#X obj 70 84 int;
#X obj 70 34 env~;
#X obj 69 108 f 0;
#X obj 69 132 - 1;
#X msg 313 150 clear;
#X obj 332 10 inlet;
#X obj 311 110 i 8;
#X obj 322 80 t b b;
#X connect 0 0 1 0;
#X connect 1 0 7 0;
#X connect 2 0 0 0;
#X connect 3 0 2 0;
#X connect 4 0 3 0;
#X connect 5 0 4 0;
#X connect 9 0 12 0;
#X connect 10 0 11 0;
#X connect 11 0 13 0;
#X connect 12 0 10 0;
#X connect 13 0 14 0;
#X connect 14 0 1 0;
#X connect 15 0 1 1;
#X connect 16 0 18 0;
#X connect 17 0 1 0;
#X connect 18 0 15 0;
#X connect 18 1 17 0;
#X restore 120 138 pd VUmeter;
#X obj 177 -16 f \$2;
#X obj 176 -40 loadbang;
#X obj 433 358 outlet;
#X text 417 375 current # of beats;
#X obj 302 121 tgl 15 0 empty empty empty 17 7 0 10 -262144 -1 -1 0
1;
#X obj 302 144 select 1;
#X obj 107 299 u_record \$0_Ksample 64000;
#X obj 302 170 bng 15 250 50 0 empty empty empty 17 7 0 10 -262144
-1 -1;
#X msg 335 238 stop \, normalize;
#X msg 443 241 info;
#X obj 349 170 bng 15 250 50 0 empty empty empty 17 7 0 10 -262144
-1 -1;
#X obj 444 216 delay 1000;
#X obj 436 53 r masterclock;
#X obj 434 76 bng 15 250 50 0 empty empty empty 17 7 0 10 -262144 -1
-1;
#X obj 434 100 spigot;
#X obj 374 146 f 0;
#X obj 433 125 f 0;
#X obj 462 125 + 1;
#X floatatom 432 152 5 0 0 0 - - -;
#X obj 538 75 select 127;
#X obj 538 52 ctlin 44;
#X text 593 54 rec;
#X text 673 53 stop;
#X obj 617 76 select 127;
#X obj 539 101 f 1;
#X obj 617 98 f 0;
#X obj 619 52 ctlin 46;
#X obj 538 126 spigot;
#X obj 117 -40 inlet~;
#X obj 120 113 *~ 0;
#X obj 141 79 tgl 15 0 empty empty empty 17 7 0 10 -262144 -1 -1 1
1;
#X obj 174 111 bng 15 250 50 0 empty empty empty 17 7 0 10 -262144
-1 -1;
#X obj 105 356 outlet;
#X obj 301 357 s seqstop-\$2;
#X msg 232 238 clear;
#X msg 278 238 start 0;
#X obj 265 210 t b b;
#X obj 711 53 ctlin \$3;
#X obj 192 375 bng 15 250 50 0 empty empty empty 17 7 0 10 -262144
-1 -1;
#X obj 711 75 s armstat-\$2;
#X obj 712 669 s monome.led;
#X obj 711 492 - 1;
#X obj 711 512 * 2;
#X obj 711 533 + 1;
#X obj 711 444 t b b;
#X obj 712 421 loadbang;
#X obj 711 472 f \$2;
#X obj 866 454 + 1;
#X obj 868 423 float;
#X obj 864 481 select 8;
#X msg 919 455 0;
#X obj 848 561 r mspb;
#X obj 774 439 bng 15 250 50 0 empty empty empty 17 7 0 10 -262144
-1 -1;
#X obj 823 684 print sdvsvdsdfg;
#X obj 712 591 puma.led.monot 0 0 0 0;
#X floatatom 868 594 5 0 0 0 - - -;
#X msg 648 557 coords \$1 0 1 8;
#X obj 840 508 - 1;
#X msg 1030 475 1;
#X msg 983 476 0;
#X obj 789 546 spigot;
#X obj 983 445 select 0;
#X obj 983 417 r armstat-\$2;
#X connect 2 0 1 1;
#X connect 3 0 2 0;
#X connect 6 0 7 0;
#X connect 6 0 16 1;
#X connect 7 0 9 0;
#X connect 7 0 17 0;
#X connect 7 0 35 0;
#X connect 7 1 10 0;
#X connect 7 1 12 0;
#X connect 8 0 34 0;
#X connect 8 0 40 0;
#X connect 9 0 38 0;
#X connect 10 0 8 1;
#X connect 11 0 8 1;
#X connect 12 0 13 0;
#X connect 13 0 11 0;
#X connect 14 0 15 0;
#X connect 15 0 16 0;
#X connect 15 0 50 0;
#X connect 16 0 18 0;
#X connect 17 0 18 1;
#X connect 18 0 20 0;
#X connect 18 0 19 0;
#X connect 18 0 4 0;
#X connect 19 0 18 1;
#X connect 21 0 26 0;
#X connect 22 0 21 0;
#X connect 25 0 27 0;
#X connect 26 0 29 0;
#X connect 26 0 52 0;
#X connect 27 0 29 0;
#X connect 28 0 25 0;
#X connect 29 0 6 0;
#X connect 30 0 31 0;
#X connect 30 0 8 0;
#X connect 31 0 1 0;
#X connect 32 0 31 1;
#X connect 32 0 33 0;
#X connect 33 0 1 2;
#X connect 36 0 8 1;
#X connect 37 0 8 1;
#X connect 38 0 37 0;
#X connect 38 1 36 0;
#X connect 39 0 29 1;
#X connect 39 0 32 0;
#X connect 39 0 41 0;
#X connect 43 0 44 0;
#X connect 44 0 45 0;
#X connect 45 0 58 0;
#X connect 46 0 48 0;
#X connect 47 0 46 0;
#X connect 48 0 43 0;
#X connect 49 0 50 1;
#X connect 49 0 51 0;
#X connect 49 0 59 0;
#X connect 50 0 49 0;
#X connect 51 0 52 0;
#X connect 52 0 50 1;
#X connect 53 0 56 1;
#X connect 53 0 57 0;
#X connect 54 0 48 0;
#X connect 56 0 42 0;
#X connect 58 0 55 0;
#X connect 58 0 56 0;
#X connect 59 0 62 0;
#X connect 60 0 62 1;
#X connect 61 0 62 1;
#X connect 62 0 56 0;
#X connect 63 0 61 0;
#X connect 63 1 60 0;
#X connect 64 0 63 0;
