#N canvas 580 222 1313 625 10;
#X declare -path puma;
#X text -145 -35 bang to start/stop;
#X obj 0 373 outlet;
#X obj -143 21 tgl 15 0 empty empty empty 17 7 0 10 -262144 -1 -1 0
1;
#X obj -207 -6 inlet~;
#X msg 22 256 sr \$1;
#X obj -142 50 select 1;
#X obj -207 205 u_record \$0_Ksample 64000;
#X obj -143 78 bng 15 250 50 0 empty empty empty 17 7 0 10 -262144
-1 -1;
#X msg -40 141 stop \, normalize;
#X obj -95 76 bng 15 250 50 0 empty empty empty 17 7 0 10 -262144 -1
-1;
#X obj 68 114 delay 1000;
#X obj -9 1 r masterclock;
#X obj -11 24 bng 15 250 50 0 empty empty empty 17 7 0 10 -262144 -1
-1;
#X obj -13 47 spigot;
#X obj -71 49 f 0;
#X obj -12 73 f 0;
#X obj 17 73 + 1;
#X floatatom 45 373 5 0 0 0 - - -;
#X obj 95 87 spigot;
#X obj 264 56 select 0;
#X text 322 57 stop recording when unarming;
#X msg 263 87 0;
#X obj -170 258 / 7;
#X obj -170 281 int;
#X msg -66 476 clear;
#X obj -170 231 env~;
#X obj -171 305 f 0;
#X obj -171 329 - 1;
#X obj 260 300 loadbang;
#X obj 412 491 s monome.led;
#X obj -207 362 outlet;
#X msg -168 141 clear;
#X msg -122 141 start 0;
#X obj -135 113 t b b;
#X msg 232 439 coords \$1 \$2 \$3 \$4;
#X obj 233 460 puma.led.slider 0 0 0 0;
#X obj 232 417 pack f 0 3 8;
#X obj 239 383 * 2;
#X obj 261 331 f \$2;
#X floatatom 348 319 5 0 0 0 - - -;
#X obj 257 358 - 1;
#X msg 387 384 coords \$1 \$2 \$3 \$4;
#X text 757 147 arm;
#X obj 95 -63 r monome.press;
#X obj 192 -63 declare -path puma;
#X text 232 483 VU-meter;
#X obj 592 152 puma.press.mono 0 7 16 1;
#X obj 663 231 select 2;
#X obj 666 263 t b b;
#X obj 687 301 tgl 15 0 empty empty empty 17 7 0 10 -262144 -1 -1 0
1;
#X obj 637 335 pack f f;
#X obj 637 263 f 0;
#X obj 621 232 t b b;
#X obj 633 365 s recarm-\$2;
#X obj 620 203 r recarmcoff-\$2;
#X obj 215 279 bng 15 250 50 0 empty empty empty 17 7 0 10 -262144
-1 -1;
#X obj 386 360 pack f 7 1 1;
#X obj 625 300 f 0;
#X obj 567 470 puma.led.blink 0 7 1 1;
#X obj 695 415 metro 50;
#X obj 695 396 tgl 15 0 empty empty empty 17 7 0 10 -262144 -1 -1 0
1;
#X obj 695 436 i 0;
#X obj 725 436 + 1;
#X obj 729 354 r mspb;
#X msg 577 430 0 2;
#X msg 607 429 0 0;
#X obj 569 386 select 1;
#X obj 729 384 / 8;
#X msg 544 429 0 8;
#X obj 793 150 puma.press.mono 0 0 16 1;
#X text 951 147 rec;
#X obj 792 199 select 0;
#X obj 793 228 tgl 15 0 empty empty empty 17 7 0 10 -262144 -1 -1 1
1;
#X obj -139 372 spigot;
#X text -167 390 VUmeter off when unarmed;
#X text 573 489 rec-Arm-indicator;
#X obj -96 100 f 0;
#X msg 98 171 info;
#X obj 82 143 t b b;
#X msg 56 170 stop;
#X obj 54 482 bng 15 250 50 0 empty empty empty 17 7 0 10 -262144 -1
-1;
#X obj 13 520 s recstop-\$2;
#X obj 808 348 select 0;
#X obj 813 421 bng 15 250 50 0 empty empty empty 17 7 0 10 -262144
-1 -1;
#X obj -164 457 s seqstop-\$2;
#X obj 656 12 KsamplerecorderRR;
#X connect 2 0 5 0;
#X connect 2 0 13 1;
#X connect 3 0 6 0;
#X connect 3 0 25 0;
#X connect 5 0 7 0;
#X connect 5 0 14 0;
#X connect 5 0 68 0;
#X connect 5 0 84 0;
#X connect 5 1 8 0;
#X connect 5 1 9 0;
#X connect 5 1 65 0;
#X connect 6 0 30 0;
#X connect 7 0 33 0;
#X connect 8 0 6 1;
#X connect 9 0 10 0;
#X connect 9 0 76 0;
#X connect 10 0 78 0;
#X connect 11 0 12 0;
#X connect 12 0 13 0;
#X connect 13 0 15 0;
#X connect 14 0 15 1;
#X connect 15 0 17 0;
#X connect 15 0 16 0;
#X connect 15 0 1 0;
#X connect 16 0 15 1;
#X connect 18 0 2 0;
#X connect 19 0 21 0;
#X connect 19 0 24 0;
#X connect 21 0 2 0;
#X connect 22 0 23 0;
#X connect 23 0 26 0;
#X connect 24 0 35 1;
#X connect 25 0 22 0;
#X connect 26 0 27 0;
#X connect 27 0 73 0;
#X connect 28 0 38 0;
#X connect 28 0 59 0;
#X connect 31 0 6 1;
#X connect 32 0 6 1;
#X connect 33 0 32 0;
#X connect 33 1 31 0;
#X connect 34 0 35 0;
#X connect 35 0 29 0;
#X connect 36 0 34 0;
#X connect 37 0 36 0;
#X connect 37 0 47 1;
#X connect 37 0 56 0;
#X connect 38 0 40 0;
#X connect 39 0 38 0;
#X connect 40 0 37 0;
#X connect 41 0 58 0;
#X connect 43 0 46 0;
#X connect 43 0 69 0;
#X connect 46 0 47 0;
#X connect 47 0 48 0;
#X connect 48 0 57 0;
#X connect 48 1 49 0;
#X connect 49 0 50 1;
#X connect 49 0 66 0;
#X connect 49 0 18 1;
#X connect 49 0 19 1;
#X connect 49 0 73 1;
#X connect 49 0 82 0;
#X connect 50 0 53 0;
#X connect 51 0 49 0;
#X connect 52 0 57 0;
#X connect 52 1 51 0;
#X connect 54 0 52 0;
#X connect 55 0 38 0;
#X connect 56 0 41 0;
#X connect 57 0 50 0;
#X connect 58 0 29 0;
#X connect 59 0 61 0;
#X connect 60 0 59 0;
#X connect 61 0 62 0;
#X connect 61 0 58 1;
#X connect 62 0 61 1;
#X connect 63 0 67 0;
#X connect 64 0 58 0;
#X connect 65 0 58 0;
#X connect 66 0 64 0;
#X connect 66 1 65 0;
#X connect 66 1 24 0;
#X connect 67 0 59 1;
#X connect 68 0 58 0;
#X connect 69 0 71 0;
#X connect 71 0 18 0;
#X connect 71 0 72 0;
#X connect 73 0 35 0;
#X connect 76 0 49 0;
#X connect 77 0 6 1;
#X connect 78 0 79 0;
#X connect 78 0 80 0;
#X connect 78 1 77 0;
#X connect 79 0 6 1;
#X connect 80 0 81 0;
#X connect 82 0 83 0;
