#N canvas 526 458 1047 557 10;
#X obj 14 415 s_playtable;
#X obj 299 131 % 16;
#X obj 288 304 r mspb;
#X obj 284 384 s monome.led;
#X obj 284 12 t f b b;
#X msg 311 229 \$1 2;
#X msg 348 229 reset;
#X obj 309 196 t f b;
#X obj 281 -42 inlet;
#X text 320 -41 beat;
#X obj 10 -48 r monome.press;
#X obj 10 -24 puma.press.mono 0 0 16 \$1;
#X floatatom 28 69 5 0 0 0 - - -;
#X obj -51 328 print;
#X text -23 351 current # of beats;
#X floatatom -170 99 8 0 0 1 duration_in_samples - -;
#X floatatom -197 119 8 0 0 1 duration_in_ms - -;
#X symbolatom -224 139 12 0 0 1 table_name - -;
#X obj -224 56 unpack s f f f;
#X floatatom -143 79 6 0 0 1 samplerate - -;
#X obj -235 188 outlet;
#X obj -183 189 outlet;
#X obj -129 190 outlet;
#X obj -70 191 outlet;
#X obj -218 -39 inlet;
#X text -179 -38 u_record info;
#X obj 164 345 puma.led.monot 0 \$1 16 1;
#X obj 320 347 puma.led.blink 0 \$1 16 1;
#X obj 422 99;
#X floatatom 377 40 5 0 0 0 - - -;
#X obj 6 219 bng 15 250 50 0 empty empty empty 17 7 0 10 -262144 -1
-1;
#X obj 12 451 dac~;
#X msg -111 263 sr \$1;
#X obj 4 264 pack s 1 1 0 1000;
#X msg 3 291 \$1 \$2 \$3 \$4 \$5;
#X connect 0 0 31 0;
#X connect 1 0 7 0;
#X connect 2 0 26 1;
#X connect 4 0 1 0;
#X connect 5 0 27 0;
#X connect 6 0 27 1;
#X connect 7 0 5 0;
#X connect 7 0 26 0;
#X connect 7 1 6 0;
#X connect 8 0 4 0;
#X connect 8 0 29 0;
#X connect 10 0 11 0;
#X connect 11 0 12 0;
#X connect 12 0 30 0;
#X connect 18 0 17 0;
#X connect 18 0 20 0;
#X connect 18 0 33 0;
#X connect 18 1 16 0;
#X connect 18 1 21 0;
#X connect 18 2 15 0;
#X connect 18 2 22 0;
#X connect 18 3 19 0;
#X connect 18 3 23 0;
#X connect 18 3 32 0;
#X connect 24 0 18 0;
#X connect 26 0 3 0;
#X connect 27 0 3 0;
#X connect 30 0 33 0;
#X connect 32 0 0 1;
#X connect 33 0 34 0;
#X connect 34 0 13 0;
#X connect 34 0 0 0;
