#N canvas 542 421 712 630 10;
#X obj -144 -10 inlet;
#X text -145 -35 bang to start/stop;
#X obj 0 373 outlet;
#X obj -143 21 tgl 15 0 empty empty empty 17 7 0 10 -262144 -1 -1 0
1;
#X obj -207 -6 inlet~;
#X msg 22 256 sr \$1;
#X obj -142 50 select 1;
#X obj -207 205 u_record \$0_Ksample 64000;
#X obj -143 78 bng 15 250 50 0 empty empty empty 17 7 0 10 -262144
-1 -1;
#X msg -40 141 stop \, normalize;
#X msg 68 140 info;
#X obj -95 76 bng 15 250 50 0 empty empty empty 17 7 0 10 -262144 -1
-1;
#X obj 68 114 delay 1000;
#X obj -9 1 r masterclock;
#X obj -11 24 bng 15 250 50 0 empty empty empty 17 7 0 10 -262144 -1
-1;
#X obj -13 47 spigot;
#X obj -71 49 f 0;
#X obj -12 73 f 0;
#X obj 17 73 + 1;
#X floatatom 45 373 5 0 0 0 - - -;
#X obj 93 23 select 127;
#X obj 94 -5 ctlin 44;
#X text 149 -3 rec;
#X text 228 1 stop;
#X obj 172 24 select 127;
#X obj 94 49 f 1;
#X obj 172 46 f 0;
#X obj 174 0 ctlin 46;
#X obj 95 87 spigot;
#X obj 264 56 select 0;
#X text 322 57 stop recording when unarming;
#X msg 263 87 0;
#X obj 340 19 select 1;
#X obj 407 18 + 22;
#X obj 446 19 f \$1;
#X obj 266 0 ctlin \$1;
#X obj -198 50 / 7;
#X obj -198 73 int;
#X msg -66 476 clear;
#X obj -198 23 env~;
#X obj -206 475 f 0;
#X obj -215 504 - 1;
#X obj 260 300 loadbang;
#X msg 231 246 coords 0 \$1 2 17;
#X obj 37 556 s monome.led;
#X obj -207 362 outlet;
#X msg -168 141 clear;
#X msg -122 141 start 0;
#X obj -135 113 t b b;
#X text 333 247 16 horizontal m128;
#X msg 262 434 coords \$1 \$2 \$3 \$4;
#X obj -208 550 puma.led.slider 0 0 0 0;
#X obj 261 412 pack f 0 3 8;
#X obj 261 387 * 2;
#X obj 261 331 f \$2;
#X floatatom 348 319 5 0 0 0 - - -;
#X obj 257 358 - 1;
#X connect 0 0 3 0;
#X connect 3 0 6 0;
#X connect 3 0 15 1;
#X connect 4 0 7 0;
#X connect 4 0 39 0;
#X connect 6 0 8 0;
#X connect 6 0 16 0;
#X connect 6 1 9 0;
#X connect 6 1 11 0;
#X connect 7 0 45 0;
#X connect 8 0 48 0;
#X connect 9 0 7 1;
#X connect 10 0 7 1;
#X connect 11 0 12 0;
#X connect 12 0 10 0;
#X connect 13 0 14 0;
#X connect 14 0 15 0;
#X connect 15 0 17 0;
#X connect 16 0 17 1;
#X connect 17 0 19 0;
#X connect 17 0 18 0;
#X connect 17 0 2 0;
#X connect 18 0 17 1;
#X connect 20 0 25 0;
#X connect 21 0 20 0;
#X connect 24 0 26 0;
#X connect 25 0 28 0;
#X connect 26 0 28 0;
#X connect 27 0 24 0;
#X connect 28 0 3 0;
#X connect 29 0 31 0;
#X connect 29 0 38 0;
#X connect 31 0 3 0;
#X connect 33 0 32 1;
#X connect 34 0 33 0;
#X connect 35 0 29 0;
#X connect 35 0 28 1;
#X connect 36 0 37 0;
#X connect 37 0 40 0;
#X connect 38 0 51 1;
#X connect 39 0 36 0;
#X connect 40 0 41 0;
#X connect 41 0 51 0;
#X connect 42 0 54 0;
#X connect 46 0 7 1;
#X connect 47 0 7 1;
#X connect 48 0 47 0;
#X connect 48 1 46 0;
#X connect 50 0 51 0;
#X connect 51 0 44 0;
#X connect 52 0 50 0;
#X connect 53 0 52 0;
#X connect 54 0 56 0;
#X connect 55 0 54 0;
#X connect 56 0 53 0;
