#N canvas 597 306 712 630 10;
#X obj -144 -10 inlet;
#X text -145 -35 bang to start/stop;
#X obj 124 358 outlet;
#X text 108 375 current # of beats;
#X obj -143 21 tgl 15 0 empty empty empty 17 7 0 10 -262144 -1 -1 0
1;
#X floatatom -153 282 8 0 0 1 duration_in_samples - -;
#X floatatom -180 302 8 0 0 1 duration_in_ms - -;
#X symbolatom -207 322 12 0 0 1 table_name - -;
#X obj -207 239 unpack s f f f;
#X floatatom -126 262 6 0 0 1 samplerate - -;
#X msg -142 140 clear \, start 0;
#X obj -207 -6 inlet~;
#X msg 22 256 sr \$1;
#X obj -142 50 select 1;
#X obj -207 205 u_record \$0_Ksample 64000;
#X obj -143 78 bng 15 250 50 0 empty empty empty 17 7 0 10 -262144
-1 -1;
#X msg -40 141 stop \, normalize;
#X msg 68 140 info;
#X obj -95 76 bng 15 250 50 0 empty empty empty 17 7 0 10 -262144 -1
-1;
#X obj 68 114 delay 1000;
#X obj -9 1 r masterclock;
#X obj -11 24 bng 15 250 50 0 empty empty empty 17 7 0 10 -262144 -1
-1;
#X obj -11 48 spigot;
#X obj -71 49 f 0;
#X obj -12 73 f 0;
#X obj 17 73 + 1;
#X floatatom -12 98 5 0 0 0 - - -;
#X obj -218 371 outlet;
#X obj -166 372 outlet;
#X obj -112 373 outlet;
#X obj -53 374 outlet;
#X obj 93 23 select 127;
#X obj 93 0 ctlin 44;
#X text 148 2 rec;
#X text 228 1 stop;
#X obj 172 24 select 127;
#X obj 94 49 f 1;
#X obj 172 46 f 0;
#X obj 174 0 ctlin 46;
#X obj 93 74 spigot;
#X obj 268 0 ctlin \$1;
#X obj 264 28 select 0;
#X text 322 29 stop recording when unarming;
#X msg 263 52 0;
#X connect 0 0 4 0;
#X connect 4 0 13 0;
#X connect 4 0 22 1;
#X connect 8 0 7 0;
#X connect 8 0 27 0;
#X connect 8 1 6 0;
#X connect 8 1 28 0;
#X connect 8 2 5 0;
#X connect 8 2 29 0;
#X connect 8 3 9 0;
#X connect 8 3 12 0;
#X connect 8 3 30 0;
#X connect 10 0 14 1;
#X connect 11 0 14 0;
#X connect 13 0 15 0;
#X connect 13 0 23 0;
#X connect 13 1 16 0;
#X connect 13 1 18 0;
#X connect 14 0 8 0;
#X connect 15 0 10 0;
#X connect 16 0 14 1;
#X connect 17 0 14 1;
#X connect 18 0 19 0;
#X connect 19 0 17 0;
#X connect 20 0 21 0;
#X connect 21 0 22 0;
#X connect 22 0 24 0;
#X connect 23 0 24 1;
#X connect 24 0 26 0;
#X connect 24 0 25 0;
#X connect 24 0 2 0;
#X connect 25 0 24 1;
#X connect 31 0 36 0;
#X connect 32 0 31 0;
#X connect 35 0 37 0;
#X connect 36 0 39 0;
#X connect 37 0 39 0;
#X connect 38 0 35 0;
#X connect 39 0 4 0;
#X connect 40 0 39 1;
#X connect 40 0 41 0;
#X connect 41 0 43 0;
#X connect 43 0 4 0;
