#N canvas 195 27 712 630 10;
#X obj -144 -10 inlet;
#X text -145 -35 bang to start/stop;
#X obj 0 373 outlet;
#X obj -143 21 tgl 15 0 empty empty empty 17 7 0 10 -262144 -1 -1 1
1;
#X msg -142 140 clear \, start 0;
#X obj -207 -6 inlet~;
#X msg 22 256 sr \$1;
#X obj -142 50 select 1;
#X obj -207 205 u_record \$0_Ksample 64000;
#X obj -143 78 bng 15 250 50 0 empty empty empty 17 7 0 10 -262144
-1 -1;
#X msg -40 141 stop \, normalize;
#X msg 68 140 info;
#X obj -95 76 bng 15 250 50 0 empty empty empty 17 7 0 10 -262144 -1
-1;
#X obj 68 114 delay 1000;
#X obj -9 1 r masterclock;
#X obj -11 24 bng 15 250 50 0 empty empty empty 17 7 0 10 -262144 -1
-1;
#X obj -13 47 spigot;
#X obj -71 49 f 0;
#X obj -12 73 f 0;
#X obj 17 73 + 1;
#X floatatom 45 373 5 0 0 0 - - -;
#X obj 93 23 select 127;
#X obj 93 0 ctlin 44;
#X text 148 2 rec;
#X text 228 1 stop;
#X obj 172 24 select 127;
#X obj 94 49 f 1;
#X obj 172 46 f 0;
#X obj 174 0 ctlin 46;
#X obj 93 74 spigot;
#X obj 264 56 select 0;
#X text 322 57 stop recording when unarming;
#X msg 263 80 0;
#X obj 340 19 select 1;
#X obj 407 18 + 22;
#X obj 446 19 f \$1;
#X floatatom 338 126 5 60 240 2 BPM - bpm;
#X msg 395 100 60;
#X msg 426 102 240;
#X obj 266 0 ctlin \$1;
#X obj -198 50 / 7;
#X obj -198 73 int;
#X obj -207 550 puma.led.slider 0 0 2 17;
#X msg -66 476 clear;
#X obj -198 23 env~;
#X obj -206 475 f 0;
#X obj -215 504 - 1;
#X obj 194 404 f \$1;
#X obj 194 425 - 23;
#X obj 193 376 loadbang;
#X obj 187 286 bng 15 250 50 0 empty empty empty 17 7 0 10 -262144
-1 -1;
#X msg -50 509 coords 0 \$1 2 17;
#X obj 37 556 s monome.led;
#X obj -31 540 print;
#X obj -207 362 outlet;
#X connect 0 0 3 0;
#X connect 3 0 7 0;
#X connect 3 0 16 1;
#X connect 4 0 8 1;
#X connect 5 0 8 0;
#X connect 5 0 44 0;
#X connect 7 0 9 0;
#X connect 7 0 17 0;
#X connect 7 1 10 0;
#X connect 7 1 12 0;
#X connect 8 0 54 0;
#X connect 9 0 4 0;
#X connect 10 0 8 1;
#X connect 11 0 8 1;
#X connect 12 0 13 0;
#X connect 13 0 11 0;
#X connect 14 0 15 0;
#X connect 15 0 16 0;
#X connect 16 0 18 0;
#X connect 17 0 18 1;
#X connect 18 0 20 0;
#X connect 18 0 19 0;
#X connect 18 0 2 0;
#X connect 19 0 18 1;
#X connect 21 0 26 0;
#X connect 22 0 21 0;
#X connect 25 0 27 0;
#X connect 26 0 29 0;
#X connect 27 0 29 0;
#X connect 28 0 25 0;
#X connect 29 0 3 0;
#X connect 30 0 32 0;
#X connect 30 0 43 0;
#X connect 32 0 3 0;
#X connect 34 0 33 1;
#X connect 35 0 34 0;
#X connect 37 0 36 0;
#X connect 38 0 36 0;
#X connect 39 0 30 0;
#X connect 39 0 29 1;
#X connect 40 0 41 0;
#X connect 41 0 45 0;
#X connect 42 0 52 0;
#X connect 43 0 42 1;
#X connect 44 0 40 0;
#X connect 45 0 46 0;
#X connect 46 0 42 0;
#X connect 47 0 48 0;
#X connect 48 0 51 0;
#X connect 49 0 47 0;
#X connect 50 0 47 0;
#X connect 51 0 53 0;
#X connect 51 0 42 0;
