#N canvas 336 160 1344 773 10;
#X obj 14 415 s_playtable;
#X obj 558 259 r mspb;
#X obj 570 570 s monome.led;
#X obj 579 87 t f b b;
#X msg 581 184 \$1 2;
#X msg 618 184 reset;
#X obj 579 151 t f b;
#X obj 576 33 inlet;
#X text 613 31 beat;
#X obj -23 -138 r monome.press;
#X floatatom -170 99 8 0 0 1 duration_in_samples - -;
#X floatatom -197 118 8 0 0 1 duration_in_ms - -;
#X symbolatom -224 139 12 0 0 1 table_name - -;
#X obj -224 56 unpack s f f f;
#X floatatom -143 79 6 0 0 1 samplerate - -;
#X obj -235 188 outlet;
#X obj -183 189 outlet;
#X obj -129 190 outlet;
#X obj -70 191 outlet;
#X obj -218 -39 inlet;
#X text -179 -38 u_record info;
#X msg -111 263 sr \$1;
#X obj 11 333 pack s 1 1 0 1000;
#X msg 12 376 \$1 \$2 \$3 \$4 \$5;
#X msg 125 405 stop;
#X msg 184 17 \$2 \$1;
#X obj 78 442 bng 15 250 50 0 empty empty empty 17 7 0 10 -262144 -1
-1;
#X obj 12 451 outlet~;
#X obj 171 -132 f \$1;
#X obj 171 -112 - 1;
#X obj 171 -152 loadbang;
#X obj 184 -51 pack f f;
#X obj 579 122 % 8;
#X obj 230 -152 loadbang;
#X obj 229 -129 f 8;
#X obj 171 -92 * 2;
#X obj 171 -71 + 1;
#X msg 183 -30 coords \$1 0 1 \$2;
#X obj 436 303 puma.led.monot 3 0 1 8;
#X obj 584 302 puma.led.blink 3 0 1 8;
#X obj 184 -5 puma.press.switch 1 0 1 8;
#X obj 481 -177 bng 15 250 50 0 empty empty empty 17 7 0 10 -262144
-1 -1;
#X obj 786 446 puma.led.slider 0 0 0 0;
#X obj 785 383 pack f f f;
#X msg 932 394 redraw;
#X msg 786 410 coords \$1 \$2 3 \$3;
#X msg 988 395 clear;
#X obj 805 -36 gate 2;
#X obj 803 -83 hradio 15 1 0 2 empty empty empty 0 -8 0 10 -262144
-1 -1 0;
#X obj 770 -8 unpack f f;
#X floatatom 741 35 5 0 0 0 - - -;
#X obj 805 -59 + 1;
#X obj 916 10 unpack f f;
#X obj 855 -15 route 0;
#X obj 506 -177 bng 15 250 50 0 empty empty empty 17 7 0 10 -262144
-1 -1;
#X obj 858 37 f 0;
#X obj 906 84 - 1;
#X floatatom 907 117 5 0 0 0 - - -;
#X obj 831 78 t b f;
#X floatatom 317 113 5 0 0 0 - - -;
#X text 250 111 gridlength;
#X text 241 142 roundto;
#X obj 234 168 r mspb;
#X obj 213 192 * 50;
#X obj 211 114 div 8;
#X obj 211 140 * 8;
#X floatatom 288 190 5 0 0 0 - - -;
#X floatatom 302 216 5 0 0 0 - - -;
#X obj 67 256 t b f;
#X floatatom 801 31 5 0 0 0 - - -;
#X obj 845 161 + 1;
#X obj 908 237 f 1;
#X obj 892 315 t b b;
#X obj 912 163 + 0;
#X obj 14 90 metro;
#X obj 14 143 + 1;
#X obj 14 120 f 0;
#X obj 98 130 * 8;
#X floatatom 98 157 5 0 0 0 - - -;
#X obj 111 61 bng 15 250 50 0 empty empty empty 17 7 0 10 -262144 -1
-1;
#X floatatom 97 179 5 0 0 0 - - -;
#X obj 11 176 select 8;
#X msg 13 219 0;
#X obj 30 299 bng 15 250 50 0 empty empty empty 17 7 0 10 -262144 -1
-1;
#X obj 748 78 select 7;
#X obj 748 122 bng 15 250 50 0 empty empty empty 17 7 0 10 -262144
-1 -1;
#X obj 127 208 / 1;
#X text 668 136 this should do the full loop basta!;
#X obj 252 348 * 1;
#X obj 14 29 loadbang;
#X obj 211 244 * 1;
#X obj 765 231 f 0;
#X obj 742 163 f 8;
#X obj 212 217 / 8;
#X obj 880 -118 loadbang;
#X obj 481 -210 r recstop-\$1;
#X obj 30 61 tgl 15 0 empty empty empty 17 7 0 10 -262144 -1 -1 0 1
;
#X obj 75 -7 r seqstop-\$1;
#X obj 75 27 f 0;
#X text 241 190 length;
#X text 238 216 gridlength;
#X floatatom 239 392 5 0 0 0 - - -;
#X obj 742 200 t b b f;
#X obj 138 332 pack s 1 1 0 f;
#X connect 0 0 27 0;
#X connect 0 1 26 0;
#X connect 1 0 38 1;
#X connect 3 0 32 0;
#X connect 4 0 39 0;
#X connect 5 0 39 1;
#X connect 6 0 4 0;
#X connect 6 0 38 0;
#X connect 6 1 5 0;
#X connect 7 0 3 0;
#X connect 7 0 64 0;
#X connect 9 0 40 0;
#X connect 13 0 12 0;
#X connect 13 0 15 0;
#X connect 13 0 22 0;
#X connect 13 1 11 0;
#X connect 13 1 16 0;
#X connect 13 2 10 0;
#X connect 13 2 17 0;
#X connect 13 3 14 0;
#X connect 13 3 18 0;
#X connect 13 3 21 0;
#X connect 19 0 13 0;
#X connect 21 0 0 1;
#X connect 22 0 23 0;
#X connect 23 0 0 0;
#X connect 24 0 0 1;
#X connect 25 0 47 1;
#X connect 26 0 0 0;
#X connect 28 0 29 0;
#X connect 29 0 35 0;
#X connect 30 0 28 0;
#X connect 31 0 37 0;
#X connect 32 0 6 0;
#X connect 33 0 34 0;
#X connect 34 0 31 1;
#X connect 35 0 36 0;
#X connect 36 0 31 0;
#X connect 36 0 43 0;
#X connect 37 0 38 0;
#X connect 37 0 39 0;
#X connect 37 0 40 0;
#X connect 38 0 2 0;
#X connect 39 0 2 0;
#X connect 40 0 25 0;
#X connect 41 0 28 0;
#X connect 41 0 34 0;
#X connect 41 0 82 0;
#X connect 42 0 2 0;
#X connect 43 0 45 0;
#X connect 44 0 42 1;
#X connect 45 0 42 0;
#X connect 45 0 72 0;
#X connect 46 0 42 1;
#X connect 47 0 49 0;
#X connect 47 1 53 0;
#X connect 48 0 51 0;
#X connect 49 0 48 0;
#X connect 49 0 50 0;
#X connect 49 1 43 1;
#X connect 49 1 56 1;
#X connect 49 1 69 0;
#X connect 49 1 84 0;
#X connect 49 1 88 0;
#X connect 51 0 47 0;
#X connect 52 0 48 0;
#X connect 52 1 56 0;
#X connect 52 1 58 0;
#X connect 53 0 54 0;
#X connect 53 1 52 0;
#X connect 54 0 55 0;
#X connect 55 0 48 0;
#X connect 56 0 57 0;
#X connect 56 0 77 0;
#X connect 57 0 73 0;
#X connect 57 0 90 0;
#X connect 58 0 43 0;
#X connect 58 1 70 0;
#X connect 62 0 63 1;
#X connect 62 0 74 1;
#X connect 63 0 66 0;
#X connect 63 0 93 0;
#X connect 63 0 103 4;
#X connect 64 0 59 0;
#X connect 64 0 65 0;
#X connect 64 0 77 1;
#X connect 64 0 86 1;
#X connect 65 0 63 0;
#X connect 68 0 82 0;
#X connect 68 1 22 4;
#X connect 70 0 43 2;
#X connect 71 0 42 0;
#X connect 72 1 71 0;
#X connect 73 0 71 1;
#X connect 74 0 76 0;
#X connect 75 0 76 1;
#X connect 75 0 80 0;
#X connect 75 0 81 0;
#X connect 76 0 75 0;
#X connect 77 0 78 0;
#X connect 77 0 81 1;
#X connect 79 0 77 0;
#X connect 80 0 86 0;
#X connect 81 0 82 0;
#X connect 82 0 76 1;
#X connect 82 0 83 0;
#X connect 83 0 22 0;
#X connect 84 0 85 0;
#X connect 85 0 92 0;
#X connect 85 0 103 0;
#X connect 86 0 42 0;
#X connect 88 0 22 3;
#X connect 88 0 101 0;
#X connect 89 0 74 0;
#X connect 90 0 68 0;
#X connect 91 0 43 1;
#X connect 92 0 102 0;
#X connect 93 0 67 0;
#X connect 93 0 88 1;
#X connect 93 0 90 1;
#X connect 94 0 54 0;
#X connect 95 0 41 0;
#X connect 95 0 54 0;
#X connect 96 0 74 0;
#X connect 97 0 98 0;
#X connect 98 0 96 0;
#X connect 102 0 43 0;
#X connect 102 1 91 0;
#X connect 102 2 43 2;
#X connect 103 0 23 0;
