#N canvas 496 318 1047 557 10;
#X obj 14 415 s_playtable;
#X obj 579 122 % 16;
#X obj 558 259 r mspb;
#X obj 554 339 s monome.led;
#X obj 579 87 t f b b;
#X msg 581 184 \$1 2;
#X msg 618 184 reset;
#X obj 579 151 t f b;
#X obj 576 33 inlet;
#X text 613 31 beat;
#X obj 12 -52 r monome.press;
#X obj 12 -28 puma.press.mono 0 0 16 \$1;
#X obj -51 328 print;
#X floatatom -170 99 8 0 0 1 duration_in_samples - -;
#X floatatom -194 119 8 0 0 1 duration_in_ms - -;
#X symbolatom -224 139 12 0 0 1 table_name - -;
#X obj -224 56 unpack s f f f;
#X floatatom -143 79 6 0 0 1 samplerate - -;
#X obj -235 188 outlet;
#X obj -183 189 outlet;
#X obj -129 190 outlet;
#X obj -70 191 outlet;
#X obj -218 -39 inlet;
#X text -179 -38 u_record info;
#X obj 434 300 puma.led.monot 0 \$1 16 1;
#X obj 590 302 puma.led.blink 0 \$1 16 1;
#X obj 6 219 bng 15 250 50 0 empty empty empty 17 7 0 10 -262144 -1
-1;
#X msg -111 263 sr \$1;
#X obj 1 297 pack s 1 1 0 1000;
#X msg 0 324 \$1 \$2 \$3 \$4 \$5;
#X floatatom 156 148 5 0 0 0 - - -;
#X obj 201 121 div 16;
#X obj 201 147 * 16;
#X text 240 118 gridlength;
#X text 231 149 roundto;
#X floatatom 163 177 5 0 0 0 - - -;
#X obj 117 154 * 1;
#X floatatom 70 192 5 0 0 0 - - -;
#X obj 150 197 r mspb;
#X obj 183 36 unpack f f;
#X obj 114 217 * 50;
#X obj 156 229 * 50;
#X obj 248 61 select 1;
#X msg 234 263 stop;
#X obj 183 76 t b b;
#X obj 133 272 - 100;
#X msg 184 13 \$2 \$1;
#X obj 130 388 pack s 1 1 0 f;
#X obj 78 442 bng 15 250 50 0 empty empty empty 17 7 0 10 -262144 -1
-1;
#X obj 12 451 outlet~;
#X obj 183 -7 puma.press.switch 0 \$1 16 1;
#X obj 171 -131 f \$1;
#X obj 171 -108 - 1;
#X obj 171 -152 loadbang;
#X obj 343 -150 inlet;
#X obj 196 -67 pack f f;
#X msg 184 -30 coords 0 \$1 \$2 1;
#X connect 0 0 49 0;
#X connect 0 1 48 0;
#X connect 1 0 7 0;
#X connect 2 0 24 1;
#X connect 4 0 1 0;
#X connect 5 0 25 0;
#X connect 6 0 25 1;
#X connect 7 0 5 0;
#X connect 7 0 24 0;
#X connect 7 1 6 0;
#X connect 8 0 4 0;
#X connect 8 0 31 0;
#X connect 10 0 11 0;
#X connect 10 0 50 0;
#X connect 16 0 15 0;
#X connect 16 0 18 0;
#X connect 16 0 28 0;
#X connect 16 0 47 0;
#X connect 16 1 14 0;
#X connect 16 1 19 0;
#X connect 16 2 13 0;
#X connect 16 2 20 0;
#X connect 16 3 17 0;
#X connect 16 3 21 0;
#X connect 16 3 27 0;
#X connect 22 0 16 0;
#X connect 24 0 3 0;
#X connect 25 0 3 0;
#X connect 26 0 28 0;
#X connect 27 0 0 1;
#X connect 28 0 29 0;
#X connect 29 0 12 0;
#X connect 29 0 0 0;
#X connect 31 0 30 0;
#X connect 31 0 32 0;
#X connect 31 0 36 1;
#X connect 32 0 35 0;
#X connect 32 0 41 0;
#X connect 36 0 37 0;
#X connect 36 0 40 0;
#X connect 38 0 40 1;
#X connect 38 0 41 1;
#X connect 39 0 42 0;
#X connect 39 1 36 0;
#X connect 40 0 28 3;
#X connect 40 0 45 1;
#X connect 41 0 45 0;
#X connect 41 0 47 4;
#X connect 42 0 44 0;
#X connect 42 1 43 0;
#X connect 43 0 0 1;
#X connect 44 0 26 0;
#X connect 44 1 41 0;
#X connect 45 0 28 4;
#X connect 46 0 39 0;
#X connect 47 0 0 0;
#X connect 48 0 47 0;
#X connect 50 0 46 0;
#X connect 51 0 52 0;
#X connect 52 0 55 0;
#X connect 53 0 51 0;
#X connect 54 0 31 1;
#X connect 54 0 32 1;
#X connect 54 0 55 1;
#X connect 55 0 56 0;
#X connect 56 0 50 0;
