#N canvas 895 192 912 731 10;
#X obj -230 138 openpanel;
#X text -190 86 load a file from the hard drive;
#X obj -271 88 inlet;
#X obj -236 320 soundfiler;
#X obj -56 183 \$0;
#X msg -234 186 set read -resize;
#X msg -46 207 add \$1_Ksample;
#X obj -125 185 symbol \$1;
#X msg -120 208 add2 \$1;
#X obj -230 163 t b b b b;
#X msg -236 241 read -resize /Users/kaos/Documents/kaosbeat/monome/kaosslicer/sfx/bank3/003_conductorsandfluxes.wav
1662_Ksample \;;
#X obj -106 299 print;
#X obj -227 566 s_playtable;
#X obj -232 457 \$0;
#X obj 113 149 bng 15 250 50 0 empty empty empty 17 7 0 10 -262144
-1 -1;
#X obj -176 445 f 1;
#X obj -203 456 f 1;
#X floatatom -140 416 10 0 0 0 - - -;
#X text -207 440 gain;
#X text -182 429 pitch;
#X text -153 441 start;
#X text -114 438 stop;
#X msg -227 523 \$1_Ksample \$2 \$3 \$4 \$5;
#X floatatom -176 414 5 0 0 0 - - -;
#N canvas 0 22 450 300 (subpatch) 0;
#X array \$0_Ksample 88200 float 2;
#X coords 0 1 88200 -1 200 140 1;
#X restore 184 145 graph;
#X msg -106 493 sr 44100;
#X obj -227 603 outlet~;
#X obj 116 110 bng 15 250 50 0 empty empty empty 17 7 0 10 -262144
-1 -1;
#X obj 133 149 tgl 15 0 empty empty empty 17 7 0 10 -262144 -1 -1 1
1;
#X obj -147 566 spigot;
#X obj -226 493 pack 1 1 1 0 2000;
#X connect 0 0 7 1;
#X connect 0 0 9 0;
#X connect 2 0 14 0;
#X connect 4 0 6 0;
#X connect 5 0 10 0;
#X connect 6 0 10 0;
#X connect 7 0 8 0;
#X connect 8 0 10 0;
#X connect 8 0 11 0;
#X connect 9 0 10 0;
#X connect 9 1 4 0;
#X connect 9 2 7 0;
#X connect 9 3 5 0;
#X connect 10 0 3 0;
#X connect 12 0 26 0;
#X connect 12 1 29 0;
#X connect 13 0 30 0;
#X connect 14 0 13 0;
#X connect 15 0 30 2;
#X connect 16 0 30 1;
#X connect 17 0 30 3;
#X connect 22 0 12 0;
#X connect 23 0 15 0;
#X connect 25 0 12 1;
#X connect 27 0 13 0;
#X connect 27 0 0 0;
#X connect 27 0 25 0;
#X connect 28 0 29 1;
#X connect 29 0 13 0;
#X connect 30 0 22 0;
#X coords 0 -1 1 1 300 200 1 100 100;
