#N canvas 124 155 1344 773 10;
#X obj 14 415 s_playtable;
#X obj 558 259 r mspb;
#X obj 570 538 s monome.led;
#X obj 579 87 t f b b;
#X msg 581 184 \$1 2;
#X msg 618 184 reset;
#X obj 579 151 t f b;
#X obj 576 33 inlet;
#X text 613 31 beat;
#X obj -23 -138 r monome.press;
#X floatatom -170 99 8 0 0 1 duration_in_samples - -;
#X floatatom -197 118 8 0 0 1 duration_in_ms - -;
#X symbolatom -224 139 12 0 0 1 table_name - -;
#X obj -224 56 unpack s f f f;
#X floatatom -143 79 6 0 0 1 samplerate - -;
#X obj -235 188 outlet;
#X obj -183 189 outlet;
#X obj -129 190 outlet;
#X obj -70 191 outlet;
#X obj -218 -39 inlet;
#X text -179 -38 u_record info;
#X obj 6 219 bng 15 250 50 0 empty empty empty 17 7 0 10 -262144 -1
-1;
#X msg -111 263 sr \$1;
#X obj 1 297 pack s 1 1 0 1000;
#X msg 0 324 \$1 \$2 \$3 \$4 \$5;
#X floatatom 156 148 5 0 0 0 - - -;
#X text 240 118 gridlength;
#X text 231 149 roundto;
#X floatatom 163 177 5 0 0 0 - - -;
#X obj 117 154 * 1;
#X floatatom 70 192 5 0 0 0 - - -;
#X obj 150 197 r mspb;
#X obj 183 40 unpack f f;
#X obj 114 217 * 50;
#X obj 156 229 * 50;
#X obj 141 70 select 1;
#X msg 234 263 stop;
#X obj 131 118 t b b;
#X obj 133 272 - 100;
#X msg 184 17 \$2 \$1;
#X obj 130 388 pack s 1 1 0 f;
#X obj 78 442 bng 15 250 50 0 empty empty empty 17 7 0 10 -262144 -1
-1;
#X obj 12 451 outlet~;
#X obj 171 -132 f \$1;
#X obj 171 -112 - 1;
#X obj 171 -152 loadbang;
#X obj 184 -51 pack f f;
#X obj 201 121 div 8;
#X obj 201 147 * 8;
#X obj 579 122 % 8;
#X obj 230 -152 loadbang;
#X obj 229 -129 f 8;
#X obj 171 -92 * 2;
#X obj 171 -71 + 1;
#X msg 184 -26 coords \$1 0 1 \$2;
#X obj 434 300 puma.led.monot 3 0 1 8;
#X obj 590 302 puma.led.blink 3 0 1 8;
#X obj 184 -5 puma.press.switch 1 0 1 8;
#X obj 117 -145 bng 15 250 50 0 empty empty empty 17 7 0 10 -262144
-1 -1;
#X obj 717 485 print duh;
#X obj 803 -130 puma.press.switch 1 0 1 8;
#X obj 805 -93 unpack f f;
#X obj 816 34 pack;
#X obj 784 -52 gate 2;
#X obj 858 -67 + 1;
#X obj 787 441 puma.led.slider 0 0 0 0;
#X obj 811 119 pack f f f;
#X obj 772 -18 - 1;
#X obj 772 23 t f b;
#X msg 932 394 redraw;
#X msg 786 410 coords \$1 \$2 3 \$3;
#X obj 772 2 + 1;
#X obj 618 -108 puma.press.switch 1 0 1 8;
#X obj 662 -2 spigot;
#X floatatom 660 28 5 0 0 0 - - -;
#X obj 693 -26 tgl 15 0 empty empty empty 17 7 0 10 -262144 -1 -1 1
1;
#X obj 896 -66 select 0;
#X obj 929 44 bng 15 250 50 0 empty empty empty 17 7 0 10 -262144 -1
-1;
#X msg 964 326 clear;
#X obj 827 199 bng 15 250 50 0 empty empty empty 17 7 0 10 -262144
-1 -1;
#X obj 694 -72 t f f;
#X floatatom 706 29 5 0 0 0 - - -;
#X floatatom 718 -16 5 0 0 0 - - -;
#X connect 0 0 42 0;
#X connect 0 1 41 0;
#X connect 1 0 55 1;
#X connect 3 0 49 0;
#X connect 4 0 56 0;
#X connect 5 0 56 1;
#X connect 6 0 4 0;
#X connect 6 0 55 0;
#X connect 6 1 5 0;
#X connect 7 0 3 0;
#X connect 7 0 47 0;
#X connect 9 0 57 0;
#X connect 9 0 60 0;
#X connect 9 0 72 0;
#X connect 13 0 12 0;
#X connect 13 0 15 0;
#X connect 13 0 23 0;
#X connect 13 0 40 0;
#X connect 13 1 11 0;
#X connect 13 1 16 0;
#X connect 13 2 10 0;
#X connect 13 2 17 0;
#X connect 13 3 14 0;
#X connect 13 3 18 0;
#X connect 13 3 22 0;
#X connect 19 0 13 0;
#X connect 21 0 23 0;
#X connect 22 0 0 1;
#X connect 23 0 24 0;
#X connect 24 0 0 0;
#X connect 29 0 30 0;
#X connect 29 0 33 0;
#X connect 31 0 33 1;
#X connect 31 0 34 1;
#X connect 32 0 35 0;
#X connect 32 1 29 0;
#X connect 33 0 23 3;
#X connect 33 0 38 1;
#X connect 34 0 38 0;
#X connect 34 0 40 4;
#X connect 35 0 37 0;
#X connect 35 1 36 0;
#X connect 36 0 0 1;
#X connect 37 0 21 0;
#X connect 37 1 34 0;
#X connect 38 0 23 4;
#X connect 39 0 32 0;
#X connect 40 0 0 0;
#X connect 41 0 40 0;
#X connect 43 0 44 0;
#X connect 44 0 52 0;
#X connect 45 0 43 0;
#X connect 46 0 54 0;
#X connect 47 0 25 0;
#X connect 47 0 29 1;
#X connect 47 0 48 0;
#X connect 48 0 28 0;
#X connect 48 0 34 0;
#X connect 49 0 6 0;
#X connect 50 0 51 0;
#X connect 51 0 46 1;
#X connect 52 0 53 0;
#X connect 53 0 46 0;
#X connect 53 0 66 0;
#X connect 54 0 55 0;
#X connect 54 0 56 0;
#X connect 54 0 57 0;
#X connect 55 0 2 0;
#X connect 56 0 2 0;
#X connect 57 0 39 0;
#X connect 58 0 43 0;
#X connect 60 0 61 0;
#X connect 60 0 80 0;
#X connect 60 0 59 0;
#X connect 61 0 63 1;
#X connect 61 1 64 0;
#X connect 61 1 76 0;
#X connect 63 0 62 0;
#X connect 63 0 66 1;
#X connect 63 0 67 1;
#X connect 63 1 66 2;
#X connect 63 1 67 0;
#X connect 63 1 62 1;
#X connect 64 0 63 0;
#X connect 65 0 2 0;
#X connect 66 0 70 0;
#X connect 66 0 79 0;
#X connect 67 0 71 0;
#X connect 68 0 65 0;
#X connect 68 1 66 0;
#X connect 69 0 65 1;
#X connect 70 0 65 0;
#X connect 71 0 68 0;
#X connect 72 0 73 0;
#X connect 73 0 74 0;
#X connect 75 0 73 1;
#X connect 76 0 69 0;
#X connect 76 0 77 0;
#X connect 76 1 78 0;
#X connect 78 0 65 1;
#X connect 80 0 81 0;
#X connect 80 1 75 0;
