#N canvas 1035 247 450 300 10;
#X obj 5 90 metro;
#X obj 4 110 float 0;
#X obj 4 133 + 1;
#X floatatom 4 157 5 0 0 0 - - -;
#X obj 4 177 % 8;
#X floatatom 141 134 5 0 0 0 - - -;
#X obj 6 5 loadbang;
#X obj 98 2 r bpm;
#X obj 70 52 / 120;
#X obj 70 74 * 1000;
#X obj 53 27 f 60;
#X floatatom 130 51 5 0 0 0 - - -;
#X obj 65 2 bng 15 250 50 0 empty empty empty 17 7 0 10 -262144 -1
-1;
#X obj 107 118 tgl 30 0 empty empty empty 17 7 0 10 -258113 -1 -1 1
1;
#X obj 148 221 s masterbeat;
#X obj 4 199 + 1;
#X floatatom 70 118 5 0 0 0 - - -;
#X obj 70 97 s mspb;
#X obj 231 221 s masterclock;
#X obj 7 53 f 1;
#X connect 0 0 1 0;
#X connect 1 0 2 0;
#X connect 2 0 3 0;
#X connect 2 0 1 1;
#X connect 3 0 4 0;
#X connect 3 0 18 0;
#X connect 4 0 15 0;
#X connect 5 0 14 0;
#X connect 6 0 10 0;
#X connect 6 0 0 0;
#X connect 6 0 19 0;
#X connect 7 0 8 1;
#X connect 7 0 11 0;
#X connect 7 0 12 0;
#X connect 8 0 9 0;
#X connect 9 0 0 1;
#X connect 9 0 16 0;
#X connect 9 0 17 0;
#X connect 10 0 8 0;
#X connect 12 0 10 0;
#X connect 13 0 0 0;
#X connect 15 0 5 0;
#X connect 19 0 13 0;
#X coords 0 -1 1 1 85 60 1 100 100;
