#N canvas 553 230 352 325 10;
#X obj 14 127 inlet~;
#X obj 12 37 vsl 10 50 0 127 0 0 empty empty cut 0 -9 0 10 -4034 -1
-1 0 1;
#X obj 61 38 vsl 10 50 1 4 0 0 empty empty gain 0 -9 0 10 -4032 -1
-1 0 1;
#X obj 14 244 outlet~;
#X obj 14 212 *~ 1;
#X obj 15 174 vcf~;
#X obj 64 143 sig~;
#X obj 68 116 mtof;
#X obj 36 37 vsl 10 50 0.01 10 0 0 empty empty rez 0 -9 0 10 -260097
-1 -1 0 1;
#X obj 124 136 metro 100;
#X obj 123 46 tgl 15 0 empty empty rnd 0 -6 0 10 -262144 -1 -1 0 1
;
#X obj 96 38 vsl 10 50 10 5000 0 0 empty empty speed 0 -9 0 10 -257985
-1 -1 0 1;
#X obj 124 169 random 127;
#X floatatom 120 74 5 0 0 0 - - -;
#X obj 124 194 pack 0 1;
#X obj 124 220 line;
#X obj 159 37 vsl 10 50 1 5000 0 0 empty empty smooth 0 -9 0 10 -257985
-1 -1 0 1;
#X text 72 -1 bp vcf random filter;
#X connect 0 0 5 0;
#X connect 1 0 7 0;
#X connect 2 0 4 1;
#X connect 4 0 3 0;
#X connect 5 0 4 0;
#X connect 6 0 5 1;
#X connect 7 0 6 0;
#X connect 8 0 5 2;
#X connect 9 0 12 0;
#X connect 10 0 9 0;
#X connect 11 0 9 1;
#X connect 11 0 13 0;
#X connect 12 0 14 0;
#X connect 14 0 15 0;
#X connect 15 0 1 0;
#X connect 16 0 14 1;
#X coords 0 -1 1 1 200 100 1 0 0;
