#N canvas 377 109 471 404 10;
#X obj 161 47 inlet~;
#X obj 162 202 *~;
#X obj 212 203 *~;
#X obj 163 275 *~;
#X obj 213 276 *~;
#X obj 52 20 vsl 10 50 0 1 0 0 empty empty empty 0 -9 0 10 -258113
-1 -1 0 1;
#X obj 227 128 pack 0 50;
#X obj 227 158 line~;
#X obj 261 253 line~;
#X obj 261 225 pack 0 10;
#X msg 6 258 start;
#X msg 52 259 stop;
#X obj 6 293 writesf~ 2;
#X obj 211 48 inlet~;
#X obj 6 58 bng 15 250 50 1 empty empty R 5 7 0 10 -258113 -1 -1;
#X obj 27 58 bng 15 250 50 0 empty empty S 5 7 0 10 -4034 -1 -1;
#X obj 6 14 tgl 15 0 empty empty mute 17 7 0 10 -262144 -1 -1 0 1;
#X obj 175 319 dac~;
#X obj 6 36 bng 15 250 50 0 empty empty rec 17 7 0 10 -262144 -1 -1
;
#X obj 6 150 savepanel;
#X msg 6 177 open \$1;
#X text 258 46 input;
#X text -53 280 recorder;
#X text 151 10 stereo master output with file recording;
#X text 246 195 master stereo slider;
#X text 257 274 master mute;
#X text 236 318 outpu;
#X connect 0 0 1 0;
#X connect 1 0 3 0;
#X connect 2 0 4 0;
#X connect 3 0 12 0;
#X connect 3 0 17 0;
#X connect 4 0 12 1;
#X connect 4 0 17 1;
#X connect 5 0 6 0;
#X connect 6 0 7 0;
#X connect 7 0 2 1;
#X connect 7 0 1 1;
#X connect 8 0 4 1;
#X connect 8 0 3 1;
#X connect 9 0 8 0;
#X connect 10 0 12 0;
#X connect 11 0 12 0;
#X connect 13 0 2 0;
#X connect 14 0 10 0;
#X connect 15 0 11 0;
#X connect 16 0 9 0;
#X connect 18 0 19 0;
#X connect 19 0 20 0;
#X connect 20 0 12 0;
#X coords 0 -1 1 1 80 80 2 0 0;
