#N canvas 0 24 1012 491 10;
#X obj 6 214 inlet~;
#X obj 7 337 *~;
#X obj 57 338 *~;
#X obj 59 198 * -1;
#X obj 59 223 + 1;
#X obj 20 289 line~;
#X obj 80 289 line~;
#X obj 8 372 *~;
#X obj 58 373 *~;
#X obj 8 397 *~;
#X obj 58 398 *~;
#X obj 10 119 tgl 15 0 empty empty m 17 7 0 10 -262144 -1 -1 0 1;
#X obj 37 87 vsl 10 50 0 1 0 0 empty empty vol 0 -9 0 10 -4160 -1 -1
0 1;
#X obj 101 343 line~;
#X obj 150 381 line~;
#X obj 150 353 pack 0 10;
#X text 173 329 slider;
#X text 200 379 mute;
#X obj 155 255 line~;
#X obj 154 292 *~;
#X obj 204 293 *~;
#X obj 225 255 line~;
#X obj 155 227 pack 0 20;
#X obj 225 227 pack 0 20;
#X obj 101 315 pack 0 20;
#X obj 80 261 pack 0 20;
#X obj 20 261 pack 0 20;
#X obj 6 29 knob 20 20 0 1 0 0 empty empty delay 0 -8 0 8 -262144 -1
-1 0 1;
#X obj 31 43 knob 20 20 0 1 0 0 empty empty reverb 0 -8 0 8 -4034 -1
-1 0 1;
#X obj 9 86 knob 20 20 0 1 0 0 empty empty pan 0 -8 0 8 -4034 -1 -1
0 1;
#X obj 316 214 inlet~;
#X obj 317 337 *~;
#X obj 367 338 *~;
#X obj 369 198 * -1;
#X obj 369 223 + 1;
#X obj 330 289 line~;
#X obj 390 289 line~;
#X obj 318 372 *~;
#X obj 368 373 *~;
#X obj 318 397 *~;
#X obj 368 398 *~;
#X obj 70 119 tgl 15 0 empty empty m 17 7 0 10 -262144 -1 -1 0 1;
#X obj 97 87 vsl 10 50 0 1 0 0 empty empty vol 0 -9 0 10 -4160 -1 -1
0 1;
#X obj 411 343 line~;
#X obj 460 381 line~;
#X obj 460 353 pack 0 10;
#X text 483 329 slider;
#X text 510 379 mute;
#X obj 465 255 line~;
#X obj 464 292 *~;
#X obj 514 293 *~;
#X obj 535 255 line~;
#X obj 465 227 pack 0 20;
#X obj 535 227 pack 0 20;
#X obj 411 315 pack 0 20;
#X obj 390 261 pack 0 20;
#X obj 330 261 pack 0 20;
#X obj 66 29 knob 20 20 0 1 0 0 empty empty delay 0 -8 0 8 -262144
-1 -1 0 1;
#X obj 91 43 knob 20 20 0 1 0 0 empty empty reverb 0 -8 0 8 -4034 -1
-1 0 1;
#X obj 69 86 knob 20 20 0 1 0 0 empty empty pan 0 -8 0 8 -4034 -1 -1
0 1;
#X obj 616 214 inlet~;
#X obj 617 337 *~;
#X obj 667 338 *~;
#X obj 669 198 * -1;
#X obj 669 223 + 1;
#X obj 630 289 line~;
#X obj 690 289 line~;
#X obj 618 372 *~;
#X obj 668 373 *~;
#X obj 618 397 *~;
#X obj 668 398 *~;
#X obj 130 119 tgl 15 0 empty empty m 17 7 0 10 -262144 -1 -1 0 1;
#X obj 157 87 vsl 10 50 0 1 0 0 empty empty vol 0 -9 0 10 -4160 -1
-1 0 1;
#X obj 711 343 line~;
#X obj 760 381 line~;
#X obj 760 353 pack 0 10;
#X text 783 329 slider;
#X text 810 379 mute;
#X obj 765 255 line~;
#X obj 764 292 *~;
#X obj 814 293 *~;
#X obj 835 255 line~;
#X obj 765 227 pack 0 20;
#X obj 835 227 pack 0 20;
#X obj 711 315 pack 0 20;
#X obj 690 261 pack 0 20;
#X obj 630 261 pack 0 20;
#X obj 126 29 knob 20 20 0 1 0 0 empty empty delay 0 -8 0 8 -262144
-1 -1 0 1;
#X obj 151 43 knob 20 20 0 1 0 0 empty empty reverb 0 -8 0 8 -4034
-1 -1 0 1;
#X obj 129 86 knob 20 20 0 1 0 0 empty empty pan 0 -8 0 8 -4034 -1
-1 0 1;
#X obj 916 214 inlet~;
#X obj 917 337 *~;
#X obj 967 338 *~;
#X obj 969 198 * -1;
#X obj 969 223 + 1;
#X obj 930 289 line~;
#X obj 990 289 line~;
#X obj 918 372 *~;
#X obj 968 373 *~;
#X obj 918 397 *~;
#X obj 968 398 *~;
#X obj 190 119 tgl 15 0 empty empty m 17 7 0 10 -262144 -1 -1 0 1;
#X obj 217 87 vsl 10 50 0 1 0 0 empty empty vol 0 -9 0 10 -4160 -1
-1 0 1;
#X obj 1011 343 line~;
#X obj 1060 381 line~;
#X obj 1060 353 pack 0 10;
#X text 1083 329 slider;
#X text 1110 379 mute;
#X obj 1065 255 line~;
#X obj 1064 292 *~;
#X obj 1114 293 *~;
#X obj 1135 255 line~;
#X obj 1065 227 pack 0 20;
#X obj 1135 227 pack 0 20;
#X obj 1011 315 pack 0 20;
#X obj 990 261 pack 0 20;
#X obj 930 261 pack 0 20;
#X obj 186 29 knob 20 20 0 1 0 0 empty empty delay 0 -8 0 8 -262144
-1 -1 0 1;
#X obj 211 43 knob 20 20 0 1 0 0 empty empty reverb 0 -8 0 8 -4034
-1 -1 0 1;
#X obj 189 86 knob 20 20 0 1 0 0 empty empty pan 0 -8 0 8 -4034 -1
-1 0 1;
#X obj 1226 214 inlet~;
#X obj 1227 337 *~;
#X obj 1277 338 *~;
#X obj 1279 198 * -1;
#X obj 1279 223 + 1;
#X obj 1240 289 line~;
#X obj 1300 289 line~;
#X obj 1228 372 *~;
#X obj 1278 373 *~;
#X obj 1228 397 *~;
#X obj 1278 398 *~;
#X obj 250 119 tgl 15 0 empty empty m 17 7 0 10 -262144 -1 -1 0 1;
#X obj 277 87 vsl 10 50 0 1 0 0 empty empty vol 0 -9 0 10 -4160 -1
-1 0 1;
#X obj 1321 343 line~;
#X obj 1370 381 line~;
#X obj 1370 353 pack 0 10;
#X text 1393 329 slider;
#X text 1420 379 mute;
#X obj 1375 255 line~;
#X obj 1374 292 *~;
#X obj 1424 293 *~;
#X obj 1445 255 line~;
#X obj 1375 227 pack 0 20;
#X obj 1445 227 pack 0 20;
#X obj 1321 315 pack 0 20;
#X obj 1300 261 pack 0 20;
#X obj 1240 261 pack 0 20;
#X obj 246 29 knob 20 20 0 1 0 0 empty empty delay 0 -8 0 8 -262144
-1 -1 0 1;
#X obj 271 43 knob 20 20 0 1 0 0 empty empty reverb 0 -8 0 8 -4034
-1 -1 0 1;
#X obj 249 86 knob 20 20 0 1 0 0 empty empty pan 0 -8 0 8 -4034 -1
-1 0 1;
#X obj 1526 214 inlet~;
#X obj 1527 337 *~;
#X obj 1577 338 *~;
#X obj 1579 198 * -1;
#X obj 1579 223 + 1;
#X obj 1540 289 line~;
#X obj 1600 289 line~;
#X obj 1528 372 *~;
#X obj 1578 373 *~;
#X obj 1527 397 *~;
#X obj 1578 398 *~;
#X obj 310 119 tgl 15 0 empty empty m 17 7 0 10 -262144 -1 -1 0 1;
#X obj 337 87 vsl 10 50 0 1 0 0 empty empty vol 0 -9 0 10 -4160 -1
-1 0 1;
#X obj 1621 343 line~;
#X obj 1670 381 line~;
#X obj 1670 353 pack 0 10;
#X text 1693 329 slider;
#X text 1720 379 mute;
#X obj 1675 255 line~;
#X obj 1674 292 *~;
#X obj 1724 293 *~;
#X obj 1745 255 line~;
#X obj 1675 227 pack 0 20;
#X obj 1745 227 pack 0 20;
#X obj 1621 315 pack 0 20;
#X obj 1600 261 pack 0 20;
#X obj 1540 261 pack 0 20;
#X obj 306 29 knob 20 20 0 1 0 0 empty empty delay 0 -8 0 8 -262144
-1 -1 0 1;
#X obj 331 43 knob 20 20 0 1 0 0 empty empty reverb 0 -8 0 8 -13381
-1 -1 0 1;
#X obj 309 86 knob 20 20 0 1 0 0 empty empty pan 0 -8 0 8 -4034 -1
-1 0 1;
#N canvas 9 103 628 451 delay 0;
#X obj 48 169 inlet~;
#X obj 82 401 outlet~;
#X obj 141 400 outlet~;
#X obj 44 312 *~ 0.3;
#X obj 212 275 *~ 0.3;
#X obj 106 37 vsl 10 50 0 1 0 0 empty empty fb 0 -9 0 10 -258113 -1
-1 0 1;
#X obj 5 37 vsl 10 50 0 2000 0 0 empty empty time 0 -9 0 10 -4032 -1
-1 0 1;
#X obj 22 37 vsl 10 50 0 2000 0 0 empty empty empty 0 -9 0 10 -4034
-1 -1 0 1;
#X obj 195 13 ctlin 2;
#X obj 195 40 / 127;
#X obj 195 72 pack 0 50;
#X obj 195 110 line;
#X obj 49 210 delwrite~ \$0-del 5000;
#X obj 229 210 delwrite~ \$0-del2 5000;
#X obj 212 240 delread~ \$0-del2 \$2;
#X obj 44 277 delread~ \$0-del \$1;
#X obj 43 35 nbx 5 14 1 5000 0 0 empty empty time_ms 0 -8 0 10 -262144
-1 -1 1 256;
#X obj 43 54 nbx 5 14 1 5000 0 0 empty empty empty 0 -8 0 10 -262144
-1 -1 1 256;
#X obj 301 98 /;
#X obj 43 83 nbx 5 14 0 1000 0 0 empty empty bmp 0 -8 0 10 -262144
-1 -1 0 256;
#X msg 317 67 60000;
#X obj 320 37 t f b;
#X obj 84 342 hip~ 20;
#X obj 82 367 hip~ 20;
#X obj 142 344 hip~ 20;
#X obj 140 369 hip~ 20;
#X obj 341 111 nbx 5 14 -1e+37 1e+37 0 0 empty empty empty 0 -8 0 10
-262144 -1 -1 0 256;
#X obj 341 136 pack 0 50;
#X obj 341 168 line;
#X obj 125 37 vsl 10 50 20 20000 1 0 empty empty hp 0 -9 0 10 -257985
-1 -1 0 1;
#X connect 0 0 12 0;
#X connect 0 0 13 0;
#X connect 3 0 12 0;
#X connect 3 0 22 0;
#X connect 4 0 13 0;
#X connect 4 0 24 0;
#X connect 5 0 4 1;
#X connect 5 0 3 1;
#X connect 6 0 16 0;
#X connect 7 0 17 0;
#X connect 8 0 9 0;
#X connect 9 0 10 0;
#X connect 10 0 11 0;
#X connect 11 0 5 0;
#X connect 14 0 4 0;
#X connect 15 0 3 0;
#X connect 16 0 15 0;
#X connect 16 0 21 0;
#X connect 17 0 14 0;
#X connect 18 0 19 0;
#X connect 20 0 18 0;
#X connect 21 0 18 1;
#X connect 21 1 20 0;
#X connect 22 0 23 0;
#X connect 23 0 1 0;
#X connect 24 0 25 0;
#X connect 25 0 2 0;
#X connect 26 0 27 0;
#X connect 27 0 28 0;
#X connect 28 0 22 1;
#X connect 28 0 23 1;
#X connect 28 0 24 1;
#X connect 28 0 25 1;
#X connect 29 0 26 0;
#X coords 0 -1 1 1 150 100 1 0 0;
#X restore 365 47 pd delay;
#N canvas 15 157 450 300 reverb 0;
#X obj 65 190 freeverb~;
#X msg 261 139 roomsize \$1;
#X msg 261 161 damping \$1;
#X msg 261 183 width \$1;
#X obj 64 166 inlet~;
#X obj 64 214 outlet~;
#X obj 117 214 outlet~;
#X obj 261 31 loadbang;
#X msg 261 60 dry 0;
#X msg 259 91 wet 1;
#X obj 7 31 hsl 50 10 0 1.1 0 0 empty empty roomsize -2 -8 0 10 -262144
-1 -1 0 1;
#X obj 8 55 hsl 50 10 0 1 0 0 empty empty damping -2 -8 0 10 -228856
-1 -1 0 1;
#X obj 7 79 hsl 50 10 0 1 0 0 empty empty width -2 -8 0 10 -191407
-1 -1 0 1;
#X connect 0 0 5 0;
#X connect 0 1 6 0;
#X connect 1 0 0 0;
#X connect 2 0 0 0;
#X connect 3 0 0 0;
#X connect 4 0 0 0;
#X connect 7 0 8 0;
#X connect 7 0 9 0;
#X connect 8 0 0 0;
#X connect 9 0 0 0;
#X connect 10 0 1 0;
#X connect 11 0 2 0;
#X coords 0 -1 1 1 70 100 1 0 0;
#X restore 518 47 pd reverb;
#N canvas 3 49 450 300 master 0;
#X obj 166 54 inlet~;
#X obj 172 212 *~;
#X obj 222 213 *~;
#X obj 51 30 vsl 10 50 0 1 0 0 empty empty empty 0 -9 0 10 -258113
-1 -1 0 1;
#X obj 69 119 pack 0 50;
#X obj 69 149 line~;
#X text 136 142 slider;
#X msg -5 234 start;
#X msg 30 293 stop;
#X obj 41 326 writesf~ 2;
#X obj 219 55 inlet~;
#X obj 161 370 env~;
#X obj 225 368 env~;
#X obj 3 69 bng 15 250 50 1 empty empty R 5 7 0 10 -258113 -1 -1;
#X obj 26 68 bng 15 250 50 0 empty empty S 5 7 0 10 -4034 -1 -1;
#X obj 66 30 vsl 10 50 0 100 0 0 empty empty empty 0 -9 0 10 -204786
-1 -1 0 1;
#X obj 80 30 vsl 10 50 0.01 100 0 0 empty empty empty 0 -9 0 10 -204786
-1 -1 0 1;
#X obj 185 329 dac~;
#X obj 5 46 bng 15 250 50 0 empty empty rec 17 7 0 10 -262144 -1 -1
;
#X obj 44 240 savepanel;
#X msg 63 268 open \$1;
#X connect 0 0 1 0;
#X connect 1 0 9 0;
#X connect 1 0 17 0;
#X connect 1 0 11 0;
#X connect 2 0 9 1;
#X connect 2 0 17 1;
#X connect 2 0 12 0;
#X connect 3 0 4 0;
#X connect 4 0 5 0;
#X connect 5 0 2 1;
#X connect 5 0 1 1;
#X connect 7 0 9 0;
#X connect 8 0 9 0;
#X connect 10 0 2 0;
#X connect 11 0 15 0;
#X connect 12 0 16 0;
#X connect 13 0 7 0;
#X connect 14 0 8 0;
#X connect 18 0 19 0;
#X connect 19 0 20 0;
#X connect 20 0 9 0;
#X coords 0 -1 1 1 100 100 1 0 0;
#X restore 592 47 pd master;
#X obj 805 21 loadbang;
#X msg 805 48 0.5;
#X text 379 17 6 channel stereo mixer with delay and reverb;
#X connect 0 0 1 0;
#X connect 0 0 2 0;
#X connect 0 0 19 0;
#X connect 0 0 20 0;
#X connect 1 0 7 0;
#X connect 2 0 8 0;
#X connect 3 0 4 0;
#X connect 4 0 26 0;
#X connect 5 0 1 1;
#X connect 6 0 2 1;
#X connect 7 0 9 0;
#X connect 8 0 10 0;
#X connect 9 0 182 0;
#X connect 10 0 182 1;
#X connect 11 0 15 0;
#X connect 12 0 24 0;
#X connect 13 0 8 1;
#X connect 13 0 7 1;
#X connect 14 0 10 1;
#X connect 14 0 9 1;
#X connect 15 0 14 0;
#X connect 18 0 19 1;
#X connect 19 0 180 0;
#X connect 20 0 181 0;
#X connect 21 0 20 1;
#X connect 22 0 18 0;
#X connect 23 0 21 0;
#X connect 24 0 13 0;
#X connect 25 0 6 0;
#X connect 26 0 5 0;
#X connect 27 0 22 0;
#X connect 28 0 23 0;
#X connect 29 0 3 0;
#X connect 29 0 25 0;
#X connect 30 0 31 0;
#X connect 30 0 32 0;
#X connect 30 0 49 0;
#X connect 30 0 50 0;
#X connect 31 0 37 0;
#X connect 32 0 38 0;
#X connect 33 0 34 0;
#X connect 34 0 56 0;
#X connect 35 0 31 1;
#X connect 36 0 32 1;
#X connect 37 0 39 0;
#X connect 38 0 40 0;
#X connect 39 0 182 0;
#X connect 40 0 182 1;
#X connect 41 0 45 0;
#X connect 42 0 54 0;
#X connect 43 0 38 1;
#X connect 43 0 37 1;
#X connect 44 0 40 1;
#X connect 44 0 39 1;
#X connect 45 0 44 0;
#X connect 48 0 49 1;
#X connect 49 0 180 0;
#X connect 50 0 181 0;
#X connect 51 0 50 1;
#X connect 52 0 48 0;
#X connect 53 0 51 0;
#X connect 54 0 43 0;
#X connect 55 0 36 0;
#X connect 56 0 35 0;
#X connect 57 0 52 0;
#X connect 58 0 53 0;
#X connect 59 0 33 0;
#X connect 59 0 55 0;
#X connect 60 0 61 0;
#X connect 60 0 62 0;
#X connect 60 0 79 0;
#X connect 60 0 80 0;
#X connect 61 0 67 0;
#X connect 62 0 68 0;
#X connect 63 0 64 0;
#X connect 64 0 86 0;
#X connect 65 0 61 1;
#X connect 66 0 62 1;
#X connect 67 0 69 0;
#X connect 68 0 70 0;
#X connect 69 0 182 0;
#X connect 70 0 182 1;
#X connect 71 0 75 0;
#X connect 72 0 84 0;
#X connect 73 0 68 1;
#X connect 73 0 67 1;
#X connect 74 0 70 1;
#X connect 74 0 69 1;
#X connect 75 0 74 0;
#X connect 78 0 79 1;
#X connect 79 0 180 0;
#X connect 80 0 181 0;
#X connect 81 0 80 1;
#X connect 82 0 78 0;
#X connect 83 0 81 0;
#X connect 84 0 73 0;
#X connect 85 0 66 0;
#X connect 86 0 65 0;
#X connect 87 0 82 0;
#X connect 88 0 83 0;
#X connect 89 0 63 0;
#X connect 89 0 85 0;
#X connect 90 0 91 0;
#X connect 90 0 92 0;
#X connect 90 0 109 0;
#X connect 90 0 110 0;
#X connect 91 0 97 0;
#X connect 92 0 98 0;
#X connect 93 0 94 0;
#X connect 94 0 116 0;
#X connect 95 0 91 1;
#X connect 96 0 92 1;
#X connect 97 0 99 0;
#X connect 98 0 100 0;
#X connect 99 0 182 0;
#X connect 100 0 182 1;
#X connect 101 0 105 0;
#X connect 102 0 114 0;
#X connect 103 0 98 1;
#X connect 103 0 97 1;
#X connect 104 0 100 1;
#X connect 104 0 99 1;
#X connect 105 0 104 0;
#X connect 108 0 109 1;
#X connect 109 0 180 0;
#X connect 110 0 181 0;
#X connect 111 0 110 1;
#X connect 112 0 108 0;
#X connect 113 0 111 0;
#X connect 114 0 103 0;
#X connect 115 0 96 0;
#X connect 116 0 95 0;
#X connect 117 0 112 0;
#X connect 118 0 113 0;
#X connect 119 0 93 0;
#X connect 119 0 115 0;
#X connect 120 0 121 0;
#X connect 120 0 122 0;
#X connect 120 0 139 0;
#X connect 120 0 140 0;
#X connect 121 0 127 0;
#X connect 122 0 128 0;
#X connect 123 0 124 0;
#X connect 124 0 146 0;
#X connect 125 0 121 1;
#X connect 126 0 122 1;
#X connect 127 0 129 0;
#X connect 128 0 130 0;
#X connect 129 0 182 0;
#X connect 130 0 182 1;
#X connect 131 0 135 0;
#X connect 132 0 144 0;
#X connect 133 0 128 1;
#X connect 133 0 127 1;
#X connect 134 0 130 1;
#X connect 134 0 129 1;
#X connect 135 0 134 0;
#X connect 138 0 139 1;
#X connect 139 0 180 0;
#X connect 140 0 181 0;
#X connect 141 0 140 1;
#X connect 142 0 138 0;
#X connect 143 0 141 0;
#X connect 144 0 133 0;
#X connect 145 0 126 0;
#X connect 146 0 125 0;
#X connect 147 0 142 0;
#X connect 148 0 143 0;
#X connect 149 0 123 0;
#X connect 149 0 145 0;
#X connect 150 0 151 0;
#X connect 150 0 152 0;
#X connect 150 0 169 0;
#X connect 150 0 170 0;
#X connect 151 0 157 0;
#X connect 152 0 158 0;
#X connect 153 0 154 0;
#X connect 154 0 176 0;
#X connect 155 0 151 1;
#X connect 156 0 152 1;
#X connect 157 0 159 0;
#X connect 158 0 160 0;
#X connect 159 0 182 0;
#X connect 160 0 182 1;
#X connect 161 0 165 0;
#X connect 162 0 174 0;
#X connect 163 0 158 1;
#X connect 163 0 157 1;
#X connect 164 0 160 1;
#X connect 164 0 159 1;
#X connect 165 0 164 0;
#X connect 168 0 169 1;
#X connect 171 0 170 1;
#X connect 172 0 168 0;
#X connect 173 0 171 0;
#X connect 174 0 163 0;
#X connect 175 0 156 0;
#X connect 176 0 155 0;
#X connect 177 0 172 0;
#X connect 178 0 173 0;
#X connect 179 0 153 0;
#X connect 179 0 175 0;
#X connect 180 0 182 0;
#X connect 180 1 182 1;
#X connect 181 0 182 0;
#X connect 181 1 182 1;
#X connect 183 0 184 0;
#X connect 184 0 29 0;
#X connect 184 0 59 0;
#X connect 184 0 89 0;
#X connect 184 0 119 0;
#X connect 184 0 149 0;
#X connect 184 0 179 0;
#X coords 0 -1 1 1 700 150 1 0 0;
