#N canvas 358 200 485 316 10;
#X obj 59 172 inlet~;
#X obj 145 190 osc~;
#X obj 144 161 sig~;
#X obj 58 208 *~;
#X obj 99 208 *~;
#X obj 8 41 vsl 10 50 0 127 0 0 empty empty freq 0 -9 0 10 -258113
-1 -1 0 1;
#X obj 143 135 mtof;
#X obj 100 257 outlet~;
#X obj 149 39 vsl 10 50 0 1 0 0 empty empty dry 0 -9 0 10 -257985 -1
-1 0 1;
#X obj 14 131 pack 0 50;
#X obj 14 158 line~;
#X obj 186 75 metro 100;
#X obj 72 48 tgl 15 0 empty empty rnd 0 -6 0 10 -262144 -1 -1 0 1;
#X obj 45 41 vsl 10 50 10 5000 0 0 empty empty speed 0 -9 0 10 -257985
-1 -1 0 1;
#X obj 186 108 random 127;
#X floatatom 69 76 5 0 0 0 - - -;
#X obj 256 148 pack 0 1;
#X obj 256 174 line;
#X obj 108 39 vsl 10 50 1 5000 0 0 empty empty smooth 0 -9 0 10 -257985
-1 -1 0 1;
#X text 195 18 ring modulation with random frequency;
#X text 267 87 random speeed in milliseconds;
#X text 321 161 smooth (glide);
#X text 22 206 dry;
#X text 189 191 modulation oscillator;
#X connect 0 0 3 0;
#X connect 0 0 4 0;
#X connect 1 0 4 1;
#X connect 2 0 1 0;
#X connect 3 0 7 0;
#X connect 4 0 7 0;
#X connect 5 0 6 0;
#X connect 6 0 2 0;
#X connect 8 0 9 0;
#X connect 9 0 10 0;
#X connect 10 0 3 1;
#X connect 11 0 14 0;
#X connect 12 0 11 0;
#X connect 13 0 11 1;
#X connect 13 0 15 0;
#X connect 14 0 16 0;
#X connect 16 0 17 0;
#X connect 17 0 5 0;
#X connect 18 0 16 1;
#X coords 0 -1 1 1 170 100 1 0 0;
