#N canvas 842 22 838 1006 10;
#X declare -path puma;
#X obj 39 71 r monome.press;
#X obj 88 14 declare -path puma;
#X obj 311 157 print control;
#X obj 312 113 puma.press.mono 4 0 4 4;
#X obj 38 126 puma.press.mono 0 0 1 8;
#X obj 51 148 puma.press.mono 1 0 1 8;
#X obj 69 191 puma.press.mono 3 0 1 8;
#X obj 59 170 puma.press.mono 2 0 1 8;
#X obj 470 111 puma.press.mono 4 4 1 4;
#X obj 40 226 s slicer-0;
#X obj 50 249 s slicer-1;
#X obj 61 270 s slicer-2;
#X obj 68 290 s slicer-3;
#X obj 479 205 s slicecontrol-0;
#X obj 492 227 s slicecontrol-1;
#X obj 483 134 puma.press.mono 5 4 1 4;
#X obj 496 155 puma.press.mono 6 4 1 4;
#X obj 509 178 puma.press.mono 7 4 1 4;
#X obj 505 249 s slicecontrol-2;
#X obj 518 271 s slicecontrol-3;
#X obj 234 735 s monome.led;
#X obj 234 705 puma.led.toggle 4 6 4 1;
#X obj 421 517 select 2;
#X obj 49 585 f 0;
#X obj 313 518 select 2;
#X obj 208 517 select 2;
#X obj 90 548 t b b;
#X obj 89 518 select 2;
#X obj 100 589 tgl 15 0 empty empty empty 17 7 0 10 -262144 -1 -1 1
1;
#X obj 61 620 pack f f;
#X obj 688 92 loadbang;
#X obj 689 130 f 1;
#X obj 57 650 s seqsync-0;
#X obj 44 488 r seqsyncoff-0;
#X obj 61 548 f 0;
#X obj 45 517 t b b;
#X obj 208 548 t b b;
#X obj 218 589 tgl 15 0 empty empty empty 17 7 0 10 -262144 -1 -1 0
1;
#X obj 179 620 pack f f;
#X obj 179 548 f 0;
#X obj 163 517 t b b;
#X obj 175 650 s seqsync-1;
#X obj 167 585 f 1;
#X obj 317 550 t b b;
#X obj 327 591 tgl 15 0 empty empty empty 17 7 0 10 -262144 -1 -1 0
1;
#X obj 288 622 pack f f;
#X obj 288 550 f 0;
#X obj 272 519 t b b;
#X obj 276 587 f 2;
#X obj 284 652 s seqsync-2;
#X obj 162 488 r seqsyncoff-1;
#X obj 271 490 r seqsyncoff-2;
#X obj 424 549 t b b;
#X obj 434 590 tgl 15 0 empty empty empty 17 7 0 10 -262144 -1 -1 1
1;
#X obj 395 621 pack f f;
#X obj 395 549 f 0;
#X obj 379 518 t b b;
#X obj 378 489 r seqsyncoff-3;
#X obj 383 586 f 3;
#X obj 391 651 s seqsync-3;
#X connect 0 0 3 0;
#X connect 0 0 4 0;
#X connect 0 0 5 0;
#X connect 0 0 6 0;
#X connect 0 0 7 0;
#X connect 0 0 8 0;
#X connect 0 0 15 0;
#X connect 0 0 16 0;
#X connect 0 0 17 0;
#X connect 3 0 2 0;
#X connect 4 0 9 0;
#X connect 5 0 10 0;
#X connect 6 0 12 0;
#X connect 7 0 11 0;
#X connect 8 0 13 0;
#X connect 8 0 27 0;
#X connect 15 0 14 0;
#X connect 15 0 25 0;
#X connect 16 0 18 0;
#X connect 16 0 24 0;
#X connect 17 0 19 0;
#X connect 17 0 22 0;
#X connect 21 0 20 0;
#X connect 22 0 52 0;
#X connect 23 0 29 0;
#X connect 24 0 43 0;
#X connect 25 0 36 0;
#X connect 26 0 23 0;
#X connect 26 1 28 0;
#X connect 27 0 26 0;
#X connect 28 0 29 1;
#X connect 29 0 21 0;
#X connect 29 0 32 0;
#X connect 30 0 31 0;
#X connect 33 0 35 0;
#X connect 34 0 28 0;
#X connect 35 0 23 0;
#X connect 35 1 34 0;
#X connect 36 0 42 0;
#X connect 36 1 37 0;
#X connect 37 0 38 1;
#X connect 38 0 41 0;
#X connect 38 0 21 0;
#X connect 39 0 37 0;
#X connect 40 0 42 0;
#X connect 40 1 39 0;
#X connect 42 0 38 0;
#X connect 43 0 48 0;
#X connect 43 1 44 0;
#X connect 44 0 45 1;
#X connect 45 0 49 0;
#X connect 45 0 21 0;
#X connect 46 0 44 0;
#X connect 47 0 48 0;
#X connect 47 1 46 0;
#X connect 48 0 45 0;
#X connect 50 0 40 0;
#X connect 51 0 47 0;
#X connect 52 0 58 0;
#X connect 52 1 53 0;
#X connect 53 0 54 1;
#X connect 54 0 21 0;
#X connect 54 0 59 0;
#X connect 55 0 53 0;
#X connect 56 0 58 0;
#X connect 56 1 55 0;
#X connect 57 0 56 0;
#X connect 58 0 54 0;
