#N canvas 588 434 869 616 10;
#X declare -path puma;
#X obj 206 120 outlet;
#X obj 270 120 outlet;
#X obj 218 -22 OSCroute /key;
#X obj 218 -46 OSCroute /grid;
#X obj 218 -69 OSCroute /monome;
#X obj 254 -177 comment 116 15 Helvetica ? 0 80 80 80 basic connectivity
;
#X obj 353 -142 loadbang;
#X obj 353 -64 sendOSC;
#X obj 218 -95 unpackOSC;
#X msg 353 -122 connect localhost 12436;
#X obj 218 36 unpack f f f;
#X floatatom 218 63 3 0 0 0 - - -;
#X floatatom 252 63 3 0 0 0 - - -;
#X floatatom 287 63 3 0 0 0 - - -;
#X obj 326 120 outlet;
#X obj 218 10 s monome.press;
#X obj 530 -143 r monome.led;
#X obj 213 -201 declare -path puma;
#X obj 530 -94 OSCprepend /monome;
#X obj 530 -70 list prepend send;
#X obj 530 -45 list trim;
#X obj 530 -117 OSCprepend /grid;
#X obj 218 -121 udpreceive 21339;
#X msg 497 62 send /monome/grid/led/set 1 1 0;
#X connect 2 0 10 0;
#X connect 2 0 15 0;
#X connect 3 0 2 0;
#X connect 4 0 3 0;
#X connect 6 0 9 0;
#X connect 8 0 4 0;
#X connect 9 0 7 0;
#X connect 10 0 11 0;
#X connect 10 1 12 0;
#X connect 10 2 13 0;
#X connect 11 0 0 0;
#X connect 12 0 1 0;
#X connect 13 0 14 0;
#X connect 16 0 21 0;
#X connect 18 0 19 0;
#X connect 19 0 20 0;
#X connect 20 0 7 0;
#X connect 21 0 18 0;
#X connect 22 0 8 0;
#X connect 23 0 7 0;
#X coords 0 -1 1 1 120 40 1 200 50;
