#N canvas 463 480 414 541 10;
#X obj 133 406 pack f f;
#X obj 133 352 t b b;
#X obj 21 72 t b b;
#X obj 52 180 spigot;
#X msg 97 159 0;
#X msg 67 159 1;
#X obj 61 72 t b b;
#X obj 78 305 == 0;
#X obj 52 326 sel 1 0;
#X obj 52 305 i 1;
#X obj 23 405 pack f f;
#X obj 23 352 t b b;
#X obj 23 376 i \$2;
#X obj 53 376 i \$3;
#X obj 133 377 i \$2;
#X obj 163 377 i \$3;
#X obj 66 481 s \$1-led-blink;
#X obj 151 15 r \$1-led-blink-timing;
#X obj 21 15 r \$1-\$2-\$3-led-blink;
#X obj 21 41 route 1 0;
#X obj 104 72 t b f b;
#X obj 52 206 div;
#X obj 52 226 change;
#X obj 79 265 mod 2;
#X obj 52 245 t b f;
#X obj 165 264 sel 0;
#X msg 128 232 0;
#X msg 23 427 /led/set \$1 \$2 1;
#X msg 133 428 /led/set \$1 \$2 0;
#X connect 0 0 28 0;
#X connect 1 0 14 0;
#X connect 1 1 15 0;
#X connect 2 0 11 0;
#X connect 2 1 4 0;
#X connect 2 1 26 0;
#X connect 3 0 21 0;
#X connect 4 0 3 1;
#X connect 5 0 3 1;
#X connect 6 0 1 0;
#X connect 6 1 4 0;
#X connect 7 0 9 1;
#X connect 8 0 11 0;
#X connect 8 1 1 0;
#X connect 9 0 7 0;
#X connect 9 0 8 0;
#X connect 10 0 27 0;
#X connect 11 0 12 0;
#X connect 11 1 13 0;
#X connect 12 0 10 0;
#X connect 13 0 10 1;
#X connect 14 0 0 0;
#X connect 15 0 0 1;
#X connect 17 0 3 0;
#X connect 18 0 19 0;
#X connect 19 0 2 0;
#X connect 19 1 6 0;
#X connect 19 2 20 0;
#X connect 20 0 5 0;
#X connect 20 1 21 1;
#X connect 20 2 26 0;
#X connect 21 0 22 0;
#X connect 22 0 24 0;
#X connect 23 0 25 0;
#X connect 24 0 9 0;
#X connect 24 1 23 0;
#X connect 25 0 26 0;
#X connect 26 0 9 1;
#X connect 27 0 16 0;
#X connect 28 0 16 0;
