#N canvas 140 262 342 506 10;
#X obj 42 22 inlet;
#X obj 160 437 outlet;
#X obj 230 338 pack f f;
#X obj 111 338 pack f f;
#X obj 111 210 t f b;
#X obj 232 23 inlet;
#X obj 230 258 t f f;
#X obj 111 258 t f f;
#X obj 230 283 mod;
#X obj 260 283 div;
#X obj 111 283 mod;
#X obj 141 283 div;
#X obj 111 309 +;
#X obj 141 309 +;
#X obj 230 309 +;
#X obj 260 309 +;
#X obj 42 48 route coords;
#N canvas 0 22 450 300 unpack-coords 0;
#X obj 33 19 inlet;
#X obj 33 53 unpack f f f f;
#X obj 33 82 s \$0-x;
#X obj 60 102 s \$0-y;
#X obj 87 82 s \$0-xn;
#X obj 114 102 s \$0-yn;
#X connect 0 0 1 0;
#X connect 1 0 2 0;
#X connect 1 1 3 0;
#X connect 1 2 4 0;
#X connect 1 3 5 0;
#X restore 58 168 pd unpack-coords;
#X msg 42 129 1;
#X msg 81 129 0;
#X obj 111 146 spigot 1;
#X obj 111 116 spigot;
#X obj 144 95 <;
#X obj 159 32 r \$0-xn;
#X obj 174 53 r \$0-yn;
#X obj 159 74 *;
#X obj 111 77 t f f;
#X obj 16 294 r \$0-x;
#X obj 65 294 r \$0-y;
#X obj 16 266 r \$0-xn;
#N canvas 0 22 309 159 load-coords 0;
#X obj 5 95 i \$1;
#X obj 38 95 i \$2;
#X obj 5 15 loadbang;
#X obj 5 72 t b b b b;
#X obj 71 95 i \$3;
#X obj 104 95 i \$4;
#X obj 5 118 s \$0-x;
#X obj 38 138 s \$0-y;
#X obj 71 118 s \$0-xn;
#X obj 104 138 s \$0-yn;
#X connect 0 0 6 0;
#X connect 1 0 7 0;
#X connect 2 0 3 0;
#X connect 3 0 0 0;
#X connect 3 1 1 0;
#X connect 3 2 4 0;
#X connect 3 3 5 0;
#X connect 4 0 8 0;
#X connect 5 0 9 0;
#X restore 215 127 pd load-coords;
#X obj 42 105 t b l b b;
#X obj 111 189 i;
#X obj 138 239 i;
#X obj 232 53 route clear redraw;
#X msg 111 360 /led/set \$1 \$2 1;
#X msg 230 360 /led/set \$1 \$2 0;
#X connect 0 0 16 0;
#X connect 2 0 36 0;
#X connect 3 0 35 0;
#X connect 4 0 7 0;
#X connect 4 0 33 1;
#X connect 4 1 33 0;
#X connect 5 0 34 0;
#X connect 6 0 8 0;
#X connect 6 1 9 0;
#X connect 7 0 10 0;
#X connect 7 1 11 0;
#X connect 8 0 14 0;
#X connect 9 0 15 0;
#X connect 10 0 12 0;
#X connect 11 0 13 0;
#X connect 12 0 3 0;
#X connect 13 0 3 1;
#X connect 14 0 2 0;
#X connect 15 0 2 1;
#X connect 16 0 31 0;
#X connect 16 1 26 0;
#X connect 18 0 20 1;
#X connect 19 0 20 1;
#X connect 20 0 32 0;
#X connect 21 0 20 0;
#X connect 22 0 21 1;
#X connect 23 0 25 0;
#X connect 24 0 25 1;
#X connect 25 0 22 1;
#X connect 26 0 21 0;
#X connect 26 1 22 0;
#X connect 27 0 12 1;
#X connect 27 0 14 1;
#X connect 28 0 15 1;
#X connect 28 0 13 1;
#X connect 29 0 10 1;
#X connect 29 0 11 1;
#X connect 29 0 8 1;
#X connect 29 0 9 1;
#X connect 31 0 18 0;
#X connect 31 0 32 0;
#X connect 31 1 17 0;
#X connect 31 2 19 0;
#X connect 31 3 33 0;
#X connect 32 0 4 0;
#X connect 33 0 6 0;
#X connect 34 0 33 0;
#X connect 34 1 32 0;
#X connect 35 0 1 0;
#X connect 36 0 1 0;
