#N canvas 419 229 575 525 10;
#X obj 21 15 inlet;
#X obj 159 469 outlet;
#X obj 111 218 t f f;
#X obj 141 271 +;
#X obj 111 271 +;
#X obj 17 381 pack f f;
#X obj 438 15 inlet;
#X obj 111 243 mod;
#X obj 141 243 div;
#X obj 111 145 spigot;
#X obj 150 119 <;
#X obj 438 63 route clear;
#X msg 48 153 1;
#X msg 77 153 0;
#X obj 21 96 t b l b b;
#X obj 62 243 r \$0-x;
#X obj 265 244 r \$0-y;
#X obj 155 195 r \$0-xn;
#X obj 165 36 r \$0-xn;
#X obj 180 57 r \$0-yn;
#X obj 165 98 *;
#N canvas 0 22 450 300 unpack-coords 0;
#X obj 33 19 inlet;
#X obj 33 53 unpack f f f f;
#X obj 33 82 s \$0-x;
#X obj 60 102 s \$0-y;
#X obj 87 82 s \$0-xn;
#X obj 114 102 s \$0-yn;
#X connect 0 0 1 0;
#X connect 1 0 2 0;
#X connect 1 1 3 0;
#X connect 1 2 4 0;
#X connect 1 3 5 0;
#X restore 38 195 pd unpack-coords;
#N canvas 0 22 309 159 load-coords 0;
#X obj 5 95 i \$1;
#X obj 38 95 i \$2;
#X obj 5 15 loadbang;
#X obj 5 72 t b b b b;
#X obj 71 95 i \$3;
#X obj 104 95 i \$4;
#X obj 5 118 s \$0-x;
#X obj 38 138 s \$0-y;
#X obj 71 118 s \$0-xn;
#X obj 104 138 s \$0-yn;
#X connect 0 0 6 0;
#X connect 1 0 7 0;
#X connect 2 0 3 0;
#X connect 3 0 0 0;
#X connect 3 1 1 0;
#X connect 3 2 4 0;
#X connect 3 3 5 0;
#X connect 4 0 8 0;
#X connect 5 0 9 0;
#X restore 164 16 pd load-coords;
#X obj 210 340 pipe f f 10;
#X obj 201 380 pack f f;
#X obj 111 98 t f f;
#X msg 271 285 flush;
#X obj 501 85 - 3;
#X obj 111 170 spigot 1;
#X obj 201 145 spigot;
#X obj 240 119 <;
#X obj 255 98 *;
#X obj 201 98 t f f;
#X obj 201 170 spigot 1;
#X obj 201 218 t f f;
#X obj 231 271 +;
#X obj 201 271 +;
#X obj 201 243 mod;
#X obj 231 243 div;
#X obj 21 34 route coords inv;
#X msg 11 293 clear;
#X obj 16 339 pipe f f 30;
#X obj 90 319 / 6;
#X msg 17 403 /led/set \$1 \$2 1;
#X msg 201 401 /led/set \$1 \$2 0;
#X connect 0 0 39 0;
#X connect 2 0 7 0;
#X connect 2 1 8 0;
#X connect 3 0 24 1;
#X connect 3 0 41 1;
#X connect 4 0 24 0;
#X connect 4 0 41 0;
#X connect 5 0 43 0;
#X connect 6 0 11 0;
#X connect 7 0 4 0;
#X connect 8 0 3 0;
#X connect 9 0 28 0;
#X connect 10 0 9 1;
#X connect 11 0 26 0;
#X connect 11 0 40 0;
#X connect 11 1 27 0;
#X connect 11 1 42 0;
#X connect 12 0 28 1;
#X connect 12 0 33 1;
#X connect 13 0 28 1;
#X connect 13 0 33 1;
#X connect 14 0 12 0;
#X connect 14 1 21 0;
#X connect 14 2 26 0;
#X connect 14 2 40 0;
#X connect 14 3 13 0;
#X connect 15 0 4 1;
#X connect 15 0 36 1;
#X connect 16 0 3 1;
#X connect 16 0 35 1;
#X connect 17 0 7 1;
#X connect 17 0 8 1;
#X connect 17 0 37 1;
#X connect 17 0 38 1;
#X connect 18 0 20 0;
#X connect 18 0 31 0;
#X connect 19 0 20 1;
#X connect 19 0 31 1;
#X connect 20 0 10 1;
#X connect 23 0 24 0;
#X connect 23 1 24 1;
#X connect 24 0 44 0;
#X connect 25 0 9 0;
#X connect 25 1 10 0;
#X connect 26 0 23 0;
#X connect 27 0 23 2;
#X connect 28 0 2 0;
#X connect 29 0 33 0;
#X connect 30 0 29 1;
#X connect 31 0 30 1;
#X connect 32 0 29 0;
#X connect 32 1 30 0;
#X connect 33 0 34 0;
#X connect 34 0 37 0;
#X connect 34 1 38 0;
#X connect 35 0 23 1;
#X connect 35 0 5 1;
#X connect 36 0 23 0;
#X connect 36 0 5 0;
#X connect 37 0 36 0;
#X connect 38 0 35 0;
#X connect 39 0 14 0;
#X connect 39 1 25 0;
#X connect 39 2 32 0;
#X connect 40 0 41 0;
#X connect 41 0 5 0;
#X connect 41 1 5 1;
#X connect 42 0 41 2;
#X connect 43 0 1 0;
#X connect 44 0 1 0;
