#N canvas 328 102 975 643 10;
#X obj 345 258 unpackOSC;
#X obj 196 514 udpsend;
#X obj 100 100 cnv 15 550 20 empty empty empty 5 9 1 10 -146561 -66577
0;
#X obj 101 101 cnv 15 548 18 empty empty puma.serialosc 5 9 1 10 -262144
-66577 0;
#X symbolatom 511 103 6 0 0 0 prefix #0-monome-prefix-ctrl-r #0-monome-prefix-ctrl
;
#N canvas 596 308 768 406 connect_ctrl 0;
#X msg 47 240 /connect 0;
#X obj 22 112 route 1 0;
#X obj 430 -4 loadbang;
#X obj 47 218 bang;
#X obj 22 140 list prepend /connect 1;
#X obj 22 167 list trim;
#X msg 444 120 set localhost;
#X obj 254 22 inlet;
#X msg 504 272 set /box;
#X obj 22 -30 r \$0-monome-connect-ctrl;
#X obj 489 310 s \$0-monome-prefix-ctrl-r;
#X obj 22 263 outlet;
#X obj 50 42 r \$0-monome-host-ctrl;
#X obj 22 82 pack f s f;
#X obj 254 78 list prepend symbol;
#X obj 254 100 list trim;
#X obj 332 207 list prepend symbol;
#X obj 332 229 list trim;
#X obj 254 47 route ip port prefix;
#X obj 22 11 t f f;
#X obj 71 10 s \$0-monome-resolve-ctrl;
#X obj 430 21 t b b b b b b b b;
#X obj 582 56 random 9000;
#X obj 582 78 + 9000;
#X floatatom 582 100 5 0 0 0 - - -;
#X obj 582 13 bng 15 250 50 0 empty empty empty 17 7 0 10 -262144 -1
-1;
#X obj 569 179 s \$0-monome-port-listen-ctrl-r;
#X msg 584 159 set 8000;
#X obj 79 62 r \$0-monome-port-send-ctrl;
#X obj 429 140 s \$0-monome-host-ctrl-r;
#X obj 457 213 s \$0-monome-port-listen-ctrl;
#X obj 489 337 s \$0-monome-prefix-ctrl;
#X connect 0 0 11 0;
#X connect 1 0 4 0;
#X connect 1 1 3 0;
#X connect 2 0 21 0;
#X connect 3 0 0 0;
#X connect 4 0 5 0;
#X connect 5 0 11 0;
#X connect 6 0 29 0;
#X connect 7 0 18 0;
#X connect 8 0 10 0;
#X connect 8 0 31 0;
#X connect 9 0 19 0;
#X connect 12 0 13 1;
#X connect 13 0 1 0;
#X connect 14 0 15 0;
#X connect 15 0 29 0;
#X connect 16 0 17 0;
#X connect 17 0 10 0;
#X connect 18 0 14 0;
#X connect 18 1 30 0;
#X connect 18 2 16 0;
#X connect 19 0 13 0;
#X connect 19 1 20 0;
#X connect 21 0 29 0;
#X connect 21 1 6 0;
#X connect 21 2 22 0;
#X connect 21 3 31 0;
#X connect 21 4 10 0;
#X connect 21 5 8 0;
#X connect 22 0 23 0;
#X connect 23 0 24 0;
#X connect 23 0 30 0;
#X connect 25 0 22 0;
#X connect 27 0 26 0;
#X connect 28 0 13 2;
#X restore 61 201 pd connect_ctrl;
#N canvas 652 137 483 631 monome.connect 0;
#X obj 109 9 inlet;
#X obj 122 488 outlet;
#X msg 149 211 disconnect;
#X obj 109 48 route 1 0;
#X msg 109 231 connect \$1 \$2;
#X msg 167 276 \; pd-dumposc clear;
#X obj 180 405 pack \$0 f;
#X obj 123 262 t b b;
#X obj 149 187 del 300;
#X obj 149 75 t b b;
#X obj 109 119 list prepend;
#X msg 180 535 \; pd-dumposc obj 10 10 udpreceive \$2 \; pd-dumposc
obj 10 40 send \$1-dumposc \; pd-dumposc connect 0 0 1 0 \;;
#X msg 204 117 /clear;
#X obj 204 142 outlet;
#X obj 231 328 r \$0-monome-port-listen-ctrl;
#X obj 284 427 f;
#X obj 284 356 r \$0-monome-connected;
#X msg 284 456 send /sys/port \$1;
#X obj 284 478 s \$0-to-sys;
#X obj 231 357 t f b f;
#X obj 293 294 print listen-port;
#X obj 284 378 del 500;
#X connect 0 0 3 0;
#X connect 2 0 1 0;
#X connect 2 0 5 0;
#X connect 3 0 10 0;
#X connect 3 1 9 0;
#X connect 4 0 1 0;
#X connect 4 0 7 0;
#X connect 6 0 11 0;
#X connect 7 0 6 0;
#X connect 7 1 5 0;
#X connect 8 0 2 0;
#X connect 9 0 8 0;
#X connect 9 1 12 0;
#X connect 10 0 4 0;
#X connect 12 0 13 0;
#X connect 14 0 19 0;
#X connect 14 0 20 0;
#X connect 15 0 17 0;
#X connect 16 0 21 0;
#X connect 17 0 18 0;
#X connect 19 0 6 1;
#X connect 19 1 15 0;
#X connect 19 2 15 1;
#X connect 21 0 15 0;
#X restore 61 359 pd monome.connect;
#X obj 345 226 r \$0-dumposc;
#X symbolatom 359 103 15 0 0 0 host #0-monome-host-ctrl-r #0-monome-host-ctrl
;
#X obj 293 102 tgl 16 0 \$0-monome-connect-ctrl \$0-monome-connect-ctrl-r
empty -85 8 1 8 -228856 -1 -1 1 1;
#N canvas 0 22 221 141 dumposc 0;
#X obj 10 10 udpreceive 15692;
#X obj 10 40 send 1003-dumposc;
#X connect 0 0 1 0;
#X restore 344 197 pd dumposc;
#X obj 515 318 s monome.press;
#N canvas 62 274 400 172 receive-prefix 0;
#X restore 768 173 pd receive-prefix;
#N canvas 93 281 469 375 prefix-ctrl 0;
#X obj 72 112 t a b;
#X msg 99 144 \; pd-receive-prefix clear;
#X obj 72 191 pack s \$0;
#X obj 72 -20 r \$0-monome-prefix-ctrl;
#X msg 72 218 \; pd-receive-prefix obj 10 10 receive \$2-to-prefix
\; pd-receive-prefix obj 10 40 routeOSC \$1 /sys \; pd-receive-prefix
obj 10 70 send \$2-from-prefix \; pd-receive-prefix obj 200 70 send
\$2-from-sys \; pd-receive-prefix connect 0 0 1 0 \; pd-receive-prefix
connect 1 0 2 0 \; pd-receive-prefix connect 1 1 3 0 \;;
#X obj 155 112 s \$0-to-sys;
#X obj 155 7 r \$0-monome-connected;
#X msg 155 79 /box;
#X obj 155 43 symbol;
#X obj 72 26 t a a a;
#X connect 0 0 2 0;
#X connect 0 1 1 0;
#X connect 2 0 4 0;
#X connect 3 0 9 0;
#X connect 6 0 8 0;
#X connect 7 0 5 0;
#X connect 8 0 7 0;
#X connect 9 0 0 0;
#X connect 9 1 7 0;
#X connect 9 2 8 1;
#X restore 514 173 pd prefix-ctrl;
#X obj 515 229 r \$0-from-prefix;
#X text 606 173 creates routeOSC in it -->;
#N canvas 68 396 318 292 bonjour 0;
#X obj 32 -288 loadbang;
#X msg 32 -266 browse _monome-osc._udp;
#X obj 32 -239 simplebonjour;
#N canvas 145 245 415 530 vert-list 0;
#X obj 52 157 list length;
#X obj 33 26 inlet;
#X obj 33 94 list append;
#X obj 33 127 t a a a;
#X obj 33 212 list prepend set;
#X obj 33 234 list trim;
#X obj 201 81 <=;
#X obj 168 167 spigot;
#X obj 174 48 t f f;
#X obj 168 189 t b f;
#X obj 168 126 int;
#X obj 174 26 r \$0-monome-number-ctrl;
#X obj 33 464 s \$0-monome-number-ctrl-r;
#X obj 33 435 list trim;
#X obj 33 410 list prepend label;
#X obj 200 463 outlet;
#X obj 200 413 list trim;
#X obj 200 435 symbol;
#X msg 33 273 m0000015;
#X obj 96 25 loadbang;
#N canvas 0 22 450 300 u_listnth 0;
#X obj 35 72 list;
#X msg 122 153 set \, adddollar \$1;
#X obj 35 245 outlet;
#X obj 35 43 inlet;
#X obj 90 74 f \$1;
#X obj 136 44 loadbang;
#X obj 90 43 inlet;
#X obj 90 97 moses;
#X obj 122 119 + 1;
#X msg 90 131 set;
#X msg 35 213 \$1;
#N canvas 228 198 627 317 LICENSE-BSD 0;
#X text 121 56 This software is copyrighted by Miller Puckette \, Reality
Jockey Ltd. and others. The terms (the "Standard Improved BSD License")
apply to all files associated with the software unless explicitly disclaimed
in individual files.;
#X text 123 148 See the file LICENSE.txt for the full license text.
;
#X restore 232 16 pd LICENSE-BSD;
#X connect 0 0 10 0;
#X connect 1 0 10 0;
#X connect 3 0 0 0;
#X connect 4 0 7 0;
#X connect 5 0 4 0;
#X connect 6 0 4 0;
#X connect 7 0 9 0;
#X connect 7 1 8 0;
#X connect 8 0 1 0;
#X connect 9 0 10 0;
#X connect 10 0 2 0;
#X restore 33 301 pd u_listnth 1;
#X floatatom 324 27 5 0 0 0 - - -;
#X obj 33 324 t a a;
#X floatatom 196 227 5 0 0 0 - - -;
#X obj 111 68 bng 15 250 50 0 empty empty empty 17 7 0 10 -262144 -1
-1;
#X obj 52 184 - 1;
#X connect 0 0 25 0;
#X connect 1 0 2 0;
#X connect 2 0 3 0;
#X connect 3 0 4 0;
#X connect 3 1 0 0;
#X connect 3 2 2 1;
#X connect 4 0 5 0;
#X connect 5 0 18 0;
#X connect 6 0 7 1;
#X connect 7 0 9 0;
#X connect 8 0 10 0;
#X connect 8 1 6 0;
#X connect 9 0 18 0;
#X connect 9 1 20 1;
#X connect 9 1 23 0;
#X connect 10 0 7 0;
#X connect 11 0 8 0;
#X connect 11 0 21 0;
#X connect 13 0 12 0;
#X connect 14 0 13 0;
#X connect 16 0 17 0;
#X connect 17 0 15 0;
#X connect 18 0 20 0;
#X connect 19 0 2 1;
#X connect 20 0 22 0;
#X connect 22 0 14 0;
#X connect 22 1 16 0;
#X connect 24 0 2 1;
#X connect 25 0 6 1;
#X restore 107 -209 pd vert-list;
#X obj 74 -137 symbol;
#X msg 74 -102 resolve \$1;
#X obj 74 -162 sel 1;
#X obj 74 -184 r \$0-monome-resolve-ctrl;
#X obj 32 -73 s \$0-monome-port-send-ctrl;
#X obj 183 -266 r \$0-bonjour-refresh;
#X obj 25 -39 print simplebonjour;
#X obj 120 -137 bng 15 250 50 0 empty empty empty 17 7 0 10 -262144
-1 -1;
#X connect 0 0 1 0;
#X connect 1 0 2 0;
#X connect 2 0 8 0;
#X connect 2 0 10 0;
#X connect 2 1 3 0;
#X connect 3 0 4 1;
#X connect 4 0 5 0;
#X connect 5 0 2 0;
#X connect 6 0 4 0;
#X connect 7 0 6 0;
#X connect 9 0 1 0;
#X connect 11 0 4 0;
#X restore 344 171 pd bonjour;
#X obj 194 105 vsl 92 9 0 4 0 0 \$0-monome-number-ctrl \$0-monome-number-ctrl-r
m0000015 3 6 0 10 -262144 -262144 -1 0 1;
#X obj 61 171 inlet;
#X obj 61 329 routeOSC /connect;
#X obj 196 390 OSCprepend /box;
#X obj 283 367 r \$0-monome-prefix-ctrl;
#X obj 107 244 r monome.led;
#X obj 107 288 spigot;
#X obj 140 266 r \$0-monome-connect-ctrl;
#X obj 196 422 list prepend send;
#X obj 196 444 list trim;
#X obj 196 466 packOSC;
#X obj 345 290 s \$0-to-prefix;
#X obj 642 264 routeOSC /port /prefix /id;
#X obj 642 229 r \$0-from-sys;
#X obj 196 536 sel 1;
#X obj 515 265 routeOSC /grid;
#X obj 515 287 routeOSC /key;
#X obj 257 465 r \$0-to-sys;
#X obj 196 587 s \$0-monome-connected;
#X msg 815 278 send /sys/info;
#X obj 196 558 bang;
#X obj 196 337 OSCprepend /grid;
#X obj 615 102 bng 16 250 50 0 \$0-bonjour-refresh empty refresh -46
10 0 10 -262144 -1 -1;
#X obj 642 317 print /port;
#X obj 693 359 print /prefix;
#X obj 744 316 print /id;
#X obj 815 229 r \$0-monome-connected;
#X obj 815 251 del 500;
#X obj 815 303 s \$0-to-sys;
#X connect 0 0 28 0;
#X connect 1 0 31 0;
#X connect 5 0 19 0;
#X connect 6 0 1 0;
#X connect 7 0 0 0;
#X connect 14 0 32 0;
#X connect 18 0 5 0;
#X connect 19 0 6 0;
#X connect 19 1 38 0;
#X connect 20 0 25 0;
#X connect 21 0 20 1;
#X connect 22 0 23 0;
#X connect 23 0 19 0;
#X connect 24 0 23 1;
#X connect 25 0 26 0;
#X connect 26 0 27 0;
#X connect 27 0 1 0;
#X connect 29 0 40 0;
#X connect 29 1 41 0;
#X connect 29 2 42 0;
#X connect 30 0 29 0;
#X connect 31 0 37 0;
#X connect 32 0 33 0;
#X connect 33 0 11 0;
#X connect 34 0 27 0;
#X connect 36 0 45 0;
#X connect 37 0 35 0;
#X connect 38 0 20 0;
#X connect 43 0 44 0;
#X connect 44 0 36 0;
#X coords 0 -1 1 1 550 20 2 100 100;
