#N canvas 25 105 607 456 10;
#X obj 6 214 inlet~;
#X obj 7 337 *~;
#X obj 139 342 *~;
#X obj 7 457 outlet~;
#X obj 140 451 outlet~;
#X obj 103 207 * -1;
#X obj 103 232 + 1;
#X obj 21 289 line~;
#X obj 155 290 line~;
#X obj 8 372 *~;
#X obj 140 377 *~;
#X obj 8 397 *~;
#X obj 140 402 *~;
#X obj 10 119 tgl 15 0 empty empty m 17 7 0 10 -262144 -1 -1 0 1;
#X obj 37 87 vsl 10 50 0 1 0 0 empty empty vol 0 -9 0 10 -4160 -1 -1
0 1;
#X obj 183 347 line~;
#X obj 65 377 line~;
#X obj 65 347 pack 0 10;
#X obj 236 238 outlet~;
#X obj 323 374 outlet~;
#X obj 249 173 line~;
#X obj 235 201 *~;
#X obj 322 341 *~;
#X obj 336 311 line~;
#X obj 249 145 pack 0 20;
#X obj 336 283 pack 0 20;
#X obj 183 319 pack 0 20;
#X obj 155 262 pack 0 20;
#X obj 21 261 pack 0 20;
#X obj 6 29 knob 20 20 0 1 0 0 empty empty send1 0 -8 0 8 -262144 -1
-1 0 1;
#X obj 31 43 knob 20 20 0 1 0 0 empty empty send2 0 -8 0 8 -4034 -1
-1 0 1;
#X obj 9 86 knob 20 20 0 1 0 0 empty empty pan 0 -8 0 8 -4034 -1 -1
950 1;
#X text 76 30 controls;
#X text 321 159 signal smoothing (20ms);
#X text 378 307 signal smoothing (20ms);
#X text 87 259 panorama;
#X obj 177 43 loadbang;
#X msg 177 68 0.5;
#X text 258 49 panorama centered at loadtime;
#X text 278 204 send 1 pre fader;
#X text 362 342 send 2 pre fader;
#X text 68 403 mute;
#X text 152 7 mono to stereo mixer channel with 2 pre-fader sends;
#X connect 0 0 1 0;
#X connect 0 0 2 0;
#X connect 0 0 21 0;
#X connect 0 0 22 0;
#X connect 1 0 9 0;
#X connect 2 0 10 0;
#X connect 5 0 6 0;
#X connect 6 0 28 0;
#X connect 7 0 1 1;
#X connect 8 0 2 1;
#X connect 9 0 11 0;
#X connect 10 0 12 0;
#X connect 11 0 3 0;
#X connect 12 0 4 0;
#X connect 13 0 17 0;
#X connect 14 0 26 0;
#X connect 15 0 10 1;
#X connect 15 0 9 1;
#X connect 16 0 12 1;
#X connect 16 0 11 1;
#X connect 17 0 16 0;
#X connect 20 0 21 1;
#X connect 21 0 18 0;
#X connect 22 0 19 0;
#X connect 23 0 22 1;
#X connect 24 0 20 0;
#X connect 25 0 23 0;
#X connect 26 0 15 0;
#X connect 27 0 8 0;
#X connect 28 0 7 0;
#X connect 29 0 24 0;
#X connect 30 0 25 0;
#X connect 31 0 5 0;
#X connect 31 0 27 0;
#X connect 36 0 37 0;
#X connect 37 0 31 0;
#X coords 0 -1 1 1 60 150 1 0 0;
