#N canvas 274 128 569 374 10;
#X obj 40 162 inlet~;
#X obj 43 296 outlet~;
#X obj 214 302 outlet~;
#X obj 42 266 *~ 0.3;
#X obj 213 268 *~ 0.3;
#X obj 107 30 vsl 10 50 0 1 0 1 empty empty fb 0 -9 0 10 -258113 -1
-1 1700 1;
#X obj 6 30 vsl 10 50 0 2000 0 1 empty empty time 0 -9 0 10 -4032 -1
-1 2300 1;
#X obj 23 30 vsl 10 50 0 2000 0 1 empty empty empty 0 -9 0 10 -4034
-1 -1 2300 1;
#X obj 286 154 *~ 0;
#X obj 127 30 vsl 10 50 0 1 0 1 empty empty dry 0 -9 0 10 -257985 -1
-1 0 1;
#X obj 307 102 pack 0 50;
#X obj 307 129 line;
#X obj 41 197 delwrite~ \$0-del 5000;
#X obj 214 197 delwrite~ \$0-del2 5000;
#X obj 213 233 delread~ \$0-del2 \$2;
#X obj 42 231 delread~ \$0-del \$1;
#X obj 44 28 nbx 5 14 1 5000 0 1 empty empty time_ms 0 -8 0 10 -262144
-1 -1 120 256;
#X obj 44 47 nbx 5 14 1 5000 0 1 empty empty empty 0 -8 0 10 -262144
-1 -1 250 256;
#X obj 189 78 /;
#X obj 44 76 nbx 5 14 0 1000 0 1 empty empty bmp 0 -8 0 10 -262144
-1 -1 63.5744 256;
#X msg 189 47 60000;
#X obj 162 16 t f b;
#X text 237 46 bmb calculator;
#X text 232 4 mono to stereo delay;
#X text 365 133 dry signal level;
#X text 379 105 control signal smoothing (50ms);
#X text 267 269 feedback level;
#X text 103 270 feedback level;
#X text 369 224 delay;
#X connect 0 0 8 0;
#X connect 0 0 12 0;
#X connect 0 0 13 0;
#X connect 3 0 1 0;
#X connect 3 0 12 0;
#X connect 4 0 2 0;
#X connect 4 0 13 0;
#X connect 5 0 4 1;
#X connect 5 0 3 1;
#X connect 6 0 16 0;
#X connect 7 0 17 0;
#X connect 8 0 1 0;
#X connect 8 0 2 0;
#X connect 9 0 10 0;
#X connect 10 0 11 0;
#X connect 11 0 8 1;
#X connect 14 0 4 0;
#X connect 15 0 3 0;
#X connect 16 0 15 0;
#X connect 16 0 21 0;
#X connect 17 0 14 0;
#X connect 18 0 19 0;
#X connect 20 0 18 0;
#X connect 21 0 18 1;
#X connect 21 1 20 0;
#X coords 0 0 1 1 150 100 1 0 0;
