#N canvas 2727 438 341 374 10;
#X obj 14 143 inlet~;
#X obj 109 161 env~;
#X obj 7 32 vsl 10 50 0 100 0 0 empty empty th 0 -9 0 10 -257985 -1
-1 4900 1;
#X obj 46 32 vsl 10 50 0 100 0 0 empty empty in 0 -9 0 10 -257985 -1
-1 3606 1;
#X obj 14 218 *~;
#X obj 119 208 >= 30;
#X obj 64 32 vsl 10 50 0 100 0 0 empty empty out 0 -9 0 10 -4034 -1
-1 0 1;
#X obj 67 326 env~;
#X obj 26 32 vsl 10 50 1 100 0 0 empty empty sp 0 -9 0 10 -4032 -1
-1 2900 1;
#X obj 108 294 line~;
#X obj 14 325 outlet~;
#X floatatom 108 234 5 0 0 0 - - -;
#X obj 108 267 pack 0 50;
#X text 118 33 simple gate;
#X text 175 266 gate speed in ms;
#X text 177 227 trashold;
#X text 148 162 dry level monitor;
#X text 99 327 wet level monitor;
#X obj 242 12 inlet;
#X obj 242 45 tgl 15 0 empty empty empty 17 7 0 10 -262144 -1 -1 1
1;
#X obj 242 100 * 100;
#X connect 0 0 1 0;
#X connect 0 0 4 0;
#X connect 1 0 3 0;
#X connect 2 0 5 1;
#X connect 3 0 5 0;
#X connect 4 0 7 0;
#X connect 4 0 10 0;
#X connect 5 0 11 0;
#X connect 5 0 12 0;
#X connect 7 0 6 0;
#X connect 8 0 12 1;
#X connect 9 0 4 1;
#X connect 12 0 9 0;
#X connect 18 0 19 0;
#X connect 19 0 20 0;
#X connect 20 0 2 0;
#X coords 0 -1 1 1 85 89 2 0 0;
